<svg width="150" height="27" viewBox="0 0 150 27" fill="none" xmlns="http://www.w3.org/2000/svg">
<path fill-rule="evenodd" clip-rule="evenodd" d="M74.5985 24.7869C74.1525 25.0589 73.6795 25.3019 73.1785 25.5109C69.5685 27.0199 65.2585 26.7309 61.9875 24.5419C53.1375 18.6119 64.4085 12.8509 64.4085 18.9779C64.4085 20.7219 61.7075 25.4549 69.0605 25.4549C70.6625 25.4019 72.3015 24.9719 73.7505 24.2109C68.4055 20.1729 67.8625 11.5539 73.0595 6.83191C73.3205 6.59391 73.5865 6.3709 73.8565 6.1599C68.9215 3.0479 62.1855 4.5969 56.3695 7.2139C58.3495 12.5579 55.3175 19.6219 48.7175 19.1109C45.8225 18.8859 43.9525 17.3319 43.0715 15.3189C32.5875 22.5349 19.5785 30.7709 8.20646 21.8589C4.40146 21.2229 0.564461 18.5499 0.0444613 14.4789C-0.329539 11.5639 1.68547 8.08691 4.97647 8.31191C9.51847 8.62091 11.0075 14.9019 6.40246 15.0529C4.80646 15.1049 4.49247 13.6319 4.44647 12.4179C4.40747 11.3639 4.52247 9.29391 2.50747 10.5789C1.50847 11.2169 0.707469 12.8469 1.61447 15.1979C2.19147 16.8439 3.20046 18.1289 4.64146 19.0479C6.07246 19.9929 7.83546 20.5139 9.53846 20.5999C13.4565 20.7969 17.0205 18.9439 20.0335 16.6059C23.0085 14.2979 25.5035 11.4709 28.1575 8.81391C27.7355 8.40991 27.3025 8.01691 26.8555 7.63791C24.4335 5.58991 21.5375 3.9229 18.2765 3.9489C16.8575 3.9609 15.3735 4.33091 14.1525 5.06691C12.9225 5.77991 12.0395 6.80991 11.5015 8.15891C10.6645 10.0799 11.2725 11.4629 12.0815 12.0279C13.7095 13.1659 13.6875 11.4429 13.7575 10.5679C13.8375 9.5619 14.1505 8.34891 15.4745 8.44791C19.2945 8.73491 17.8355 13.9019 14.0525 13.9989C11.3105 14.0689 9.75848 11.1089 10.1715 8.69991C10.7485 5.33391 14.0295 3.24891 17.2145 2.85491C23.3395 -1.53809 29.7595 -0.301095 35.7835 2.80091C42.2705 -0.648095 51.0755 -1.4481 55.5325 5.5249C55.6475 5.7069 55.7575 5.8919 55.8585 6.0809C62.0785 3.2949 69.0865 1.90491 74.5975 5.62091C80.1095 1.90491 87.1175 3.2949 93.3375 6.0809C93.4395 5.8919 93.5475 5.7069 93.6625 5.5249C98.1205 -1.4491 106.925 -0.648095 113.411 2.80091C119.434 -0.301095 125.856 -1.53809 131.98 2.85491C135.165 3.24891 138.446 5.33491 139.022 8.69991C139.436 11.1089 137.883 14.0689 135.142 13.9989C131.358 13.9019 129.899 8.73491 133.719 8.44791C135.043 8.34791 135.356 9.5609 135.436 10.5679C135.506 11.4429 135.484 13.1659 137.113 12.0279C137.922 11.4629 138.529 10.0799 137.693 8.15891C137.156 6.80991 136.271 5.77991 135.043 5.06691C133.82 4.33191 132.337 3.9619 130.919 3.9489C127.656 3.9229 124.761 5.58991 122.338 7.63791C121.892 8.01691 121.458 8.40991 121.037 8.81391C123.69 11.4709 126.185 14.2979 129.161 16.6059C132.175 18.9439 135.739 20.7969 139.655 20.5999C141.359 20.5149 143.123 19.9929 144.552 19.0479C145.993 18.1289 147.002 16.8449 147.58 15.1979C148.485 12.8469 147.685 11.2179 146.685 10.5789C144.67 9.29391 144.785 11.3639 144.746 12.4179C144.701 13.6319 144.387 15.1049 142.792 15.0529C138.188 14.9019 139.676 8.61991 144.217 8.31191C147.507 8.08691 149.523 11.5639 149.15 14.4789C148.628 18.5509 144.792 21.2239 140.988 21.8589C129.615 30.7699 116.606 22.5339 106.124 15.3189C105.242 17.3319 103.373 18.8869 100.478 19.1109C93.8775 19.6219 90.8455 12.5569 92.8275 7.2139C87.0125 4.5969 80.2745 3.0479 75.3395 6.1599C75.6095 6.3709 75.8765 6.59391 76.1365 6.83191C81.3345 11.5539 80.7905 20.1729 75.4455 24.2109C76.8955 24.9709 78.5335 25.4019 80.1355 25.4549C87.4875 25.4549 84.7875 20.7219 84.7875 18.9779C84.7875 12.8509 96.0585 18.6119 87.2075 24.5419C83.9395 26.7309 79.6275 27.0199 76.0175 25.5109C75.5175 25.3009 75.0445 25.0589 74.5985 24.7869ZM74.5985 6.6729C73.7925 7.2829 73.0445 8.0329 72.3645 8.9409C69.4225 12.8659 69.5365 18.9349 73.0815 22.4869C73.5395 22.9449 74.0505 23.3549 74.5985 23.7139C75.1475 23.3549 75.6585 22.9449 76.1165 22.4869C79.6625 18.9339 79.7755 12.8659 76.8335 8.9409C76.1535 8.03391 75.4045 7.2829 74.5985 6.6729ZM120.15 7.9399C123.074 5.0709 126.295 2.82391 130.376 2.76891C124.896 -0.0300925 119.519 0.931911 114.451 3.38791C115 3.71791 115.526 4.06391 116.029 4.42691C117.504 5.48791 118.853 6.6849 120.15 7.9399ZM105.344 7.95891C107.474 6.40091 109.711 4.8629 112.015 3.5589C106.245 0.755901 97.6875 0.545907 94.4815 6.61591C97.3785 8.01191 100.068 9.66791 102.304 11.1919C103.391 11.9309 104.506 12.7119 105.646 13.5079C105.887 12.0599 105.618 10.4709 104.851 9.10091C103.923 7.44191 102.699 7.70491 101.544 7.70491C99.6285 7.70491 99.6765 3.82291 102.978 5.75591C103.958 6.32791 104.748 7.08891 105.344 7.95891ZM119.994 9.8559C117.393 12.5449 115.118 15.5579 112.21 17.9399C120.604 23.2559 129.9 27.2279 139.064 22.0459C131.143 22.2769 125.63 15.5279 119.994 9.8559ZM111.182 17.2799C113.94 14.9969 116.427 11.7999 119.117 8.9859C117.181 7.0899 115.215 5.3669 113.117 4.1449C113.095 4.1319 113.072 4.1189 113.05 4.1059C110.563 5.4529 108.156 7.1159 105.855 8.8179C106.698 10.4719 106.926 12.3889 106.522 14.1179C108.037 15.1739 109.593 16.2449 111.182 17.2799ZM100.328 17.9969C102.945 17.8389 104.574 16.4979 105.295 14.7469C103.611 13.5839 101.997 12.4609 100.472 11.4569C98.6545 10.2579 96.4165 8.92791 93.9735 7.74791C93.8275 8.14591 93.6975 8.5619 93.5905 9.0029C92.5785 13.1619 95.6495 18.2779 100.328 17.9969ZM29.0485 7.9399C30.3455 6.6849 31.6955 5.48791 33.1695 4.42591C33.6725 4.06291 34.1995 3.7169 34.7485 3.3869C29.6795 0.930904 24.3045 -0.0310996 18.8215 2.7679C22.9035 2.8239 26.1225 5.0709 29.0485 7.9399ZM43.8525 7.95891C44.4495 7.08891 45.2395 6.3279 46.2185 5.7549C49.5215 3.8219 49.5695 7.70391 47.6535 7.70391C46.4995 7.70391 45.2735 7.4409 44.3465 9.0999C43.5795 10.4699 43.3095 12.0589 43.5515 13.5069C44.6905 12.7109 45.8065 11.9299 46.8925 11.1909C49.1305 9.6669 51.8185 8.0109 54.7165 6.6149C51.5105 0.545901 42.9535 0.754909 37.1815 3.55791C39.4875 4.86191 41.7235 6.40091 43.8525 7.95891ZM29.2035 9.8559C23.5685 15.5269 18.0545 22.2759 10.1325 22.0459C19.2975 27.2269 28.5935 23.2559 36.9875 17.9399C34.0805 15.5579 31.8035 12.5459 29.2035 9.8559ZM38.0155 17.2799C39.6055 16.2449 41.1605 15.1739 42.6745 14.1179C42.2715 12.3889 42.4995 10.4719 43.3425 8.8179C41.0415 7.1149 38.6355 5.4519 36.1475 4.1059C36.1255 4.1189 36.1025 4.1319 36.0805 4.1449C33.9835 5.3669 32.0175 7.0889 30.0795 8.9859C32.7695 11.7999 35.2585 14.9979 38.0155 17.2799ZM48.8695 17.9969C53.5485 18.2789 56.6195 13.1629 55.6085 9.0029C55.5005 8.5629 55.3715 8.14591 55.2235 7.74791C52.7825 8.92691 50.5435 10.2579 48.7245 11.4569C47.1995 12.4609 45.5845 13.5839 43.9015 14.7469C44.6245 16.4979 46.2525 17.8389 48.8695 17.9969Z" fill="white"/>
</svg>
