<svg width="60" height="73" viewBox="0 0 60 73" fill="none" xmlns="http://www.w3.org/2000/svg">
<path d="M0.0616737 18.209L11.5657 18.209L16.4917 18.209L29.5256 35.5236L21.5936 46.7009L0.0616737 18.209Z" fill="#1B1B1A"/>
<path d="M58.9872 18.209L47.4832 18.2098L42.5573 18.2101L29.5243 35.5255L37.4569 46.7022L58.9872 18.209Z" fill="#1B1B1A"/>
<path d="M0.0616737 7.91217L11.5657 7.91216L16.4917 7.91216L29.5256 25.2268L21.5936 36.404L0.0616737 7.91217Z" fill="#1B1B1A"/>
<path d="M58.9872 7.91217L47.4832 7.91291L42.5573 7.91323L29.5243 25.2286L37.4569 36.4053L58.9872 7.91217Z" fill="#1B1B1A"/>
<path d="M2.16 64.7321L0.85 60.8921C0.803333 60.7521 0.76 60.6321 0.72 60.5321C0.686667 60.4321 0.66 60.3455 0.64 60.2721C0.62 60.1988 0.603333 60.1355 0.59 60.0821L0.06 60.1121V59.7021H2.18V60.0021C1.88 60.0088 1.71333 60.1121 1.68 60.3121C1.65333 60.5055 1.69333 60.7621 1.8 61.0821L2.26 62.4821C2.31333 62.6421 2.36667 62.8055 2.42 62.9721C2.47333 63.1321 2.52667 63.2921 2.58 63.4521C2.64 63.2721 2.7 63.0921 2.76 62.9121C2.82667 62.7255 2.89 62.5388 2.95 62.3521L3.84 59.7021H4.25L5.26 62.6121C5.31333 62.7588 5.36667 62.9088 5.42 63.0621C5.47333 63.2155 5.52667 63.3688 5.58 63.5221C5.63333 63.3755 5.68333 63.2321 5.73 63.0921C5.78333 62.9455 5.83333 62.7988 5.88 62.6521L6.54 60.7521C6.58667 60.6188 6.63333 60.4921 6.68 60.3721C6.72667 60.2521 6.78 60.1555 6.84 60.0821L6.26 60.1121V59.7021H8V60.0021C7.82667 60.0088 7.68333 60.0321 7.57 60.0721C7.46333 60.1121 7.37333 60.1655 7.3 60.2321C7.22667 60.2988 7.16667 60.3788 7.12 60.4721C7.07333 60.5655 7.03 60.6721 6.99 60.7921L5.55 64.7321H5.15L4.2 62.0021C4.16 61.8821 4.12 61.7655 4.08 61.6521C4.04 61.5321 4 61.4155 3.96 61.3021C3.92 61.1821 3.88 61.0655 3.84 60.9521C3.8 61.0655 3.76 61.1821 3.72 61.3021C3.68 61.4155 3.64 61.5321 3.6 61.6521C3.56 61.7655 3.52 61.8821 3.48 62.0021L2.54 64.7321H2.16ZM10.7506 64.8621C10.2906 64.8621 9.87396 64.7555 9.50063 64.5421C9.13396 64.3221 8.84396 64.0155 8.63063 63.6221C8.41729 63.2221 8.31063 62.7521 8.31063 62.2121C8.31063 61.7455 8.41396 61.3088 8.62063 60.9021C8.83396 60.4955 9.13063 60.1688 9.51063 59.9221C9.89063 59.6688 10.3306 59.5421 10.8306 59.5421C11.1106 59.5421 11.3706 59.5888 11.6106 59.6821C11.8573 59.7688 12.074 59.9055 12.2606 60.0921C12.4473 60.2721 12.594 60.5021 12.7006 60.7821C12.8073 61.0555 12.8606 61.3788 12.8606 61.7521L9.34063 61.8121C9.34063 62.3188 9.39396 62.7655 9.50063 63.1521C9.61396 63.5321 9.79396 63.8288 10.0406 64.0421C10.2873 64.2488 10.604 64.3521 10.9906 64.3521C11.1973 64.3521 11.4073 64.3155 11.6206 64.2421C11.8406 64.1688 12.044 64.0688 12.2306 63.9421C12.4173 63.8155 12.5673 63.6755 12.6806 63.5221L12.9206 63.7221C12.7406 64.0021 12.524 64.2255 12.2706 64.3921C12.0173 64.5588 11.7573 64.6788 11.4906 64.7521C11.224 64.8255 10.9773 64.8621 10.7506 64.8621ZM9.37063 61.3921H11.9206C11.9206 61.1521 11.884 60.9221 11.8106 60.7021C11.744 60.4755 11.6306 60.2921 11.4706 60.1521C11.3106 60.0055 11.1006 59.9321 10.8406 59.9321C10.454 59.9321 10.1306 60.0488 9.87063 60.2821C9.61729 60.5088 9.45063 60.8788 9.37063 61.3921ZM15.8417 64.8621C15.4351 64.8621 15.0684 64.7621 14.7417 64.5621C14.4151 64.3555 14.1551 64.0621 13.9617 63.6821C13.7751 63.3021 13.6817 62.8555 13.6817 62.3421C13.6817 61.7955 13.7917 61.3121 14.0117 60.8921C14.2317 60.4721 14.5351 60.1421 14.9217 59.9021C15.3151 59.6621 15.7584 59.5421 16.2517 59.5421C16.4717 59.5421 16.6884 59.5721 16.9017 59.6321C17.1217 59.6855 17.2951 59.7488 17.4217 59.8221V58.4521C17.4217 58.3455 17.4217 58.2455 17.4217 58.1521C17.4284 58.0521 17.4384 57.9355 17.4517 57.8021C17.3317 57.8088 17.2117 57.8155 17.0917 57.8221C16.9784 57.8288 16.8617 57.8355 16.7417 57.8421V57.4221C17.0351 57.4221 17.2617 57.4088 17.4217 57.3821C17.5817 57.3555 17.7017 57.3221 17.7817 57.2821C17.8684 57.2421 17.9351 57.1988 17.9817 57.1521H18.2717V63.6421C18.2717 63.7488 18.2684 63.8555 18.2617 63.9621C18.2551 64.0688 18.2451 64.1888 18.2317 64.3221C18.3517 64.3155 18.4684 64.3088 18.5817 64.3021C18.7017 64.2955 18.8217 64.2888 18.9417 64.2821V64.7021H17.5117C17.4917 64.6021 17.4751 64.5121 17.4617 64.4321C17.4551 64.3455 17.4484 64.2621 17.4417 64.1821C17.2551 64.3888 17.0251 64.5555 16.7517 64.6821C16.4784 64.8021 16.1751 64.8621 15.8417 64.8621ZM16.2017 64.3721C16.4217 64.3721 16.6417 64.3088 16.8617 64.1821C17.0884 64.0555 17.2751 63.8988 17.4217 63.7121C17.4151 63.6321 17.4117 63.5488 17.4117 63.4621C17.4117 63.3688 17.4117 63.2688 17.4117 63.1621L17.4217 60.2821C17.2617 60.1621 17.0851 60.0755 16.8917 60.0221C16.7051 59.9621 16.5117 59.9321 16.3117 59.9321C15.9784 59.9321 15.6884 60.0288 15.4417 60.2221C15.1951 60.4155 15.0084 60.6855 14.8817 61.0321C14.7551 61.3788 14.6984 61.7855 14.7117 62.2521C14.7251 62.6588 14.7884 63.0221 14.9017 63.3421C15.0217 63.6621 15.1884 63.9155 15.4017 64.1021C15.6217 64.2821 15.8884 64.3721 16.2017 64.3721ZM21.8183 64.8621C21.4116 64.8621 21.0449 64.7621 20.7183 64.5621C20.3916 64.3555 20.1316 64.0621 19.9383 63.6821C19.7516 63.3021 19.6583 62.8555 19.6583 62.3421C19.6583 61.7955 19.7683 61.3121 19.9883 60.8921C20.2083 60.4721 20.5116 60.1421 20.8983 59.9021C21.2916 59.6621 21.7349 59.5421 22.2283 59.5421C22.4483 59.5421 22.6649 59.5721 22.8783 59.6321C23.0983 59.6855 23.2716 59.7488 23.3983 59.8221V58.4521C23.3983 58.3455 23.3983 58.2455 23.3983 58.1521C23.4049 58.0521 23.4149 57.9355 23.4283 57.8021C23.3083 57.8088 23.1883 57.8155 23.0683 57.8221C22.9549 57.8288 22.8383 57.8355 22.7183 57.8421V57.4221C23.0116 57.4221 23.2383 57.4088 23.3983 57.3821C23.5583 57.3555 23.6783 57.3221 23.7583 57.2821C23.8449 57.2421 23.9116 57.1988 23.9583 57.1521H24.2483V63.6421C24.2483 63.7488 24.2449 63.8555 24.2383 63.9621C24.2316 64.0688 24.2216 64.1888 24.2083 64.3221C24.3283 64.3155 24.4449 64.3088 24.5583 64.3021C24.6783 64.2955 24.7983 64.2888 24.9183 64.2821V64.7021H23.4883C23.4683 64.6021 23.4516 64.5121 23.4383 64.4321C23.4316 64.3455 23.4249 64.2621 23.4183 64.1821C23.2316 64.3888 23.0016 64.5555 22.7283 64.6821C22.4549 64.8021 22.1516 64.8621 21.8183 64.8621ZM22.1783 64.3721C22.3983 64.3721 22.6183 64.3088 22.8383 64.1821C23.0649 64.0555 23.2516 63.8988 23.3983 63.7121C23.3916 63.6321 23.3883 63.5488 23.3883 63.4621C23.3883 63.3688 23.3883 63.2688 23.3883 63.1621L23.3983 60.2821C23.2383 60.1621 23.0616 60.0755 22.8683 60.0221C22.6816 59.9621 22.4883 59.9321 22.2883 59.9321C21.9549 59.9321 21.6649 60.0288 21.4183 60.2221C21.1716 60.4155 20.9849 60.6855 20.8583 61.0321C20.7316 61.3788 20.6749 61.7855 20.6883 62.2521C20.7016 62.6588 20.7649 63.0221 20.8783 63.3421C20.9983 63.6621 21.1649 63.9155 21.3783 64.1021C21.5983 64.2821 21.8649 64.3721 22.1783 64.3721ZM25.6548 64.4021C25.8615 64.4021 26.0048 64.3521 26.0848 64.2521C26.1648 64.1455 26.2115 64.0021 26.2248 63.8221C26.2382 63.6355 26.2448 63.4221 26.2448 63.1821V60.9021C26.2448 60.7955 26.2482 60.6955 26.2548 60.6021C26.2615 60.5021 26.2715 60.3855 26.2848 60.2521C26.1648 60.2588 26.0448 60.2655 25.9248 60.2721C25.8115 60.2788 25.6948 60.2855 25.5748 60.2921V59.8721C25.8682 59.8721 26.0948 59.8588 26.2548 59.8321C26.4148 59.8055 26.5348 59.7721 26.6148 59.7321C26.7015 59.6921 26.7682 59.6488 26.8148 59.6021H27.1048V63.6421C27.1048 63.7755 27.1015 63.8955 27.0948 64.0021C27.0948 64.1021 27.0848 64.2088 27.0648 64.3221C27.1715 64.3155 27.2748 64.3121 27.3748 64.3121C27.4815 64.3055 27.5882 64.2988 27.6948 64.2921V64.7021H25.6548V64.4021ZM26.6248 58.6121C26.4848 58.6121 26.3615 58.5555 26.2548 58.4421C26.1482 58.3288 26.0948 58.1888 26.0948 58.0221C26.0948 57.8555 26.1482 57.7155 26.2548 57.6021C26.3682 57.4821 26.4948 57.4221 26.6348 57.4221C26.7882 57.4221 26.9148 57.4821 27.0148 57.6021C27.1215 57.7155 27.1748 57.8555 27.1748 58.0221C27.1748 58.1888 27.1182 58.3288 27.0048 58.4421C26.8982 58.5555 26.7715 58.6121 26.6248 58.6121ZM28.4673 64.7021V64.4021C28.674 64.4021 28.8173 64.3521 28.8973 64.2521C28.9773 64.1455 29.024 64.0021 29.0373 63.8221C29.0507 63.6355 29.0573 63.4221 29.0573 63.1821L29.0673 60.9021C29.0673 60.7955 29.0673 60.6888 29.0673 60.5821C29.074 60.4755 29.0873 60.3655 29.1073 60.2521C28.9873 60.2588 28.8673 60.2655 28.7473 60.2721C28.634 60.2788 28.5173 60.2855 28.3973 60.2921V59.8721C28.6907 59.8721 28.9107 59.8588 29.0573 59.8321C29.2107 59.8055 29.324 59.7721 29.3973 59.7321C29.4707 59.6921 29.5307 59.6488 29.5773 59.6021H29.8673C29.874 59.6488 29.8773 59.7021 29.8773 59.7621C29.884 59.8221 29.8907 59.8888 29.8973 59.9621C29.904 60.0355 29.9073 60.1188 29.9073 60.2121C30.054 60.0855 30.214 59.9721 30.3873 59.8721C30.5673 59.7721 30.754 59.6921 30.9473 59.6321C31.1473 59.5721 31.344 59.5421 31.5373 59.5421C32.1173 59.5421 32.5407 59.7255 32.8073 60.0921C33.074 60.4521 33.2073 61.0155 33.2073 61.7821V63.6421C33.2073 63.7755 33.204 63.8955 33.1973 64.0021C33.1973 64.1021 33.1873 64.2088 33.1673 64.3221C33.274 64.3155 33.3773 64.3121 33.4773 64.3121C33.584 64.3055 33.6907 64.2988 33.7973 64.2921V64.7021H31.7573V64.4021C31.964 64.4021 32.1073 64.3521 32.1873 64.2521C32.2673 64.1455 32.314 64.0021 32.3273 63.8221C32.3407 63.6355 32.3473 63.4221 32.3473 63.1821V61.7821C32.3407 61.2088 32.244 60.7755 32.0573 60.4821C31.8773 60.1888 31.5907 60.0455 31.1973 60.0521C30.9573 60.0588 30.7207 60.1221 30.4873 60.2421C30.2607 60.3621 30.0707 60.5155 29.9173 60.7021C29.924 60.7555 29.9273 60.8155 29.9273 60.8821C29.9273 60.9488 29.9273 61.0188 29.9273 61.0921L29.9173 63.6421C29.9173 63.7755 29.914 63.8955 29.9073 64.0021C29.9073 64.1021 29.8973 64.2088 29.8773 64.3221C29.984 64.3155 30.0873 64.3121 30.1873 64.3121C30.294 64.3055 30.4007 64.2988 30.5073 64.2921V64.7021H28.4673ZM36.9516 67.4121C36.3516 67.4121 35.8682 67.3455 35.5016 67.2121C35.1349 67.0788 34.8682 66.9088 34.7016 66.7021C34.5349 66.4955 34.4516 66.2821 34.4516 66.0621C34.4516 65.8555 34.4982 65.6721 34.5916 65.5121C34.6916 65.3588 34.8116 65.2255 34.9516 65.1121C35.0982 64.9988 35.2382 64.9155 35.3716 64.8621C35.1582 64.7888 34.9882 64.6921 34.8616 64.5721C34.7416 64.4455 34.6816 64.2788 34.6816 64.0721C34.6816 63.8388 34.7749 63.6221 34.9616 63.4221C35.1482 63.2155 35.3882 63.0888 35.6816 63.0421C35.3749 62.8955 35.1282 62.6921 34.9416 62.4321C34.7616 62.1721 34.6716 61.8688 34.6716 61.5221C34.6716 61.1221 34.7749 60.7755 34.9816 60.4821C35.1882 60.1821 35.4516 59.9521 35.7716 59.7921C36.0982 59.6255 36.4349 59.5421 36.7816 59.5421C37.0016 59.5421 37.2216 59.5755 37.4416 59.6421C37.6616 59.7021 37.8649 59.7921 38.0516 59.9121C38.1182 59.7255 38.2116 59.5588 38.3316 59.4121C38.4582 59.2655 38.6016 59.1521 38.7616 59.0721C38.9216 58.9855 39.0882 58.9421 39.2616 58.9421C39.4349 58.9421 39.5649 58.9888 39.6516 59.0821C39.7449 59.1688 39.7916 59.2888 39.7916 59.4421C39.7916 59.4888 39.7782 59.5455 39.7516 59.6121C39.7249 59.6788 39.6782 59.7355 39.6116 59.7821C39.5516 59.8288 39.4682 59.8521 39.3616 59.8521C39.2482 59.8521 39.1549 59.8188 39.0816 59.7521C39.0082 59.6855 38.9616 59.6021 38.9416 59.5021C38.7749 59.5288 38.6449 59.6088 38.5516 59.7421C38.4582 59.8688 38.3949 60.0088 38.3616 60.1621C38.5216 60.3088 38.6482 60.4855 38.7416 60.6921C38.8416 60.8988 38.8916 61.1188 38.8916 61.3521C38.8916 61.7255 38.7916 62.0588 38.5916 62.3521C38.3982 62.6455 38.1416 62.8755 37.8216 63.0421C37.5016 63.2021 37.1549 63.2821 36.7816 63.2821C36.6549 63.2821 36.5449 63.2755 36.4516 63.2621C36.3582 63.2421 36.2449 63.2321 36.1116 63.2321C35.8649 63.2321 35.6649 63.2921 35.5116 63.4121C35.3582 63.5321 35.3049 63.6755 35.3516 63.8421C35.4049 64.0021 35.5682 64.1055 35.8416 64.1521C36.1149 64.1921 36.4816 64.2221 36.9416 64.2421C37.4549 64.2621 37.8949 64.3221 38.2616 64.4221C38.6282 64.5221 38.9082 64.6755 39.1016 64.8821C39.3016 65.0955 39.4016 65.3821 39.4016 65.7421C39.4016 66.0088 39.3282 66.2455 39.1816 66.4521C39.0416 66.6655 38.8516 66.8421 38.6116 66.9821C38.3782 67.1221 38.1149 67.2288 37.8216 67.3021C37.5349 67.3755 37.2449 67.4121 36.9516 67.4121ZM36.9416 67.0221C37.5149 67.0221 37.9616 66.9155 38.2816 66.7021C38.6016 66.4888 38.7616 66.2388 38.7616 65.9521C38.7616 65.7055 38.6782 65.5155 38.5116 65.3821C38.3449 65.2555 38.1182 65.1655 37.8316 65.1121C37.5449 65.0655 37.2149 65.0388 36.8416 65.0321C36.6616 65.0255 36.4849 65.0155 36.3116 65.0021C36.1382 64.9955 35.9716 64.9788 35.8116 64.9521C35.6316 65.0721 35.4916 65.2188 35.3916 65.3921C35.2916 65.5655 35.2416 65.7488 35.2416 65.9421C35.2416 66.2688 35.3949 66.5288 35.7016 66.7221C36.0149 66.9221 36.4282 67.0221 36.9416 67.0221ZM36.8116 62.9221C37.0582 62.9221 37.2616 62.8621 37.4216 62.7421C37.5882 62.6221 37.7116 62.4588 37.7916 62.2521C37.8782 62.0455 37.9216 61.8121 37.9216 61.5521C37.9216 61.2588 37.8782 60.9855 37.7916 60.7321C37.7049 60.4788 37.5749 60.2755 37.4016 60.1221C37.2349 59.9688 37.0216 59.8921 36.7616 59.8921C36.4016 59.8921 36.1216 60.0288 35.9216 60.3021C35.7282 60.5688 35.6316 60.9021 35.6316 61.3021C35.6316 61.6221 35.6782 61.9055 35.7716 62.1521C35.8649 62.3921 35.9982 62.5821 36.1716 62.7221C36.3516 62.8555 36.5649 62.9221 36.8116 62.9221ZM41.8866 64.7321L40.5766 60.8921C40.5299 60.7521 40.4866 60.6321 40.4466 60.5321C40.4132 60.4321 40.3866 60.3455 40.3666 60.2721C40.3466 60.1988 40.3299 60.1355 40.3166 60.0821L39.7866 60.1121V59.7021H41.9066V60.0021C41.6066 60.0088 41.4399 60.1121 41.4066 60.3121C41.3799 60.5055 41.4199 60.7621 41.5266 61.0821L41.9866 62.4821C42.0399 62.6421 42.0932 62.8055 42.1466 62.9721C42.1999 63.1321 42.2532 63.2921 42.3066 63.4521C42.3666 63.2721 42.4266 63.0921 42.4866 62.9121C42.5532 62.7255 42.6166 62.5388 42.6766 62.3521L43.5666 59.7021H43.9766L44.9866 62.6121C45.0399 62.7588 45.0932 62.9088 45.1466 63.0621C45.1999 63.2155 45.2532 63.3688 45.3066 63.5221C45.3599 63.3755 45.4099 63.2321 45.4566 63.0921C45.5099 62.9455 45.5599 62.7988 45.6066 62.6521L46.2666 60.7521C46.3132 60.6188 46.3599 60.4921 46.4066 60.3721C46.4532 60.2521 46.5066 60.1555 46.5666 60.0821L45.9866 60.1121V59.7021H47.7266V60.0021C47.5532 60.0088 47.4099 60.0321 47.2966 60.0721C47.1899 60.1121 47.0999 60.1655 47.0266 60.2321C46.9532 60.2988 46.8932 60.3788 46.8466 60.4721C46.7999 60.5655 46.7566 60.6721 46.7166 60.7921L45.2766 64.7321H44.8766L43.9266 62.0021C43.8866 61.8821 43.8466 61.7655 43.8066 61.6521C43.7666 61.5321 43.7266 61.4155 43.6866 61.3021C43.6466 61.1821 43.6066 61.0655 43.5666 60.9521C43.5266 61.0655 43.4866 61.1821 43.4466 61.3021C43.4066 61.4155 43.3666 61.5321 43.3266 61.6521C43.2866 61.7655 43.2466 61.8821 43.2066 62.0021L42.2666 64.7321H41.8866ZM50.4772 64.8621C50.0172 64.8621 49.6005 64.7555 49.2272 64.5421C48.8605 64.3221 48.5705 64.0155 48.3572 63.6221C48.1439 63.2221 48.0372 62.7521 48.0372 62.2121C48.0372 61.7455 48.1405 61.3088 48.3472 60.9021C48.5605 60.4955 48.8572 60.1688 49.2372 59.9221C49.6172 59.6688 50.0572 59.5421 50.5572 59.5421C50.8372 59.5421 51.0972 59.5888 51.3372 59.6821C51.5839 59.7688 51.8005 59.9055 51.9872 60.0921C52.1739 60.2721 52.3205 60.5021 52.4272 60.7821C52.5339 61.0555 52.5872 61.3788 52.5872 61.7521L49.0672 61.8121C49.0672 62.3188 49.1205 62.7655 49.2272 63.1521C49.3405 63.5321 49.5205 63.8288 49.7672 64.0421C50.0139 64.2488 50.3305 64.3521 50.7172 64.3521C50.9239 64.3521 51.1339 64.3155 51.3472 64.2421C51.5672 64.1688 51.7705 64.0688 51.9572 63.9421C52.1439 63.8155 52.2939 63.6755 52.4072 63.5221L52.6472 63.7221C52.4672 64.0021 52.2505 64.2255 51.9972 64.3921C51.7439 64.5588 51.4839 64.6788 51.2172 64.7521C50.9505 64.8255 50.7039 64.8621 50.4772 64.8621ZM49.0972 61.3921H51.6472C51.6472 61.1521 51.6105 60.9221 51.5372 60.7021C51.4705 60.4755 51.3572 60.2921 51.1972 60.1521C51.0372 60.0055 50.8272 59.9321 50.5672 59.9321C50.1805 59.9321 49.8572 60.0488 49.5972 60.2821C49.3439 60.5088 49.1772 60.8788 49.0972 61.3921ZM53.7971 58.4521C53.7971 58.3455 53.7971 58.2455 53.7971 58.1521C53.8038 58.0521 53.8138 57.9355 53.8271 57.8021C53.7071 57.8088 53.5871 57.8155 53.4671 57.8221C53.3538 57.8288 53.2371 57.8355 53.1171 57.8421V57.4221C53.4104 57.4221 53.6371 57.4088 53.7971 57.3821C53.9638 57.3555 54.0871 57.3221 54.1671 57.2821C54.2538 57.2421 54.3204 57.1988 54.3671 57.1521H54.6571V60.1321C54.8438 59.9455 55.0638 59.8021 55.3171 59.7021C55.5771 59.5955 55.8604 59.5421 56.1671 59.5421C56.5938 59.5421 56.9771 59.6455 57.3171 59.8521C57.6638 60.0588 57.9371 60.3521 58.1371 60.7321C58.3371 61.1121 58.4371 61.5621 58.4371 62.0821C58.4371 62.6488 58.3138 63.1421 58.0671 63.5621C57.8204 63.9755 57.5004 64.2955 57.1071 64.5221C56.7138 64.7488 56.2904 64.8621 55.8371 64.8621C55.6104 64.8621 55.3604 64.8188 55.0871 64.7321C54.8204 64.6521 54.5804 64.4921 54.3671 64.2521L54.1271 64.7021H53.7771L53.7971 58.4521ZM54.6571 63.1321C54.6571 63.4855 54.7138 63.7588 54.8271 63.9521C54.9404 64.1388 55.0871 64.2688 55.2671 64.3421C55.4471 64.4155 55.6371 64.4521 55.8371 64.4521C56.1571 64.4521 56.4338 64.3621 56.6671 64.1821C56.9004 64.0021 57.0804 63.7555 57.2071 63.4421C57.3404 63.1221 57.4071 62.7521 57.4071 62.3321C57.4071 61.8788 57.3504 61.4821 57.2371 61.1421C57.1238 60.7955 56.9538 60.5255 56.7271 60.3321C56.5004 60.1321 56.2138 60.0321 55.8671 60.0321C55.6471 60.0321 55.4271 60.0855 55.2071 60.1921C54.9938 60.2921 54.8104 60.4288 54.6571 60.6021V63.1321Z" fill="#1B1B1A"/>
<path d="M22.612 70.964C22.612 70.8467 22.596 70.7627 22.564 70.712C22.532 70.6613 22.4813 70.6307 22.412 70.62C22.3427 70.6093 22.2507 70.6067 22.136 70.612L21.844 70.624V71.54C21.844 71.612 21.8427 71.6733 21.84 71.724C21.84 71.7747 21.8373 71.8173 21.832 71.852L22.596 71.84C22.7133 71.8373 22.8147 71.8187 22.9 71.784C22.9853 71.7467 23.052 71.6827 23.1 71.592C23.148 71.5013 23.172 71.3773 23.172 71.22H23.308L23.284 72H21.22V71.868C21.3213 71.8627 21.3907 71.84 21.428 71.8C21.4653 71.7573 21.4853 71.7 21.488 71.628C21.4933 71.5533 21.496 71.4693 21.496 71.376V69.648C21.496 69.5947 21.4973 69.544 21.5 69.496C21.5027 69.4453 21.5053 69.4 21.508 69.36C21.46 69.3627 21.412 69.3653 21.364 69.368C21.316 69.3707 21.268 69.3733 21.22 69.376V69.2H23.144L23.164 69.9H23.032C23.032 69.7427 23.008 69.624 22.96 69.544C22.912 69.4613 22.8467 69.4067 22.764 69.38C22.684 69.3507 22.5933 69.3373 22.492 69.34L22.148 69.348C22.0493 69.3507 21.9787 69.3693 21.936 69.404C21.8933 69.4387 21.8667 69.4907 21.856 69.56C21.848 69.6267 21.844 69.7147 21.844 69.824V70.464L22.596 70.468L22.568 70.124H22.744V70.964H22.612ZM25.2803 70.048C25.2723 69.92 25.2416 69.7987 25.1883 69.684C25.1349 69.5693 25.0576 69.476 24.9563 69.404C24.8549 69.332 24.7256 69.296 24.5683 69.296C24.4029 69.296 24.2763 69.3427 24.1883 69.436C24.1003 69.5293 24.0563 69.6387 24.0563 69.764C24.0563 69.876 24.0883 69.9707 24.1523 70.048C24.2163 70.1227 24.2989 70.1893 24.4003 70.248C24.5043 70.304 24.6136 70.3587 24.7283 70.412C24.8296 70.4573 24.9309 70.5067 25.0323 70.56C25.1336 70.6107 25.2256 70.6693 25.3083 70.736C25.3909 70.8027 25.4563 70.8827 25.5043 70.976C25.5549 71.0667 25.5803 71.176 25.5803 71.304C25.5803 71.4507 25.5429 71.5813 25.4683 71.696C25.3963 71.8107 25.2909 71.9013 25.1523 71.968C25.0136 72.032 24.8443 72.064 24.6443 72.064C24.5243 72.064 24.4003 72.0467 24.2723 72.012C24.1443 71.9773 24.0309 71.9267 23.9323 71.86L23.9523 72.032H23.7443L23.7203 71.18H23.8763C23.8896 71.4147 23.9709 71.5933 24.1203 71.716C24.2696 71.836 24.4496 71.896 24.6603 71.896C24.7643 71.896 24.8603 71.8773 24.9483 71.84C25.0363 71.8 25.1056 71.7427 25.1563 71.668C25.2096 71.5933 25.2363 71.5027 25.2363 71.396C25.2363 71.276 25.2043 71.176 25.1403 71.096C25.0763 71.016 24.9936 70.9467 24.8923 70.888C24.7909 70.8293 24.6829 70.7733 24.5683 70.72C24.4669 70.6747 24.3669 70.6267 24.2683 70.576C24.1696 70.5253 24.0789 70.468 23.9963 70.404C23.9163 70.3373 23.8509 70.2587 23.8003 70.168C23.7523 70.0773 23.7283 69.968 23.7283 69.84C23.7283 69.7707 23.7403 69.696 23.7643 69.616C23.7883 69.536 23.8296 69.46 23.8883 69.388C23.9496 69.3133 24.0323 69.2533 24.1363 69.208C24.2429 69.16 24.3776 69.136 24.5403 69.136C24.6416 69.136 24.7549 69.1507 24.8803 69.18C25.0083 69.2067 25.1269 69.26 25.2363 69.34L25.2203 69.168H25.4243V70.048H25.2803ZM28.0738 70.044C28.0711 69.8867 28.0551 69.756 28.0258 69.652C27.9965 69.548 27.9445 69.4707 27.8698 69.42C27.7978 69.3667 27.6925 69.3413 27.5538 69.344H27.2138L27.2098 71.524C27.2098 71.596 27.2085 71.6587 27.2058 71.712C27.2058 71.7627 27.2031 71.8053 27.1978 71.84C27.2538 71.8373 27.3085 71.8347 27.3618 71.832C27.4178 71.8293 27.4738 71.8267 27.5298 71.824V72H26.5898V71.868C26.6911 71.8627 26.7591 71.8387 26.7938 71.796C26.8311 71.7533 26.8511 71.696 26.8538 71.624C26.8591 71.5493 26.8618 71.4667 26.8618 71.376L26.8658 69.348L26.4538 69.352C26.2858 69.352 26.1671 69.408 26.0978 69.52C26.0285 69.632 25.9938 69.8067 25.9938 70.044H25.8458L25.8698 69.2H28.2018L28.2258 70.044H28.0738ZM29.5512 72C29.5512 71.8587 29.5725 71.7333 29.6152 71.624C29.6605 71.5147 29.7205 71.4147 29.7952 71.324C29.8699 71.2307 29.9539 71.1413 30.0472 71.056C30.1432 70.968 30.2405 70.876 30.3392 70.78C30.5125 70.6147 30.6379 70.4613 30.7152 70.32C30.7925 70.1787 30.8312 70.0427 30.8312 69.912C30.8312 69.8107 30.8165 69.7133 30.7872 69.62C30.7605 69.524 30.7112 69.4453 30.6392 69.384C30.5672 69.3227 30.4672 69.292 30.3392 69.292C30.2299 69.292 30.1325 69.32 30.0472 69.376C29.9619 69.4293 29.9045 69.496 29.8752 69.576C29.9019 69.6027 29.9205 69.632 29.9312 69.664C29.9419 69.6933 29.9472 69.7227 29.9472 69.752C29.9472 69.776 29.9405 69.8027 29.9272 69.832C29.9165 69.8613 29.8965 69.8867 29.8672 69.908C29.8379 69.9293 29.7992 69.94 29.7512 69.94C29.6925 69.9373 29.6472 69.9147 29.6152 69.872C29.5832 69.8293 29.5672 69.7787 29.5672 69.72C29.5672 69.664 29.5845 69.6027 29.6192 69.536C29.6539 69.4667 29.7059 69.4027 29.7752 69.344C29.8472 69.2827 29.9352 69.2333 30.0392 69.196C30.1432 69.156 30.2645 69.136 30.4032 69.136C30.5099 69.136 30.6125 69.1493 30.7112 69.176C30.8125 69.2 30.9032 69.24 30.9832 69.296C31.0632 69.352 31.1259 69.4267 31.1712 69.52C31.2192 69.6107 31.2432 69.724 31.2432 69.86C31.2432 69.9267 31.2285 69.9987 31.1992 70.076C31.1725 70.1533 31.1272 70.2373 31.0632 70.328C31.0019 70.416 30.9219 70.5107 30.8232 70.612C30.7245 70.7107 30.6032 70.8187 30.4592 70.936C30.2779 71.0853 30.1285 71.2267 30.0112 71.36C29.8965 71.4907 29.8299 71.6027 29.8112 71.696L30.5192 71.716C30.6499 71.7187 30.7645 71.7187 30.8632 71.716C30.9645 71.7133 31.0432 71.6933 31.0992 71.656C31.1579 71.616 31.1872 71.544 31.1872 71.44H31.3072L31.2832 72H29.5512ZM32.7596 72.064C32.557 72.064 32.389 72.0213 32.2556 71.936C32.1223 71.848 32.0183 71.7333 31.9436 71.592C31.869 71.448 31.8156 71.2907 31.7836 71.12C31.7543 70.9493 31.7396 70.78 31.7396 70.612C31.7396 70.444 31.7583 70.2733 31.7956 70.1C31.8356 69.9267 31.897 69.768 31.9796 69.624C32.0623 69.4773 32.169 69.36 32.2996 69.272C32.4303 69.1813 32.589 69.136 32.7756 69.136C32.9703 69.136 33.1316 69.18 33.2596 69.268C33.3903 69.356 33.493 69.472 33.5676 69.616C33.645 69.7573 33.6996 69.9133 33.7316 70.084C33.7636 70.2547 33.7796 70.424 33.7796 70.592C33.7796 70.7573 33.761 70.9267 33.7236 71.1C33.6863 71.2733 33.6276 71.4333 33.5476 71.58C33.4676 71.724 33.3623 71.8413 33.2316 71.932C33.1036 72.02 32.9463 72.064 32.7596 72.064ZM32.7836 71.908C32.8983 71.908 32.993 71.872 33.0676 71.8C33.1423 71.728 33.201 71.632 33.2436 71.512C33.289 71.392 33.321 71.26 33.3396 71.116C33.3583 70.9693 33.3676 70.8227 33.3676 70.676C33.3676 70.5133 33.3583 70.3507 33.3396 70.188C33.321 70.0253 33.289 69.876 33.2436 69.74C33.1983 69.604 33.137 69.4947 33.0596 69.412C32.9823 69.3293 32.885 69.288 32.7676 69.288C32.653 69.288 32.5556 69.324 32.4756 69.396C32.3983 69.468 32.3356 69.564 32.2876 69.684C32.2396 69.804 32.205 69.9373 32.1836 70.084C32.1623 70.2307 32.1516 70.3787 32.1516 70.528C32.1516 70.64 32.157 70.7587 32.1676 70.884C32.1783 71.0093 32.197 71.1333 32.2236 71.256C32.253 71.376 32.2916 71.4853 32.3396 71.584C32.3876 71.6827 32.4476 71.7613 32.5196 71.82C32.5916 71.8787 32.6796 71.908 32.7836 71.908ZM34.1567 72C34.1567 71.8587 34.178 71.7333 34.2207 71.624C34.266 71.5147 34.326 71.4147 34.4007 71.324C34.4753 71.2307 34.5593 71.1413 34.6527 71.056C34.7487 70.968 34.846 70.876 34.9447 70.78C35.118 70.6147 35.2433 70.4613 35.3207 70.32C35.398 70.1787 35.4367 70.0427 35.4367 69.912C35.4367 69.8107 35.422 69.7133 35.3927 69.62C35.366 69.524 35.3167 69.4453 35.2447 69.384C35.1727 69.3227 35.0727 69.292 34.9447 69.292C34.8353 69.292 34.738 69.32 34.6527 69.376C34.5673 69.4293 34.51 69.496 34.4807 69.576C34.5073 69.6027 34.526 69.632 34.5367 69.664C34.5473 69.6933 34.5527 69.7227 34.5527 69.752C34.5527 69.776 34.546 69.8027 34.5327 69.832C34.522 69.8613 34.502 69.8867 34.4727 69.908C34.4433 69.9293 34.4047 69.94 34.3567 69.94C34.298 69.9373 34.2527 69.9147 34.2207 69.872C34.1887 69.8293 34.1727 69.7787 34.1727 69.72C34.1727 69.664 34.19 69.6027 34.2247 69.536C34.2593 69.4667 34.3113 69.4027 34.3807 69.344C34.4527 69.2827 34.5407 69.2333 34.6447 69.196C34.7487 69.156 34.87 69.136 35.0087 69.136C35.1153 69.136 35.218 69.1493 35.3167 69.176C35.418 69.2 35.5087 69.24 35.5887 69.296C35.6687 69.352 35.7313 69.4267 35.7767 69.52C35.8247 69.6107 35.8487 69.724 35.8487 69.86C35.8487 69.9267 35.834 69.9987 35.8047 70.076C35.778 70.1533 35.7327 70.2373 35.6687 70.328C35.6073 70.416 35.5273 70.5107 35.4287 70.612C35.33 70.7107 35.2087 70.8187 35.0647 70.936C34.8833 71.0853 34.734 71.2267 34.6167 71.36C34.502 71.4907 34.4353 71.6027 34.4167 71.696L35.1247 71.716C35.2553 71.7187 35.37 71.7187 35.4687 71.716C35.57 71.7133 35.6487 71.6933 35.7047 71.656C35.7633 71.616 35.7927 71.544 35.7927 71.44H35.9127L35.8887 72H34.1567ZM37.0825 72.064C36.8905 72.064 36.7318 72.036 36.6065 71.98C36.4812 71.9213 36.3878 71.8493 36.3265 71.764C36.2678 71.6787 36.2385 71.5973 36.2385 71.52C36.2385 71.4587 36.2545 71.408 36.2865 71.368C36.3185 71.3253 36.3638 71.3027 36.4225 71.3C36.4705 71.2973 36.5078 71.3067 36.5345 71.328C36.5638 71.3467 36.5838 71.3707 36.5945 71.4C36.6052 71.4293 36.6105 71.456 36.6105 71.48C36.6105 71.5067 36.6065 71.5333 36.5985 71.56C36.5905 71.5867 36.5798 71.6133 36.5665 71.64C36.5932 71.7307 36.6532 71.796 36.7465 71.836C36.8425 71.876 36.9452 71.896 37.0545 71.896C37.2438 71.896 37.3945 71.844 37.5065 71.74C37.6212 71.636 37.6785 71.4853 37.6785 71.288C37.6785 71.1707 37.6598 71.06 37.6225 70.956C37.5852 70.8493 37.5158 70.7627 37.4145 70.696C37.3132 70.6293 37.1652 70.5987 36.9705 70.604C36.9492 70.604 36.9265 70.6053 36.9025 70.608C36.8785 70.608 36.8518 70.6093 36.8225 70.612V70.432C36.8518 70.432 36.8798 70.432 36.9065 70.432C36.9332 70.432 36.9598 70.432 36.9865 70.432C37.1278 70.432 37.2385 70.4 37.3185 70.336C37.3985 70.272 37.4558 70.196 37.4905 70.108C37.5252 70.02 37.5425 69.9387 37.5425 69.864C37.5425 69.7547 37.5278 69.6573 37.4985 69.572C37.4718 69.484 37.4238 69.416 37.3545 69.368C37.2852 69.3173 37.1892 69.292 37.0665 69.292C36.9465 69.292 36.8438 69.324 36.7585 69.388C36.6732 69.4493 36.6198 69.5133 36.5985 69.58C36.6225 69.6067 36.6385 69.6333 36.6465 69.66C36.6572 69.6867 36.6625 69.7147 36.6625 69.744C36.6625 69.7653 36.6558 69.7907 36.6425 69.82C36.6318 69.8467 36.6132 69.8693 36.5865 69.888C36.5598 69.9067 36.5238 69.916 36.4785 69.916C36.4225 69.916 36.3798 69.896 36.3505 69.856C36.3212 69.816 36.3065 69.768 36.3065 69.712C36.3065 69.6373 36.3358 69.556 36.3945 69.468C36.4532 69.3773 36.5425 69.3 36.6625 69.236C36.7852 69.1693 36.9385 69.136 37.1225 69.136C37.2665 69.136 37.3998 69.1587 37.5225 69.204C37.6452 69.2493 37.7438 69.324 37.8185 69.428C37.8932 69.5293 37.9305 69.664 37.9305 69.832C37.9305 69.9147 37.9092 69.9987 37.8665 70.084C37.8265 70.1667 37.7585 70.244 37.6625 70.316C37.5692 70.388 37.4398 70.4493 37.2745 70.5C37.5278 70.5267 37.7265 70.608 37.8705 70.744C38.0172 70.88 38.0905 71.052 38.0905 71.26C38.0905 71.4413 38.0425 71.592 37.9465 71.712C37.8532 71.8293 37.7292 71.9173 37.5745 71.976C37.4225 72.0347 37.2585 72.064 37.0825 72.064Z" fill="#1B1B1A"/>
</svg>
