<svg width="120" height="15" viewBox="0 0 120 15" fill="none" xmlns="http://www.w3.org/2000/svg">
<path fill-rule="evenodd" clip-rule="evenodd" d="M1.64058 7.369C3.23458 8.704 8.55557 13.99 10.0616 13.99C11.5666 13.99 16.8876 8.704 18.4816 7.369C18.8666 7.047 19.2026 6.655 19.5126 6.257C20.0796 5.529 20.3586 4.717 19.8796 3.84C19.4946 3.136 18.4576 2.937 17.3206 3.285C16.3986 3.567 15.6156 4.07599 14.9466 4.75999C14.4466 5.26999 13.9646 5.79899 13.4866 6.30499C12.9016 6.18399 13.1066 5.734 13.0146 5.442C12.9056 5.099 12.8466 4.74 12.7576 4.39C12.4626 3.233 11.3006 1 10.0626 1C8.82457 1 7.66159 3.233 7.36659 4.39C7.27759 4.741 7.21857 5.1 7.10957 5.442C7.01757 5.734 7.22359 6.18399 6.63759 6.30499C6.15959 5.79899 5.67759 5.26999 5.17759 4.75999C4.50859 4.07599 3.72557 3.567 2.80357 3.285C1.66657 2.937 0.62958 3.136 0.24458 3.84C-0.23442 4.717 0.0445846 5.529 0.611585 6.257C0.919585 6.655 1.25658 7.048 1.64058 7.369ZM16.2036 5.345C16.8596 4.714 17.6656 4.18 18.6636 4.505C18.9146 5.178 18.5556 5.57101 18.1906 5.90401C16.6026 7.35301 14.9906 8.776 13.3866 10.209C13.2606 10.123 13.1346 10.036 13.0096 9.951C13.3956 7.974 14.8346 6.664 16.2036 5.345ZM10.0616 1.948C12.1196 4.101 12.0556 6.794 11.7416 9.524C11.6916 9.961 11.6086 10.397 11.5086 10.863C11.3376 11.22 11.1996 11.608 11.0306 11.916C10.7526 12.419 10.4426 12.851 10.0616 13.252C9.68057 12.851 9.37057 12.419 9.09257 11.916C8.92257 11.608 8.78558 11.221 8.61458 10.863C8.51358 10.397 8.43057 9.961 8.38057 9.524C8.06757 6.794 8.00257 4.101 10.0616 1.948ZM1.45958 4.505C2.45658 4.18101 3.26357 4.714 3.91957 5.345C5.28857 6.664 6.72757 7.974 7.11357 9.95C6.98857 10.035 6.86158 10.122 6.73558 10.208C5.13258 8.77499 3.52059 7.352 1.93159 5.903C1.56859 5.57 1.20858 5.178 1.45958 4.505Z" fill="#1D262D"/>
<path fill-rule="evenodd" clip-rule="evenodd" d="M22 7.80376C22.085 7.92576 22.171 8.04975 22.257 8.17175C22.899 7.87475 23.527 7.53475 24.188 7.28775C25.137 6.93375 26.094 6.44875 27.076 6.36775C32.826 5.89075 38.567 5.84474 44.198 7.38174C46.161 7.91774 48.092 8.57175 50.043 9.15475C54.089 10.3638 58.158 11.5027 62.402 11.7337C64.357 11.8387 66.329 11.8517 68.282 11.7247C69.906 11.6197 71.477 11.9127 73.048 12.1107C77.498 12.6697 81.907 12.5188 86.302 11.7178C90.094 11.0268 93.873 10.2718 97.662 9.56676C102.537 8.66076 107.451 8.12376 112.415 8.16176C113.427 8.16876 114.451 8.26875 115.449 8.44576C116.313 8.59976 117.106 8.98776 117.648 9.74576C117.983 10.2118 117.966 10.6978 117.608 11.1458C117.021 11.8758 116.2 12.1858 115.326 12.2948C113.896 12.4738 112.575 12.1747 111.489 11.1467C111.278 10.9467 111.077 10.7318 110.847 10.5578C109.841 9.79675 108.762 9.60675 107.564 10.1017C106.723 10.4487 106.328 11.4777 106.84 12.2188C107.042 12.5107 107.314 12.7877 107.614 12.9727C110.713 14.8877 114.425 15.4268 117.866 13.0448C118.22 12.7998 118.55 12.4987 118.825 12.1667C119.526 11.3197 119.553 10.2198 118.841 9.36775C117.687 7.98875 116.229 7.07875 114.445 6.71475C112.524 6.32175 110.612 5.89675 108.692 5.49675C106.97 5.13875 105.404 4.50475 103.893 3.53975C99.788 0.920749 95.211 -0.0782548 90.368 0.00474524C85.55 0.0867452 80.797 0.679757 76.078 1.63576C68.848 3.09876 61.53 3.68575 54.161 3.59775C52.941 3.58275 51.719 3.28074 50.51 3.04974C48.368 2.64174 46.244 2.13576 44.097 1.76276C40.603 1.15476 37.136 1.36875 33.723 2.33575C30.279 3.31075 27.015 4.73075 23.871 6.43175C23.191 6.79975 22.467 7.15376 22 7.80376ZM51.963 8.23074C59.997 8.94774 68.039 9.24575 76.114 8.76775C68.019 11.0587 59.952 11.2977 51.963 8.23074ZM107.617 6.59074C105.385 6.88574 103.521 7.11275 101.662 7.38075C97.277 8.01475 92.973 9.04876 88.65 9.99576C84.674 10.8668 80.66 11.4988 76.567 11.3878C76.086 11.3738 75.608 11.2848 75.129 11.2298C75.11 11.0958 75.091 10.9628 75.072 10.8288C76.191 10.5508 77.339 10.3548 78.422 9.97176C79.579 9.56176 80.671 8.97076 81.797 8.46776C82.127 8.32076 82.47 8.19776 82.814 8.08376C84.674 7.46876 86.547 6.89375 88.394 6.24675C92.872 4.67675 97.442 4.22775 102.119 5.06175C103.88 5.37375 105.651 5.67774 107.617 6.59074ZM58.891 4.75075C59.018 4.71275 59.146 4.64075 59.273 4.64075C65.7 4.62975 72.021 3.72675 78.319 2.52075C82.971 1.63075 87.682 1.22975 92.428 1.46675C94.765 1.58275 97.04 2.03975 99.245 2.82675C99.409 2.88575 99.531 3.06176 99.777 3.27376C99.428 3.35876 99.232 3.45975 99.042 3.44875C94.62 3.19975 90.341 3.92375 86.195 5.41475C84.049 6.18775 81.847 6.56374 79.591 6.72874C78.938 6.77574 78.284 6.81874 77.631 6.86674C72.233 7.26274 66.878 7.00476 61.588 5.79076C60.677 5.58276 59.779 5.32075 58.875 5.08475C58.88 4.97275 58.885 4.86175 58.891 4.75075ZM31.842 4.15675C36.359 2.65975 40.959 2.43775 45.586 3.47975C50.254 4.52975 54.894 5.70475 59.543 6.83675C59.726 6.88175 59.876 7.06576 60.07 7.20676C59.908 7.30176 59.799 7.42075 59.698 7.41475C56.005 7.19475 52.309 7.01975 48.644 6.45876C42.976 5.59275 37.299 4.78875 31.537 4.99475C31.286 5.00375 31.033 4.93875 30.733 4.90375C30.995 4.32675 31.452 4.28675 31.842 4.15675Z" fill="#1D262D"/>
</svg>
