<svg width="54" height="197" viewBox="0 0 54 197" fill="none" xmlns="http://www.w3.org/2000/svg">
<path d="M29.4824 21.3721C33.8613 22.5967 40.3647 24.5264 48.9927 27.1611C48.7515 19.5352 48.2783 13.0132 47.5732 7.59521C47.5732 8.78271 47.3042 10.5269 46.7661 12.8276C46.2466 15.1284 45.0591 17.1138 43.2036 18.7837C41.144 20.6206 37.8228 21.5391 33.2397 21.5391C32.0151 21.5391 30.7627 21.4834 29.4824 21.3721ZM11.3916 18.2827C11.3916 18.0972 11.4194 17.9487 11.4751 17.8374C11.5308 17.7261 11.6514 17.6704 11.8369 17.6704C14.6943 17.6704 19.4536 18.5889 26.1147 20.4258C27.2651 20.5557 28.2114 20.6392 28.9536 20.6763C29.7144 20.7319 30.4751 20.7598 31.2358 20.7598C31.8667 20.7598 32.6274 20.7783 33.5181 20.8154C37.8599 20.8154 40.9678 19.9897 42.8418 18.3384C44.6045 16.5571 45.6621 13.9595 46.0146 10.5454C46.3672 7.1499 46.5435 4.06982 46.5435 1.30518C46.5435 1.02685 46.7197 0.878417 47.0723 0.859863C47.4063 0.859863 47.5732 1.0083 47.5732 1.30518L47.5732 1.36084C48.7051 8.68994 49.4194 17.3643 49.7163 27.3838C51.1821 27.8291 52.1748 28.1074 52.6943 28.2187C53.1582 28.3301 53.3901 28.6177 53.3901 29.0815C53.353 29.5454 53.0933 29.7773 52.6108 29.7773C52.4253 29.7773 51.4697 29.4619 49.7441 28.8311C49.7812 30.4082 49.7998 32.0132 49.7998 33.646C49.7998 40.5854 49.4194 46.8848 48.6587 52.5439C48.6587 52.7666 48.5381 52.8779 48.2969 52.8779C48.1484 52.8779 48.0557 52.8408 48.0186 52.7666C47.9814 52.6924 47.9629 52.6089 47.9629 52.5161C48.7051 47.2837 49.0762 41.2163 49.0762 34.314C49.0762 32.4585 49.0483 30.5474 48.9927 28.5806C40.1792 25.4263 32.043 22.8472 24.584 20.8433C20.9102 20.3052 16.5869 19.5166 11.6143 18.4775C11.5586 18.4404 11.5122 18.4126 11.4751 18.394C11.4565 18.3755 11.4287 18.3384 11.3916 18.2827ZM28.063 34.3696C31.2544 37.3755 34.7891 40.3813 38.667 43.3872C44.085 47.5991 47.731 49.7051 49.605 49.7051C50.4214 49.7051 50.8296 49.3711 50.8296 48.7031C50.8296 47.8496 50.0967 46.7734 48.6309 45.4746C47.165 44.1943 45.2539 42.8306 42.8975 41.3833C40.5596 39.9546 38.0361 38.6001 35.3271 37.3198C32.6182 36.0581 30.1968 35.0747 28.063 34.3696ZM20.2422 33.1172C20.2422 32.7646 20.3442 32.477 20.5483 32.2544C20.7524 32.0317 20.9844 31.9204 21.2441 31.9204C23.5635 31.9204 26.1982 32.3843 29.1484 33.312C32.0986 34.2583 35.0303 35.4644 37.9434 36.9302C40.8564 38.4145 43.4634 39.9917 45.7642 41.6616C49.3452 44.2407 51.2285 46.5786 51.4141 48.6753C51.4141 49.7329 50.8203 50.2617 49.6328 50.2617C48.4268 50.2617 46.7754 49.6309 44.6787 48.3691C42.6006 47.1074 40.2998 45.4653 37.7764 43.4429C35.2529 41.439 32.6831 39.2681 30.0669 36.9302C27.9888 35.1118 26.894 34.1284 26.7827 33.98C24.6304 33.312 22.7656 32.978 21.1885 32.978C20.9473 32.9966 20.8267 33.0615 20.8267 33.1728C20.8267 33.3213 21.0029 33.5718 21.3555 33.9243C21.708 34.2769 22.0884 34.6201 22.4966 34.9541C22.9233 35.2881 23.2388 35.5293 23.4429 35.6777C25.354 37.1436 26.3096 38.3403 26.3096 39.2681C26.3096 40.0474 26.1055 40.5669 25.6973 40.8267C25.2891 41.0864 24.7788 41.2163 24.1665 41.2163C23.7769 41.2163 23.4336 41.207 23.1367 41.1885L22.5244 41.1606C22.2461 41.1606 21.9678 41.1885 21.6895 41.2441C21.4853 41.2812 21.3833 41.5225 21.3833 41.9678C21.3833 43.3965 22.1255 45.6973 23.6099 48.8701L26.9775 55.0767C26.9775 55.3364 26.894 55.4663 26.727 55.4663L26.5879 55.4663C26.5137 55.4663 26.4766 55.4292 26.4766 55.355C26.2353 54.9839 25.5674 53.7871 24.4727 51.7646C22.042 47.3115 20.8267 44.0459 20.8267 41.9678C20.8638 41.3184 21.0029 40.8359 21.2441 40.5205C21.4853 40.2051 21.7822 39.9917 22.1348 39.8804C22.5059 39.7876 22.9048 39.7412 23.3315 39.7412C23.5728 39.7412 23.814 39.7598 24.0552 39.7969C24.2964 39.834 24.5283 39.8525 24.751 39.8525C24.9551 39.8525 25.187 39.8247 25.4468 39.769C25.6323 39.7505 25.7251 39.5835 25.7251 39.2681C25.7251 38.7671 25.4561 38.2476 24.918 37.7095C24.3799 37.1714 23.6006 36.5034 22.5801 35.7056L21.1885 34.5923C20.5576 34.0171 20.2422 33.5254 20.2422 33.1172ZM26.0869 55.522C26.1055 56.0044 26.2075 56.4683 26.3931 56.9136C26.5786 57.3589 26.8662 57.5815 27.2559 57.5815C27.4414 57.5815 27.5342 57.4145 27.5342 57.0806C27.5342 56.394 27.0518 55.8745 26.0869 55.522ZM21.9956 57.1919C21.9956 55.188 22.8398 54.1396 24.5283 54.0469C25.4561 54.0469 26.2725 54.3066 26.9775 54.8262C27.6826 55.3457 28.063 56.0972 28.1186 57.0806C28.1186 57.3589 28.0444 57.6094 27.896 57.832C27.7476 58.0547 27.5342 58.166 27.2559 58.166C26.625 58.166 26.1797 57.8506 25.9199 57.2197C25.6602 56.5889 25.5303 55.9673 25.5303 55.355C25.2705 55.2993 24.9644 55.2715 24.6118 55.2715C23.9995 55.2715 23.5078 55.4385 23.1367 55.7725C22.7656 56.125 22.5801 56.5981 22.5801 57.1919C22.5801 58.602 22.7842 60.0957 23.1924 61.6728C23.6006 63.25 24.1387 64.855 24.8066 66.4878C25.4746 68.1206 26.189 69.7534 26.9497 71.3862C26.9497 71.479 26.9311 71.5625 26.894 71.6367C26.8569 71.7295 26.7734 71.7759 26.6436 71.7759C26.6064 71.7759 26.5601 71.7573 26.5044 71.7202C26.4487 71.7017 26.4209 71.6738 26.4209 71.6367C26.3838 71.5996 26.1426 71.1079 25.6973 70.1616C25.252 69.2153 24.7417 68.0093 24.1665 66.5435C23.5913 65.0776 23.0811 63.5098 22.6357 61.8398C22.209 60.1885 21.9956 58.6392 21.9956 57.1919ZM0.676266 87.8628C0.676266 91.1655 1.90087 94.0229 4.35009 96.4351C7.02197 98.9585 10.167 101.009 13.7852 102.586C17.4033 104.182 21.0493 105.378 24.7231 106.176C24.2593 102.651 22.8862 98.977 20.604 95.1548C18.3218 91.3511 15.4644 88.1689 12.0317 85.6084C9.73095 83.9385 7.43945 83.1035 5.15722 83.1035C3.63574 83.1035 2.5039 83.5952 1.76172 84.5786C1.03808 85.5806 0.676266 86.6753 0.676266 87.8628ZM0.119625 87.8906C0.119625 86.6103 0.518551 85.3857 1.3164 84.2168C2.15136 83.085 3.43164 82.519 5.15722 82.519C6.8457 82.519 8.49707 82.9272 10.1113 83.7437C11.7441 84.5786 13.2935 85.6826 14.7593 87.0557C16.2436 88.4287 17.6167 89.9502 18.8784 91.6201C22.6636 96.7412 24.8159 101.64 25.3354 106.315C28.731 107.058 31.5698 107.503 33.852 107.651C32.2935 106.872 30.3267 105.332 27.9517 103.031C24.8159 99.877 23.248 97.0381 23.248 94.5146C23.3223 93.0303 23.8418 91.8984 24.8066 91.1191C25.79 90.3584 27.0239 89.978 28.5083 89.978C31.3657 89.978 34.6685 90.7944 38.4165 92.4272C42.1831 94.0786 45.5786 96.3794 48.603 99.3296C51.3862 102.131 52.8428 105.221 52.9727 108.598C52.9727 109.433 52.7871 110.128 52.416 110.685C52.0635 111.26 51.5996 111.687 51.0244 111.965C50.4678 112.262 49.8926 112.411 49.2988 112.411C48.2969 112.355 47.4155 112.169 46.6548 111.854C45.894 111.539 45.2725 111.223 44.79 110.908L44.0664 110.435C43.8623 110.249 43.7602 110.063 43.7602 109.878C43.7602 109.692 43.8252 109.525 43.9551 109.377C44.1035 109.247 44.2798 109.182 44.4839 109.182C44.6694 109.182 44.8086 109.219 44.9014 109.293C44.9941 109.368 45.0869 109.47 45.1797 109.6C45.2353 109.674 45.3003 109.748 45.3745 109.822C46.5249 111.14 47.833 111.798 49.2988 111.798C50.0967 111.798 50.811 111.529 51.4419 110.991C52.0727 110.453 52.3882 109.655 52.3882 108.598C52.147 105.666 50.7461 102.92 48.1855 100.359C45.625 97.8174 42.48 95.6743 38.7505 93.9302C35.0767 92.1675 31.7554 91.2861 28.7866 91.2861C27.9145 91.2861 27.0981 91.3975 26.3374 91.6201C25.5952 91.8428 24.9922 92.186 24.5283 92.6499C24.083 93.1323 23.8603 93.7539 23.8603 94.5146C23.8603 95.7949 24.2871 97.1309 25.1406 98.5225C25.9941 99.9326 27.0425 101.269 28.2856 102.53C29.5474 103.811 30.8184 104.915 32.0986 105.842C33.3975 106.77 34.5015 107.41 35.4106 107.763C35.5962 107.763 35.689 107.883 35.689 108.125C35.689 108.366 35.5776 108.486 35.355 108.486C32.3491 108.486 29.0186 108.152 25.3633 107.484C25.3633 108.319 25.187 109.191 24.8345 110.101C24.5005 111.01 23.9902 111.761 23.3037 112.355C22.6172 112.967 21.7358 113.273 20.6597 113.273C20.2329 113.273 20.0195 113.06 20.0195 112.633C20.0195 112.244 20.2329 112.049 20.6597 112.049C21.4946 112.049 22.2183 111.817 22.8306 111.353C23.4429 110.889 23.916 110.286 24.25 109.544C24.584 108.82 24.7602 108.087 24.7788 107.345C20.8823 106.622 17.0786 105.425 13.3677 103.755C9.67529 102.104 6.51171 99.9419 3.87695 97.27C1.37207 94.6538 0.119625 91.5273 0.119625 87.8906ZM28.9536 117.532C28.9536 117.235 28.7773 116.91 28.4248 116.558C28.0908 116.205 27.7568 116.029 27.4228 116.029L27.3672 116.029C27.5713 116.344 27.8589 116.678 28.23 117.031C28.5825 117.365 28.8237 117.532 28.9536 117.532ZM20.2144 117.226C20.2144 115.834 20.6875 115.12 21.6338 115.083C22.2461 115.083 22.9233 115.296 23.6655 115.723C24.2222 116.02 24.6675 116.168 25.0015 116.168C25.2427 116.168 25.5117 116.038 25.8086 115.778C26.3467 115.352 26.8848 115.138 27.4228 115.138C28.0166 115.138 28.5083 115.407 28.8979 115.945C29.2876 116.502 29.501 117.021 29.5381 117.504C29.5381 117.689 29.4731 117.838 29.3433 117.949C29.2319 118.079 29.102 118.144 28.9536 118.144C28.7681 118.144 28.5547 118.051 28.3135 117.866C27.8682 117.55 27.3579 117.003 26.7827 116.224C26.5044 116.372 26.2446 116.558 26.0034 116.78C25.5581 117.17 25.1592 117.365 24.8066 117.365C24.417 117.365 23.9531 117.216 23.415 116.919C22.6357 116.567 22.0049 116.391 21.5225 116.391C21.04 116.391 20.7895 116.669 20.771 117.226C20.771 120.584 22.8213 125.427 26.9219 131.754L26.9497 131.865C26.9497 132.088 26.8291 132.199 26.5879 132.199L26.4209 132.06C22.2832 125.751 20.2144 120.807 20.2144 117.226ZM25.085 153.045C25.3447 153.138 25.5767 153.185 25.7808 153.185C26.1333 153.185 26.3096 153.083 26.3096 152.878C26.3096 152.804 26.1518 152.749 25.8364 152.711C25.4839 152.711 25.2334 152.823 25.085 153.045ZM25.7808 134.704C26.0405 134.797 26.2725 134.843 26.4766 134.843C26.8291 134.843 27.0054 134.732 27.0054 134.509C27.0054 134.454 26.8477 134.407 26.5322 134.37C26.1797 134.37 25.9292 134.481 25.7808 134.704ZM22.4687 150.819C22.4687 150.355 22.6079 149.937 22.8862 149.566C23.1831 149.195 23.6191 149.01 24.1943 149.01C25.0107 149.01 25.6601 149.232 26.1426 149.678C25.9014 148.713 25.5859 147.024 25.1963 144.612C24.8066 142.219 24.584 139.705 24.5283 137.07C24.5283 136.309 24.6489 135.585 24.8901 134.899C23.7397 134.324 23.1645 133.507 23.1645 132.45C23.1645 131.967 23.3037 131.55 23.582 131.197C23.8789 130.845 24.3149 130.668 24.8901 130.668C25.4839 130.668 25.9663 130.789 26.3374 131.03C26.727 131.271 27.1816 131.643 27.7012 132.144C27.8682 132.329 27.9517 132.505 27.9517 132.672C27.9517 132.876 27.8774 133.025 27.729 133.118C27.5991 133.229 27.4692 133.285 27.3393 133.285C27.2095 133.285 27.1167 133.257 27.061 133.201C27.0054 133.164 26.959 133.118 26.9219 133.062C26.9033 133.025 26.8662 132.979 26.8105 132.923C26.124 132.125 25.4189 131.726 24.6953 131.726C24.4541 131.726 24.2314 131.791 24.0273 131.921C23.8418 132.051 23.749 132.236 23.749 132.478C23.749 133.257 24.2129 133.897 25.1406 134.398C25.3818 133.897 25.8364 133.646 26.5044 133.646C27.1909 133.646 27.5435 133.934 27.562 134.509C27.562 134.769 27.4507 134.982 27.228 135.149C27.0239 135.335 26.7734 135.428 26.4766 135.428C26.1611 135.428 25.8271 135.354 25.4746 135.205C25.2334 135.743 25.1128 136.374 25.1128 137.098C25.187 139.751 25.4375 142.404 25.8643 145.058C26.3096 147.729 26.6621 149.511 26.9219 150.401C27.1445 150.605 27.2559 150.819 27.2559 151.042C27.2559 151.431 27.0703 151.626 26.6992 151.626L26.6435 151.626C26.5322 151.626 26.4487 151.598 26.3931 151.542C26.3374 151.505 26.291 151.45 26.2539 151.375L26.1426 151.264C25.456 150.466 24.7417 150.067 23.9995 150.067C23.7583 150.067 23.5356 150.132 23.3315 150.262C23.146 150.392 23.0532 150.578 23.0532 150.819C23.0532 151.598 23.5171 152.238 24.4448 152.739C24.686 152.238 25.1406 151.988 25.8086 151.988C26.4394 151.988 26.792 152.285 26.8662 152.878C26.8662 153.175 26.7549 153.398 26.5322 153.546C26.3281 153.695 26.0776 153.769 25.7808 153.769C25.4653 153.769 25.1406 153.695 24.8066 153.546C24.5469 154.084 24.417 154.715 24.417 155.439C24.4912 158.129 24.7881 160.616 25.3076 162.898C25.8271 165.199 26.3745 167.166 26.9497 168.798C26.9497 168.891 26.9404 168.956 26.9219 168.993C26.9033 169.03 26.8755 169.077 26.8384 169.132L26.6714 169.16C26.5601 169.16 26.4766 169.104 26.4209 168.993C26.3652 168.9 26.3096 168.743 26.2539 168.52C26.2168 168.409 26.1797 168.279 26.1426 168.13C25.8271 167.147 25.4282 165.737 24.9458 163.9C24.2593 161.376 23.8882 158.556 23.8325 155.439C23.8325 154.697 23.9531 153.973 24.1943 153.268L24.1387 153.24C24.0459 153.166 23.916 153.083 23.749 152.99C22.8955 152.47 22.4687 151.747 22.4687 150.819ZM23.916 168.604C24.0644 168.715 24.4448 168.984 25.0571 169.411C27.729 171.34 29.0649 172.982 29.0649 174.337C29.0093 175.302 28.4526 175.784 27.395 175.784C26.5415 175.784 25.623 175.571 24.6396 175.144C26.1797 176.536 26.9497 177.77 26.9497 178.846C26.894 179.718 26.625 180.367 26.1426 180.794C25.6601 181.221 25.1221 181.573 24.5283 181.852C24.0459 182.074 23.6191 182.334 23.248 182.631C22.8955 182.928 22.7007 183.336 22.6636 183.855C22.6636 185.544 23.3686 188.04 24.7788 191.342C25.521 193.105 26.2539 194.701 26.9775 196.129C26.9775 196.278 26.9404 196.371 26.8662 196.408C26.8105 196.463 26.7178 196.491 26.5879 196.491C26.5322 196.454 26.4951 196.426 26.4766 196.408C26.4766 196.389 26.4487 196.352 26.3931 196.296C26.3559 196.241 26.291 196.092 26.1982 195.851C26.1055 195.628 25.9663 195.341 25.7808 194.988C25.2798 194.042 24.751 192.91 24.1943 191.593C22.7842 188.309 22.0791 185.729 22.0791 183.855C22.0791 182.408 22.4224 181.416 23.1089 180.877C23.814 180.376 24.4819 180.033 25.1128 179.848C25.5024 179.718 25.8086 179.579 26.0312 179.43C26.2539 179.3 26.3652 179.105 26.3652 178.846C26.3652 177.751 25.2148 176.248 22.9141 174.337C22.71 174.207 22.6079 174.04 22.6079 173.836C22.6079 173.669 22.6821 173.502 22.8306 173.335C22.979 173.168 23.1367 173.084 23.3037 173.084C23.415 173.084 23.5913 173.159 23.8325 173.307C25.8921 174.328 27.2837 174.838 28.0073 174.838C28.3413 174.838 28.5083 174.671 28.5083 174.337C28.5083 173.687 28.1372 172.973 27.395 172.194C26.6528 171.415 25.7808 170.672 24.7788 169.967C23.7954 169.262 22.9233 168.678 22.1626 168.214C21.4018 167.75 20.9751 167.509 20.8823 167.49C20.6597 167.36 20.5483 167.193 20.5483 166.989C20.5483 166.711 20.7617 166.562 21.1885 166.544C22.1162 166.711 23.248 167.026 24.584 167.49C25.9199 167.936 26.9775 168.353 27.7568 168.743C28.1094 169.021 28.2856 169.327 28.2856 169.661C28.2485 170.144 28.0537 170.385 27.7012 170.385C27.6084 170.385 27.4971 170.348 27.3672 170.273C25.9199 169.494 24.7695 168.937 23.916 168.604Z" fill="white"/>
</svg>
