<svg width="11" height="10" viewBox="0 0 11 10" fill="none" xmlns="http://www.w3.org/2000/svg">
<path d="M5.52425 7.44C5.52425 8.12267 5.32158 8.67733 4.91625 9.104C4.51092 9.50933 3.96692 9.712 3.28425 9.712C2.43092 9.712 1.83358 9.44533 1.49225 8.912C1.15092 8.35733 0.98025 7.68533 0.98025 6.896C0.98025 6.29867 1.10825 5.62667 1.36425 4.88C1.62025 4.112 1.95092 3.376 2.35625 2.672C2.76158 1.968 3.17758 1.40267 3.60425 0.975998L4.18025 1.168C3.81758 1.76533 3.48692 2.512 3.18825 3.408C2.88958 4.304 2.75092 5.11467 2.77225 5.84V5.936C2.87892 5.78667 3.01758 5.69067 3.18825 5.648C3.38025 5.60533 3.55092 5.584 3.70025 5.584C4.19092 5.584 4.61758 5.776 4.98025 6.16C5.34292 6.544 5.52425 6.97066 5.52425 7.44ZM10.9323 7.44C10.9323 8.12267 10.7296 8.67733 10.3243 9.104C9.91892 9.50933 9.37492 9.712 8.69225 9.712C7.83892 9.712 7.24158 9.44533 6.90025 8.912C6.55892 8.35733 6.38825 7.68533 6.38825 6.896C6.38825 6.29867 6.51625 5.62667 6.77225 4.88C7.02825 4.112 7.35892 3.376 7.76425 2.672C8.16958 1.968 8.58558 1.40267 9.01225 0.975998L9.58825 1.168C9.22558 1.76533 8.89492 2.512 8.59625 3.408C8.29758 4.304 8.15892 5.11467 8.18025 5.84V5.936C8.28692 5.78667 8.42558 5.69067 8.59625 5.648C8.78825 5.60533 8.95892 5.584 9.10825 5.584C9.59892 5.584 10.0256 5.776 10.3883 6.16C10.7509 6.544 10.9323 6.97066 10.9323 7.44Z" fill="#4B607D"/>
</svg>
