<svg width="178" height="23" viewBox="0 0 178 23" fill="none" xmlns="http://www.w3.org/2000/svg">
<path fill-rule="evenodd" clip-rule="evenodd" d="M74.1091 13.4541C73.0131 12.8731 71.8591 12.3852 70.6951 11.9482C69.7561 11.5952 68.7651 11.3792 67.7741 11.0952C67.8881 10.8882 67.9231 10.7141 68.0211 10.6661C68.4841 10.4411 68.7931 10.1191 68.7311 9.58014C68.6611 8.95214 68.1851 8.64014 67.6591 8.46314C67.2221 8.31714 66.7401 8.21115 66.2841 8.23215C64.9631 8.29415 63.6091 8.27415 62.3301 8.56415C58.3711 9.45915 54.4401 10.4781 50.5011 11.4601C48.6841 11.9121 46.8891 12.4561 45.0581 12.8381C41.1531 13.6551 37.3121 14.6901 33.5471 16.0081C31.2631 16.8091 28.9841 17.6261 26.7051 18.4411C24.8241 19.1131 22.8811 19.2431 20.9221 19.0071C18.1121 18.6691 15.9081 17.3322 14.5101 14.8232C13.7551 13.4712 14.0251 12.6302 15.3891 11.9702C17.0321 11.1762 18.7971 10.7891 20.6021 10.7711C22.0231 10.7561 23.3901 11.1112 24.4281 12.3882C24.3941 12.8782 24.3111 13.4161 24.3321 13.9511C24.3641 14.7871 25.1791 15.3361 25.9881 15.1241C26.8931 14.8851 27.5291 14.1861 27.5521 13.2991C27.5771 12.3301 27.3561 11.4481 26.4931 10.8291C25.6561 10.2271 24.7631 9.80613 23.7431 9.58713C21.1301 9.02713 18.6111 9.45915 16.1341 10.2711C15.0311 10.6331 13.9691 11.1201 12.8791 11.5541C10.1281 9.86014 7.41006 9.05414 4.58706 11.7221C3.88806 11.3081 3.29506 10.9302 2.67506 10.6032C2.26506 10.3872 1.82806 10.1981 1.38206 10.0811C0.560058 9.86715 0.00505769 10.3451 5.76851e-05 11.1751C-0.00694232 12.4361 0.624057 13.4142 1.39106 14.3192C2.72506 15.8952 4.38506 17.0811 6.23106 17.9541C8.34606 18.9551 10.4871 19.9371 12.6971 20.6931C14.4561 21.2941 16.3191 21.7611 18.1651 21.9041C22.0351 22.2021 25.7991 21.5502 29.3471 19.9012C31.2591 19.0112 33.0901 17.9202 35.0571 17.1862C42.7581 14.3142 50.7101 12.8511 58.9511 13.4601C60.8061 13.5971 62.6441 14.0721 64.4611 14.5151C65.2781 14.7131 66.0421 15.1721 66.7891 15.5881C67.4251 15.9421 67.8101 16.5341 67.9801 17.2581C68.1461 17.9751 67.9231 18.4772 67.2941 18.8152C66.4071 19.2932 65.5041 19.3482 64.5911 18.9352C64.1041 18.7152 63.6421 18.4381 63.1211 18.1621C62.8641 18.4361 62.5591 18.6221 62.4681 18.8831C61.8881 20.5311 62.8281 22.3822 64.4471 22.7932C65.5621 23.0772 66.6301 22.9222 67.5691 22.2242C68.6861 21.3942 69.3651 20.2832 69.5571 18.8972C69.6501 18.2152 69.7001 17.5271 69.7821 16.7171C70.3341 16.8621 70.7641 17.0281 71.2101 17.0841C71.9001 17.1711 72.6131 17.2881 73.2921 17.2001C74.1931 17.0841 74.8961 16.5462 75.1291 15.6172C75.3731 14.6492 74.9221 13.8851 74.1091 13.4541ZM11.3721 18.8011C9.05705 17.7851 7.56106 15.9271 6.32706 13.8211C6.13806 13.4981 6.08006 13.0862 6.01406 12.7072C5.89506 12.0182 6.21606 11.4792 6.88606 11.2592C7.95206 10.9082 9.03806 10.9132 10.0891 11.2852C10.6591 11.4882 11.1791 11.8312 11.7411 12.1212C11.6801 12.4372 11.6951 12.6851 11.5891 12.8601C10.5491 14.5761 10.9991 16.1361 12.0661 17.6301C12.4191 18.1221 12.8211 18.5802 13.4101 19.3152C12.4931 19.2142 11.9221 19.0421 11.3721 18.8011ZM73.3911 15.9012C72.9041 16.0672 72.3081 16.2091 71.8421 16.0771C70.9551 15.8271 70.0641 15.4741 69.2831 14.9891C67.0121 13.5821 64.5591 12.6721 61.9801 12.0551C61.6891 11.9861 61.3981 11.9121 61.1081 11.8401C64.5401 11.7041 67.8971 12.0611 71.1101 13.2751C71.9721 13.6001 72.7851 14.0781 73.5701 14.5671C74.0501 14.8651 73.9361 15.7172 73.3911 15.9012Z" fill="white"/>
<path fill-rule="evenodd" clip-rule="evenodd" d="M31.6252 14.4982C32.8502 14.2732 34.0732 13.9982 35.2622 13.6272C38.0912 12.7422 40.9012 11.7892 43.7182 10.8662C48.1002 9.43217 52.5282 8.18017 57.1052 7.53417C58.4962 7.33917 59.8982 7.22415 61.2892 7.03115C62.1222 6.91415 62.9952 6.85216 63.6742 6.09616C62.6962 5.61016 61.7022 5.63016 60.6852 5.70916C57.7982 5.93116 54.9542 6.41015 52.1382 7.07015C47.0362 8.26515 42.1232 10.0632 37.1712 11.7382C35.0312 12.4622 32.9332 13.3342 30.6682 13.6422C30.4672 13.6702 30.2862 13.8482 30.0962 13.9552C30.0892 14.0972 30.0832 14.2392 30.0762 14.3812C30.5932 14.4262 31.1332 14.5892 31.6252 14.4982Z" fill="white"/>
<path fill-rule="evenodd" clip-rule="evenodd" d="M176.032 10.08C175.585 10.197 175.148 10.387 174.738 10.602C174.118 10.93 173.526 11.308 172.827 11.721C170.004 9.05295 167.285 9.85995 164.535 11.553C163.444 11.119 162.383 10.632 161.278 10.27C158.802 9.45796 156.283 9.02597 153.67 9.58597C152.651 9.80397 151.758 10.226 150.921 10.828C150.058 11.447 149.838 12.328 149.862 13.298C149.885 14.186 150.521 14.884 151.426 15.123C152.236 15.335 153.05 14.786 153.082 13.95C153.103 13.416 153.019 12.878 152.986 12.387C154.024 11.11 155.39 10.755 156.812 10.77C158.618 10.788 160.382 11.176 162.026 11.969C163.391 12.629 163.659 13.47 162.905 14.822C161.507 17.33 159.303 18.668 156.493 19.006C154.533 19.241 152.591 19.111 150.71 18.44C148.431 17.626 146.152 16.809 143.868 16.007C140.103 14.689 136.263 13.6539 132.357 12.8369C130.526 12.4539 128.731 11.911 126.915 11.459C122.976 10.477 119.045 9.45896 115.086 8.56296C113.808 8.27296 112.454 8.29296 111.132 8.23096C110.676 8.21096 110.194 8.31595 109.757 8.46195C109.231 8.63795 108.756 8.95095 108.686 9.57895C108.624 10.118 108.933 10.44 109.396 10.665C109.493 10.713 109.529 10.887 109.643 11.094C108.653 11.378 107.661 11.594 106.721 11.947C105.558 12.383 104.405 12.872 103.308 13.453C102.494 13.884 102.044 14.648 102.286 15.614C102.519 16.543 103.222 17.081 104.123 17.197C104.801 17.284 105.515 17.168 106.205 17.081C106.651 17.026 107.082 16.86 107.633 16.714C107.716 17.524 107.764 18.212 107.858 18.894C108.05 20.279 108.73 21.391 109.846 22.221C110.785 22.92 111.851 23.074 112.967 22.79C114.587 22.378 115.527 20.5279 114.947 18.8799C114.856 18.6189 114.551 18.433 114.295 18.159C113.774 18.435 113.312 18.7119 112.825 18.9319C111.912 19.3459 111.009 19.29 110.122 18.812C109.493 18.474 109.268 17.9729 109.435 17.2549C109.605 16.5309 109.991 15.94 110.626 15.585C111.373 15.169 112.138 14.71 112.954 14.512C114.77 14.07 116.609 13.594 118.464 13.457C126.705 12.849 134.657 14.311 142.358 17.183C144.325 17.917 146.156 19.008 148.068 19.898C151.616 21.547 155.381 22.199 159.25 21.901C161.096 21.758 162.959 21.291 164.718 20.69C166.927 19.934 169.069 18.953 171.183 17.951C173.028 17.077 174.689 15.892 176.023 14.316C176.79 13.411 177.421 12.433 177.414 11.172C177.409 10.344 176.853 9.86496 176.032 10.08ZM115.436 12.055C112.857 12.672 110.404 13.582 108.134 14.989C107.352 15.474 106.462 15.827 105.574 16.077C105.107 16.208 104.512 16.066 104.025 15.901C103.48 15.717 103.366 14.864 103.845 14.568C104.629 14.079 105.444 13.601 106.305 13.276C109.519 12.062 112.876 11.705 116.307 11.841C116.017 11.912 115.727 11.986 115.436 12.055ZM171.403 12.706C171.337 13.085 171.279 13.497 171.089 13.82C169.856 15.926 168.36 17.784 166.045 18.8C165.495 19.041 164.925 19.213 164.007 19.314C164.596 18.579 164.999 18.121 165.351 17.629C166.419 16.136 166.868 14.576 165.829 12.859C165.723 12.684 165.738 12.436 165.676 12.12C166.238 11.83 166.758 11.486 167.327 11.284C168.379 10.912 169.464 10.908 170.531 11.258C171.2 11.479 171.521 12.017 171.403 12.706Z" fill="white"/>
<path fill-rule="evenodd" clip-rule="evenodd" d="M103.257 9.62201C103.561 9.29101 103.775 8.83403 103.907 8.39703C104.303 7.09403 103.677 6.18103 102.313 6.21603C101.393 6.23903 100.477 6.51202 99.5638 6.69702C99.1208 6.78802 98.6898 6.93503 97.9598 7.13803C98.1008 6.66403 99.1478 4.68701 97.6228 4.30701C96.0998 3.92501 94.7288 5.64503 93.8488 6.14203C93.4598 6.36103 93.1058 6.64502 92.5548 7.02402C92.5468 6.99402 92.5398 6.96603 92.5318 6.93503C92.5048 4.00703 90.4128 -0.000976562 88.7088 -0.000976562C87.0038 -0.000976562 84.9128 4.00803 84.8858 6.93503C84.8778 6.96603 84.8708 6.99402 84.8638 7.02402C84.3118 6.64502 83.9588 6.36103 83.5688 6.14203C82.6878 5.64503 81.3178 3.92501 79.7938 4.30701C78.2698 4.68701 79.3168 6.66303 79.4578 7.13803C78.7268 6.93503 78.2958 6.78802 77.8538 6.69702C76.9398 6.51202 76.0248 6.23903 75.1048 6.21603C73.7398 6.18103 73.1138 7.09403 73.5098 8.39703C73.6428 8.83403 73.8568 9.29201 74.1608 9.62201C74.7918 10.307 75.4598 10.977 76.1998 11.54C78.4578 13.259 80.9718 14.513 83.6688 15.387C85.2528 15.899 88.7098 17.701 88.7098 17.701C88.7098 17.701 92.1648 15.9 93.7498 15.387C96.4468 14.513 98.9598 13.259 101.219 11.54C101.957 10.978 102.625 10.307 103.257 9.62201ZM76.0228 9.88702C75.3698 9.34802 74.7628 8.74003 74.6158 7.88403C74.9388 7.29603 75.4118 7.34702 75.8778 7.44302C79.9108 8.27102 82.9138 10.542 84.9938 14.132C81.7108 13.291 78.6398 12.05 76.0228 9.88702ZM89.2958 15.74C89.1288 15.984 88.9108 16.207 88.7088 16.452C88.5068 16.207 88.2888 15.984 88.1218 15.74C86.6478 13.603 85.9278 11.281 86.0518 8.68002C86.1528 6.55102 87.3408 1.46603 88.7088 1.46603C90.0778 1.46603 91.2658 6.55102 91.3658 8.68002C91.4888 11.28 90.7688 13.602 89.2958 15.74ZM101.394 9.88702C98.7758 12.05 95.7058 13.291 92.4238 14.132C94.5038 10.542 97.5058 8.27102 101.54 7.44302C102.006 7.34702 102.479 7.29703 102.802 7.88403C102.654 8.74003 102.046 9.34802 101.394 9.88702Z" fill="white"/>
<path fill-rule="evenodd" clip-rule="evenodd" d="M120.309 7.53518C124.886 8.18018 129.314 9.43318 133.696 10.8672C136.514 11.7892 139.323 12.7422 142.153 13.6282C143.341 13.9992 144.565 14.2742 145.79 14.4992C146.282 14.5902 146.822 14.4282 147.339 14.3812C147.333 14.2392 147.327 14.0972 147.32 13.9552C147.13 13.8482 146.949 13.6702 146.748 13.6422C144.483 13.3342 142.385 12.4622 140.245 11.7382C135.293 10.0642 130.38 8.26515 125.279 7.07015C122.462 6.41015 119.618 5.93016 116.73 5.70916C115.714 5.63016 114.72 5.61016 113.742 6.09616C114.421 6.85216 115.294 6.91415 116.127 7.03115C117.516 7.22515 118.919 7.34018 120.309 7.53518Z" fill="white"/>
</svg>
