<svg width="178" height="23" viewBox="0 0 178 23" fill="none" xmlns="http://www.w3.org/2000/svg">
<path fill-rule="evenodd" clip-rule="evenodd" d="M74.1091 13.4551C73.0131 12.8741 71.8591 12.3861 70.6951 11.9491C69.7561 11.5961 68.7651 11.3801 67.7741 11.0961C67.8881 10.8891 67.9231 10.7151 68.0211 10.6671C68.4841 10.4421 68.7931 10.1201 68.7311 9.58112C68.6611 8.95312 68.1851 8.64111 67.6591 8.46411C67.2221 8.31811 66.7401 8.21212 66.2841 8.23312C64.9631 8.29512 63.6091 8.27513 62.3301 8.56513C58.3711 9.46013 54.4401 10.4791 50.5011 11.4611C48.6841 11.9131 46.8891 12.4571 45.0581 12.8391C41.1531 13.6561 37.3121 14.6911 33.5471 16.0091C31.2631 16.8101 28.9841 17.6271 26.7051 18.4421C24.8241 19.1141 22.8811 19.2441 20.9221 19.0081C18.1121 18.6701 15.9081 17.3331 14.5101 14.8241C13.7551 13.4721 14.0251 12.6311 15.3891 11.9711C17.0321 11.1771 18.7971 10.7901 20.6021 10.7721C22.0231 10.7571 23.3901 11.1121 24.4281 12.3891C24.3941 12.8791 24.3111 13.4171 24.3321 13.9521C24.3641 14.7881 25.1791 15.3371 25.9881 15.1251C26.8931 14.8861 27.5291 14.1871 27.5521 13.3001C27.5771 12.3311 27.3561 11.4491 26.4931 10.8301C25.6561 10.2281 24.7631 9.80711 23.7431 9.58811C21.1301 9.02811 18.6111 9.46013 16.1341 10.2721C15.0311 10.6341 13.9691 11.1211 12.8791 11.5551C10.1281 9.86112 7.41006 9.05511 4.58706 11.7231C3.88806 11.3091 3.29506 10.9311 2.67506 10.6041C2.26506 10.3881 1.82806 10.1991 1.38206 10.0821C0.560058 9.86812 0.00505769 10.3461 5.76851e-05 11.1761C-0.00694232 12.4371 0.624057 13.4151 1.39106 14.3201C2.72506 15.8961 4.38506 17.0821 6.23106 17.9551C8.34606 18.9561 10.4871 19.9381 12.6971 20.6941C14.4561 21.2951 16.3191 21.7621 18.1651 21.9051C22.0351 22.2031 25.7991 21.5511 29.3471 19.9021C31.2591 19.0121 33.0901 17.9211 35.0571 17.1871C42.7581 14.3151 50.7101 12.8521 58.9511 13.4611C60.8061 13.5981 62.6441 14.0731 64.4611 14.5161C65.2781 14.7141 66.0421 15.1731 66.7891 15.5891C67.4251 15.9431 67.8101 16.5351 67.9801 17.2591C68.1461 17.9761 67.9231 18.4781 67.2941 18.8161C66.4071 19.2941 65.5041 19.3491 64.5911 18.9361C64.1041 18.7161 63.6421 18.4391 63.1211 18.1631C62.8641 18.4371 62.5591 18.6231 62.4681 18.8841C61.8881 20.5321 62.8281 22.3831 64.4471 22.7941C65.5621 23.0781 66.6301 22.9231 67.5691 22.2251C68.6861 21.3951 69.3651 20.2841 69.5571 18.8981C69.6501 18.2161 69.7001 17.5281 69.7821 16.7181C70.3341 16.8631 70.7641 17.0291 71.2101 17.0851C71.9001 17.1721 72.6131 17.2891 73.2921 17.2011C74.1931 17.0851 74.8961 16.5471 75.1291 15.6181C75.3731 14.6501 74.9221 13.8861 74.1091 13.4551ZM11.3721 18.8021C9.05705 17.7861 7.56106 15.9281 6.32706 13.8221C6.13806 13.4991 6.08006 13.0871 6.01406 12.7081C5.89506 12.0191 6.21606 11.4801 6.88606 11.2601C7.95206 10.9091 9.03806 10.9141 10.0891 11.2861C10.6591 11.4891 11.1791 11.8321 11.7411 12.1221C11.6801 12.4381 11.6951 12.6861 11.5891 12.8611C10.5491 14.5771 10.9991 16.1371 12.0661 17.6311C12.4191 18.1231 12.8211 18.5811 13.4101 19.3161C12.4931 19.2151 11.9221 19.0431 11.3721 18.8021ZM73.3911 15.9021C72.9041 16.0681 72.3081 16.2101 71.8421 16.0781C70.9551 15.8281 70.0641 15.4751 69.2831 14.9901C67.0121 13.5831 64.5591 12.6731 61.9801 12.0561C61.6891 11.9871 61.3981 11.9131 61.1081 11.8411C64.5401 11.7051 67.8971 12.0621 71.1101 13.2761C71.9721 13.6011 72.7851 14.0791 73.5701 14.5681C74.0501 14.8661 73.9361 15.7181 73.3911 15.9021Z" fill="#4F565D"/>
<path fill-rule="evenodd" clip-rule="evenodd" d="M31.6252 14.4991C32.8502 14.2741 34.0732 13.9991 35.2622 13.6281C38.0912 12.7431 40.9012 11.7902 43.7182 10.8672C48.1002 9.43315 52.5282 8.18115 57.1052 7.53515C58.4962 7.34015 59.8982 7.22513 61.2892 7.03213C62.1222 6.91513 62.9952 6.85313 63.6742 6.09713C62.6962 5.61113 61.7022 5.63114 60.6852 5.71014C57.7982 5.93214 54.9542 6.41113 52.1382 7.07113C47.0362 8.26613 42.1232 10.0641 37.1712 11.7391C35.0312 12.4631 32.9332 13.3352 30.6682 13.6432C30.4672 13.6712 30.2862 13.8491 30.0962 13.9561C30.0892 14.0981 30.0832 14.2401 30.0762 14.3821C30.5932 14.4271 31.1332 14.5901 31.6252 14.4991Z" fill="#4F565D"/>
<path fill-rule="evenodd" clip-rule="evenodd" d="M176.032 10.0809C175.585 10.1979 175.148 10.3879 174.738 10.6029C174.118 10.9309 173.526 11.3089 172.827 11.7219C170.004 9.05393 167.285 9.86093 164.535 11.5539C163.444 11.1199 162.383 10.6329 161.278 10.2709C158.802 9.45894 156.283 9.02695 153.67 9.58695C152.651 9.80495 151.758 10.227 150.921 10.829C150.058 11.448 149.838 12.329 149.862 13.299C149.885 14.187 150.521 14.8849 151.426 15.1239C152.236 15.3359 153.05 14.7869 153.082 13.9509C153.103 13.4169 153.019 12.8789 152.986 12.3879C154.024 11.1109 155.39 10.7559 156.812 10.7709C158.618 10.7889 160.382 11.1769 162.026 11.9699C163.391 12.6299 163.659 13.4709 162.905 14.8229C161.507 17.3309 159.303 18.6689 156.493 19.0069C154.533 19.2419 152.591 19.112 150.71 18.441C148.431 17.627 146.152 16.8099 143.868 16.0079C140.103 14.6899 136.263 13.6549 132.357 12.8379C130.526 12.4549 128.731 11.9119 126.915 11.4599C122.976 10.4779 119.045 9.45994 115.086 8.56394C113.808 8.27394 112.454 8.29394 111.132 8.23194C110.676 8.21194 110.194 8.31692 109.757 8.46292C109.231 8.63892 108.756 8.95193 108.686 9.57993C108.624 10.1189 108.933 10.4409 109.396 10.6659C109.493 10.7139 109.529 10.8879 109.643 11.0949C108.653 11.3789 107.661 11.5949 106.721 11.9479C105.558 12.3839 104.405 12.873 103.308 13.454C102.494 13.885 102.044 14.6489 102.286 15.6149C102.519 16.5439 103.222 17.0819 104.123 17.1979C104.801 17.2849 105.515 17.1689 106.205 17.0819C106.651 17.0269 107.082 16.8609 107.633 16.7149C107.716 17.5249 107.764 18.2129 107.858 18.8949C108.05 20.2799 108.73 21.3919 109.846 22.2219C110.785 22.9209 111.851 23.0749 112.967 22.7909C114.587 22.3789 115.527 20.5289 114.947 18.8809C114.856 18.6199 114.551 18.4339 114.295 18.1599C113.774 18.4359 113.312 18.7129 112.825 18.9329C111.912 19.3469 111.009 19.2909 110.122 18.8129C109.493 18.4749 109.268 17.9739 109.435 17.2559C109.605 16.5319 109.991 15.9409 110.626 15.5859C111.373 15.1699 112.138 14.7109 112.954 14.5129C114.77 14.0709 116.609 13.595 118.464 13.458C126.705 12.85 134.657 14.3119 142.358 17.1839C144.325 17.9179 146.156 19.0089 148.068 19.8989C151.616 21.5479 155.381 22.2 159.25 21.902C161.096 21.759 162.959 21.292 164.718 20.691C166.927 19.935 169.069 18.9539 171.183 17.9519C173.028 17.0779 174.689 15.8929 176.023 14.3169C176.79 13.4119 177.421 12.4339 177.414 11.1729C177.409 10.3449 176.853 9.86594 176.032 10.0809ZM115.436 12.0559C112.857 12.6729 110.404 13.5829 108.134 14.9899C107.352 15.4749 106.462 15.8279 105.574 16.0779C105.107 16.2089 104.512 16.067 104.025 15.902C103.48 15.718 103.366 14.8649 103.845 14.5689C104.629 14.0799 105.444 13.602 106.305 13.277C109.519 12.063 112.876 11.706 116.307 11.842C116.017 11.913 115.727 11.9869 115.436 12.0559ZM171.403 12.7069C171.337 13.0859 171.279 13.4979 171.089 13.8209C169.856 15.9269 168.36 17.7849 166.045 18.8009C165.495 19.0419 164.925 19.2139 164.007 19.3149C164.596 18.5799 164.999 18.1219 165.351 17.6299C166.419 16.1369 166.868 14.5769 165.829 12.8599C165.723 12.6849 165.738 12.4369 165.676 12.1209C166.238 11.8309 166.758 11.4869 167.327 11.2849C168.379 10.9129 169.464 10.9089 170.531 11.2589C171.2 11.4799 171.521 12.0179 171.403 12.7069Z" fill="#4F565D"/>
<path fill-rule="evenodd" clip-rule="evenodd" d="M103.257 9.62299C103.561 9.29199 103.775 8.83501 103.907 8.39801C104.303 7.09501 103.677 6.18201 102.313 6.21701C101.393 6.24001 100.477 6.513 99.5638 6.698C99.1208 6.789 98.6898 6.93601 97.9598 7.13901C98.1008 6.66501 99.1478 4.68798 97.6228 4.30798C96.0998 3.92598 94.7288 5.64601 93.8488 6.14301C93.4598 6.36201 93.1058 6.64599 92.5548 7.02499C92.5468 6.99499 92.5398 6.967 92.5318 6.936C92.5048 4.008 90.4128 0 88.7088 0C87.0038 0 84.9128 4.009 84.8858 6.936C84.8778 6.967 84.8708 6.99499 84.8638 7.02499C84.3118 6.64599 83.9588 6.36201 83.5688 6.14301C82.6878 5.64601 81.3178 3.92598 79.7938 4.30798C78.2698 4.68798 79.3168 6.66401 79.4578 7.13901C78.7268 6.93601 78.2958 6.789 77.8538 6.698C76.9398 6.513 76.0248 6.24001 75.1048 6.21701C73.7398 6.18201 73.1138 7.09501 73.5098 8.39801C73.6428 8.83501 73.8568 9.29299 74.1608 9.62299C74.7918 10.308 75.4598 10.978 76.1998 11.541C78.4578 13.26 80.9718 14.514 83.6688 15.388C85.2528 15.9 88.7098 17.702 88.7098 17.702C88.7098 17.702 92.1648 15.901 93.7498 15.388C96.4468 14.514 98.9598 13.26 101.219 11.541C101.957 10.979 102.625 10.308 103.257 9.62299ZM76.0228 9.888C75.3698 9.349 74.7628 8.74101 74.6158 7.88501C74.9388 7.29701 75.4118 7.348 75.8778 7.444C79.9108 8.272 82.9138 10.543 84.9938 14.133C81.7108 13.292 78.6398 12.051 76.0228 9.888ZM89.2958 15.741C89.1288 15.985 88.9108 16.208 88.7088 16.453C88.5068 16.208 88.2888 15.985 88.1218 15.741C86.6478 13.604 85.9278 11.282 86.0518 8.681C86.1528 6.552 87.3408 1.46701 88.7088 1.46701C90.0778 1.46701 91.2658 6.552 91.3658 8.681C91.4888 11.281 90.7688 13.603 89.2958 15.741ZM101.394 9.888C98.7758 12.051 95.7058 13.292 92.4238 14.133C94.5038 10.543 97.5058 8.272 101.54 7.444C102.006 7.348 102.479 7.29801 102.802 7.88501C102.654 8.74101 102.046 9.349 101.394 9.888Z" fill="#4F565D"/>
<path fill-rule="evenodd" clip-rule="evenodd" d="M120.309 7.53616C124.886 8.18116 129.314 9.43416 133.696 10.8682C136.514 11.7902 139.323 12.7431 142.153 13.6291C143.341 14.0001 144.565 14.2751 145.79 14.5001C146.282 14.5911 146.822 14.4291 147.339 14.3821C147.333 14.2401 147.327 14.0981 147.32 13.9561C147.13 13.8491 146.949 13.6712 146.748 13.6432C144.483 13.3352 142.385 12.4631 140.245 11.7391C135.293 10.0651 130.38 8.26613 125.279 7.07113C122.462 6.41113 119.618 5.93114 116.73 5.71014C115.714 5.63114 114.72 5.61113 113.742 6.09713C114.421 6.85313 115.294 6.91513 116.127 7.03213C117.516 7.22613 118.919 7.34116 120.309 7.53616Z" fill="#4F565D"/>
</svg>
