<svg width="83" height="85" viewBox="0 0 83 85" fill="none" xmlns="http://www.w3.org/2000/svg">
<path d="M67.894 3.60141L56.3169 39.0567H54.7692L42.8206 13.971L34.6486 39.0567H33.1008L15.1471 1.30396V0H26.4146L36.382 21.9811L40.53 9.18982L36.8154 1.30396V0H48.0829L58.0504 21.9811L64.0556 3.60141H57.3074V0H71.98V3.60141H67.894Z" fill="#6A6A6A"/>
<path d="M12 0.000101656H26.4456V3.62222H12V0.000101656Z" fill="#6A6A6A"/>
<path d="M9.04 67H6.912L5.664 62.424L4.416 67H2.288L0.048 59.128H2.24L3.52 64.184L4.608 59.128H6.72L7.952 64.184L9.152 59.128H11.296L9.04 67ZM13.259 62.296H16.475C16.443 61.128 15.675 60.568 14.859 60.568C14.027 60.568 13.339 61.208 13.259 62.296ZM18.619 63.608H13.195C13.259 64.792 13.931 65.56 14.955 65.56C15.627 65.56 16.219 65.224 16.363 64.68H18.507C18.027 66.296 16.731 67.208 15.051 67.208C12.427 67.208 11.115 65.768 11.115 62.92C11.115 60.488 12.507 58.92 14.923 58.92C17.339 58.92 18.619 60.488 18.619 63.608ZM23.0659 65.512C24.0579 65.512 24.8259 64.584 24.8259 63.256C24.8259 61.544 24.2339 60.696 23.0819 60.696C21.8659 60.696 21.2899 61.512 21.2899 63.128C21.2899 64.536 22.0259 65.512 23.0659 65.512ZM26.7939 67H24.7939L24.7779 66.04C24.2819 66.84 23.5459 67.208 22.5859 67.208C20.6019 67.208 19.1779 65.64 19.1779 62.984C19.1779 60.6 20.3779 58.92 22.4099 58.92C23.3859 58.92 24.1539 59.32 24.7459 60.152V56.248H26.7939V67ZM31.4409 65.512C32.4329 65.512 33.2009 64.584 33.2009 63.256C33.2009 61.544 32.6089 60.696 31.4569 60.696C30.2409 60.696 29.6649 61.512 29.6649 63.128C29.6649 64.536 30.4009 65.512 31.4409 65.512ZM35.1689 67H33.1689L33.1529 66.04C32.6569 66.84 31.9209 67.208 30.9609 67.208C28.9769 67.208 27.5529 65.64 27.5529 62.984C27.5529 60.6 28.7529 58.92 30.7849 58.92C31.7609 58.92 32.5289 59.32 33.1209 60.152V56.248H35.1689V67ZM38.2159 67H36.1359V59.128H38.2159V67ZM38.2159 58.184H36.1359V56.248H38.2159V58.184ZM46.302 67H44.206V62.232C44.206 61.016 43.854 60.68 42.862 60.68C41.774 60.68 41.246 61.288 41.246 62.488V67H39.166V59.128H41.15V60.28C41.63 59.4 42.43 58.92 43.694 58.92C45.198 58.92 46.302 59.832 46.302 61.544V67ZM50.9889 65.432C51.9969 65.432 52.7649 64.584 52.7649 63.256C52.7649 61.544 52.1729 60.728 50.9889 60.728C49.8209 60.728 49.2129 61.512 49.2129 63.128C49.2129 64.536 49.9649 65.432 50.9889 65.432ZM52.7009 67.24V65.944C52.4129 66.648 51.5649 67.064 50.5409 67.064C47.9489 67.064 47.0529 65.08 47.0529 63.016C47.0529 60.568 48.5889 58.92 50.4929 58.92C51.4849 58.92 52.2049 59.304 52.7009 60.104V59.128H54.7809V67.08C54.7809 69.448 53.0529 70.728 50.8609 70.728C48.6689 70.728 47.0529 69.464 47.0529 67.432H48.9889C48.9889 68.376 49.6769 68.936 50.7169 68.936C51.8209 68.936 52.7009 68.28 52.7009 67.24ZM64.3212 67H62.1933L60.9453 62.424L59.6973 67H57.5693L55.3293 59.128H57.5213L58.8013 64.184L59.8893 59.128H62.0013L63.2333 64.184L64.4333 59.128H66.5773L64.3212 67ZM68.5403 62.296H71.7563C71.7243 61.128 70.9563 60.568 70.1403 60.568C69.3083 60.568 68.6203 61.208 68.5403 62.296ZM73.9003 63.608H68.4763C68.5403 64.792 69.2123 65.56 70.2363 65.56C70.9083 65.56 71.5003 65.224 71.6443 64.68H73.7883C73.3083 66.296 72.0123 67.208 70.3323 67.208C67.7083 67.208 66.3963 65.768 66.3963 62.92C66.3963 60.488 67.7883 58.92 70.2043 58.92C72.6203 58.92 73.9003 60.488 73.9003 63.608ZM78.3471 65.512C79.3871 65.512 80.1231 64.536 80.1231 63.128C80.1231 61.512 79.5471 60.696 78.3311 60.696C77.1791 60.696 76.5871 61.544 76.5871 63.256C76.5871 64.584 77.3551 65.512 78.3471 65.512ZM76.6191 67H74.6191V56.248H76.6671V60.152C77.2591 59.32 78.0271 58.92 79.0031 58.92C81.0351 58.92 82.2351 60.6 82.2351 62.984C82.2351 65.64 80.8111 67.208 78.8271 67.208C77.8671 67.208 77.1311 66.84 76.6351 66.04L76.6191 67Z" fill="#6A6A6A"/>
<path d="M28.27 83H23.23V76.36H28.11V77.52H24.58V78.94H27.83V80.11H24.58V81.82H28.27V83ZM33.6323 78.32H32.3123C32.2423 77.64 31.8323 77.31 30.9923 77.31C30.2123 77.31 29.8023 77.59 29.8023 78.09C29.8023 78.51 30.0923 78.75 30.8323 78.93C31.5823 79.11 32.3123 79.29 32.8023 79.51C33.3823 79.77 33.8423 80.18 33.8423 81.12C33.8423 82.58 32.7423 83.23 31.1923 83.23C29.5523 83.23 28.4123 82.5 28.3823 81.01H29.7223C29.7423 81.69 30.3123 82.11 31.2023 82.11C32.0223 82.11 32.4923 81.76 32.4923 81.17C32.4923 80.78 32.2923 80.51 31.4623 80.33C30.6423 80.15 30.1123 80.03 29.6423 79.82C28.9323 79.5 28.5323 79.02 28.5323 78.18C28.5323 76.99 29.3423 76.14 30.9623 76.14C32.6423 76.14 33.5823 77.05 33.6323 78.32ZM37.0745 83H35.6845V77.52H33.6845V76.36H39.0845V77.52H37.0745V83ZM46.1538 83H41.6338C41.6438 81.77 41.9338 80.92 43.6338 79.7C44.5838 79.02 44.8638 78.68 44.8638 78.12C44.8638 77.45 44.4538 77.25 43.9438 77.25C43.3538 77.25 42.9738 77.54 42.9738 78.43H41.7238C41.7238 77 42.5238 76.14 43.8838 76.14C45.2238 76.14 46.1338 76.77 46.1338 78.08C46.1338 79.09 45.6338 79.67 44.2138 80.68C43.7038 81.05 43.3238 81.53 43.2938 81.87H46.1538V83ZM48.7122 82.18C49.3422 82.18 49.6522 81.5 49.6522 79.69C49.6522 77.85 49.3422 77.18 48.7122 77.18C48.0822 77.18 47.7622 77.84 47.7622 79.67C47.7622 81.52 48.0822 82.18 48.7122 82.18ZM48.6722 83.23C47.2422 83.23 46.4122 82.15 46.4122 79.65C46.4122 77.16 47.2422 76.14 48.6722 76.14C50.1022 76.14 50.9722 77.16 50.9722 79.63C50.9722 82.1 50.1022 83.23 48.6722 83.23ZM55.7045 83H51.1845C51.1945 81.77 51.4845 80.92 53.1845 79.7C54.1345 79.02 54.4145 78.68 54.4145 78.12C54.4145 77.45 54.0045 77.25 53.4945 77.25C52.9045 77.25 52.5245 77.54 52.5245 78.43H51.2745C51.2745 77 52.0745 76.14 53.4345 76.14C54.7745 76.14 55.6845 76.77 55.6845 78.08C55.6845 79.09 55.1845 79.67 53.7645 80.68C53.2545 81.05 52.8745 81.53 52.8445 81.87H55.7045V83ZM57.633 80.02V79.11C58.753 79.11 58.983 78.69 58.983 78.2C58.983 77.54 58.723 77.18 58.123 77.18C57.623 77.18 57.243 77.58 57.243 78.27H56.033C56.033 77 56.913 76.14 58.173 76.14C59.323 76.14 60.233 76.88 60.233 77.95C60.233 78.55 59.973 79.14 59.453 79.44C60.083 79.7 60.443 80.24 60.443 81.08C60.443 82.41 59.493 83.23 58.103 83.23C56.723 83.23 55.923 82.4 55.923 81.05H57.173C57.173 81.82 57.513 82.16 58.163 82.16C58.703 82.16 59.113 81.76 59.113 81.06C59.113 80.28 58.713 80.02 57.633 80.02Z" fill="#6A6A6A"/>
</svg>
