<svg width="1440" height="558" viewBox="0 0 1440 558" fill="none" xmlns="http://www.w3.org/2000/svg">
<rect x="6" y="7" width="1440" height="547" fill="#101010"/>
<path d="M1449 349H1386C1381.58 349 1378 352.582 1378 357V425C1378 429.418 1374.42 433 1370 433H1320C1315.58 433 1312 436.582 1312 441V479.5C1312 483.918 1308.42 487.5 1304 487.5H1225C1220.58 487.5 1217 491.082 1217 495.5V517C1217 521.418 1213.42 525 1209 525H1165C1160.58 525 1157 528.582 1157 533V557" stroke="white" stroke-opacity="0.15" stroke-width="2"/>
<path d="M1453 470H1415C1410.58 470 1407 473.582 1407 478V498C1407 502.418 1403.42 506 1399 506H1362.5C1358.08 506 1354.5 509.582 1354.5 514V519.5C1354.5 523.918 1350.92 527.5 1346.5 527.5H1267.5C1263.08 527.5 1259.5 531.082 1259.5 535.5V550" stroke="white" stroke-opacity="0.15" stroke-width="2"/>
<path d="M1454.5 527.5H1418.5C1414.08 527.5 1410.5 531.082 1410.5 535.5V557" stroke="white" stroke-opacity="0.15" stroke-width="2"/>
<path d="M1449 1H1386C1381.58 1 1378 4.58172 1378 9V77C1378 81.4183 1374.42 85 1370 85H1320C1315.58 85 1312 88.5817 1312 93V131.5C1312 135.918 1308.42 139.5 1304 139.5H1225C1220.58 139.5 1217 143.082 1217 147.5V169C1217 173.418 1213.42 177 1209 177H1165C1160.58 177 1157 180.582 1157 185V209" stroke="white" stroke-opacity="0.15" stroke-width="2"/>
<path d="M1453 122H1415C1410.58 122 1407 125.582 1407 130V150C1407 154.418 1403.42 158 1399 158H1362.5C1358.08 158 1354.5 161.582 1354.5 166V171.5C1354.5 175.918 1350.92 179.5 1346.5 179.5H1267.5C1263.08 179.5 1259.5 183.082 1259.5 187.5V202" stroke="white" stroke-opacity="0.15" stroke-width="2"/>
<path d="M1454.5 179.5H1418.5C1414.08 179.5 1410.5 183.082 1410.5 187.5V209" stroke="white" stroke-opacity="0.15" stroke-width="2"/>
<path d="M5.5 349H68.5C72.9183 349 76.5 352.582 76.5 357V425C76.5 429.418 80.0817 433 84.5 433H134.5C138.918 433 142.5 436.582 142.5 441V479.5C142.5 483.918 146.082 487.5 150.5 487.5H229.5C233.918 487.5 237.5 491.082 237.5 495.5V517C237.5 521.418 241.082 525 245.5 525H289.5C293.918 525 297.5 528.582 297.5 533V557" stroke="white" stroke-opacity="0.15" stroke-width="2"/>
<path d="M1.5 470H39.5C43.9183 470 47.5 473.582 47.5 478V498C47.5 502.418 51.0817 506 55.5 506H92C96.4183 506 100 509.582 100 514V519.5C100 523.918 103.582 527.5 108 527.5H187C191.418 527.5 195 531.082 195 535.5V550" stroke="white" stroke-opacity="0.15" stroke-width="2"/>
<path d="M0 527.5H36C40.4183 527.5 44 531.082 44 535.5V557" stroke="white" stroke-opacity="0.15" stroke-width="2"/>
<path d="M5.50195 557L68.502 557C72.9202 557 76.502 553.418 76.502 549L76.5019 481C76.5019 476.582 80.0837 473 84.5019 473L134.502 473C138.92 473 142.502 469.418 142.502 465L142.502 426.5C142.502 422.082 146.084 418.5 150.502 418.5L229.502 418.5C233.92 418.5 237.502 414.918 237.502 410.5L237.502 389C237.502 384.582 241.084 381 245.502 381L289.502 381C293.92 381 297.502 377.418 297.502 373L297.502 349" stroke="white" stroke-opacity="0.15" stroke-width="2"/>
<path d="M1.5 436L39.5 436C43.9183 436 47.5 432.418 47.5 428L47.5 408C47.5 403.582 51.0817 400 55.5 400L92 400C96.4183 400 100 396.418 100 392L100 386.5C100 382.082 103.582 378.5 108 378.5L187 378.5C191.418 378.5 195 374.918 195 370.5L195 356" stroke="white" stroke-opacity="0.15" stroke-width="2"/>
<path d="M0 378.5L36 378.5C40.4183 378.5 44 374.918 44 370.5L44 349" stroke="white" stroke-opacity="0.15" stroke-width="2"/>
<path d="M11.5 1H74.5C78.9183 1 82.5 4.58172 82.5 9V77C82.5 81.4183 86.0817 85 90.5 85H140.5C144.918 85 148.5 88.5817 148.5 93V131.5C148.5 135.918 152.082 139.5 156.5 139.5H235.5C239.918 139.5 243.5 143.082 243.5 147.5V169C243.5 173.418 247.082 177 251.5 177H295.5C299.918 177 303.5 180.582 303.5 185V209" stroke="white" stroke-opacity="0.15" stroke-width="2"/>
<path d="M7.5 122H45.5C49.9183 122 53.5 125.582 53.5 130V150C53.5 154.418 57.0817 158 61.5 158H98C102.418 158 106 161.582 106 166V171.5C106 175.918 109.582 179.5 114 179.5H193C197.418 179.5 201 183.082 201 187.5V202" stroke="white" stroke-opacity="0.15" stroke-width="2"/>
<path d="M6 179.5H42C46.4183 179.5 50 183.082 50 187.5V209" stroke="white" stroke-opacity="0.15" stroke-width="2"/>
<path d="M11.502 209L74.502 209C78.9202 209 82.502 205.418 82.502 201L82.5019 133C82.5019 128.582 86.0837 125 90.5019 125L140.502 125C144.92 125 148.502 121.418 148.502 117L148.502 78.5C148.502 74.0817 152.084 70.5 156.502 70.5L235.502 70.5C239.92 70.5 243.502 66.9183 243.502 62.5L243.502 41C243.502 36.5817 247.084 33 251.502 33L295.502 33C299.92 33 303.502 29.4183 303.502 25L303.502 0.999974" stroke="white" stroke-opacity="0.15" stroke-width="2"/>
<path d="M7.5 88L45.5 88C49.9183 88 53.5 84.4183 53.5 80L53.5 60C53.5 55.5817 57.0817 52 61.5 52L98 52C102.418 52 106 48.4183 106 44L106 38.5C106 34.0817 109.582 30.5 114 30.5L193 30.5C197.418 30.5 201 26.9183 201 22.5L201 7.99998" stroke="white" stroke-opacity="0.15" stroke-width="2"/>
<path d="M6 30.5L42 30.5C46.4183 30.5 50 26.9183 50 22.5L50 0.999996" stroke="white" stroke-opacity="0.15" stroke-width="2"/>
</svg>
