<svg width="155" height="40" viewBox="0 0 155 40" fill="none" xmlns="http://www.w3.org/2000/svg">
<path d="M55.894 3.60141L44.3169 39.0567H42.7692L30.8206 13.971L22.6486 39.0567H21.1008L3.14707 1.30396V0H14.4146L24.382 21.9811L28.53 9.18982L24.8154 1.30396V0H36.0829L46.0504 21.9811L52.0556 3.60141H45.3074V0H59.98V3.60141H55.894Z" fill="#272726"/>
<path d="M0 0.000101656H14.4456V3.62222H0V0.000101656Z" fill="#272726"/>
<path d="M81.0205 18H78.8925L77.6445 13.424L76.3965 18H74.2685L72.0285 10.128H74.2205L75.5005 15.184L76.5885 10.128H78.7005L79.9325 15.184L81.1325 10.128H83.2765L81.0205 18ZM85.2395 13.296H88.4555C88.4235 12.128 87.6555 11.568 86.8395 11.568C86.0075 11.568 85.3195 12.208 85.2395 13.296ZM90.5995 14.608H85.1755C85.2395 15.792 85.9115 16.56 86.9355 16.56C87.6075 16.56 88.1995 16.224 88.3435 15.68H90.4875C90.0075 17.296 88.7115 18.208 87.0315 18.208C84.4075 18.208 83.0955 16.768 83.0955 13.92C83.0955 11.488 84.4875 9.92 86.9035 9.92C89.3195 9.92 90.5995 11.488 90.5995 14.608ZM95.0463 16.512C96.0383 16.512 96.8063 15.584 96.8063 14.256C96.8063 12.544 96.2143 11.696 95.0623 11.696C93.8463 11.696 93.2703 12.512 93.2703 14.128C93.2703 15.536 94.0063 16.512 95.0463 16.512ZM98.7743 18H96.7743L96.7583 17.04C96.2623 17.84 95.5263 18.208 94.5663 18.208C92.5823 18.208 91.1583 16.64 91.1583 13.984C91.1583 11.6 92.3583 9.92 94.3903 9.92C95.3663 9.92 96.1343 10.32 96.7263 11.152V7.248H98.7743V18ZM103.421 16.512C104.413 16.512 105.181 15.584 105.181 14.256C105.181 12.544 104.589 11.696 103.437 11.696C102.221 11.696 101.645 12.512 101.645 14.128C101.645 15.536 102.381 16.512 103.421 16.512ZM107.149 18H105.149L105.133 17.04C104.637 17.84 103.901 18.208 102.941 18.208C100.957 18.208 99.5333 16.64 99.5333 13.984C99.5333 11.6 100.733 9.92 102.765 9.92C103.741 9.92 104.509 10.32 105.101 11.152V7.248H107.149V18ZM110.196 18H108.116V10.128H110.196V18ZM110.196 9.184H108.116V7.248H110.196V9.184ZM118.282 18H116.186V13.232C116.186 12.016 115.834 11.68 114.842 11.68C113.754 11.68 113.226 12.288 113.226 13.488V18H111.146V10.128H113.13V11.28C113.61 10.4 114.41 9.92 115.674 9.92C117.178 9.92 118.282 10.832 118.282 12.544V18ZM122.969 16.432C123.977 16.432 124.745 15.584 124.745 14.256C124.745 12.544 124.153 11.728 122.969 11.728C121.801 11.728 121.193 12.512 121.193 14.128C121.193 15.536 121.945 16.432 122.969 16.432ZM124.681 18.24V16.944C124.393 17.648 123.545 18.064 122.521 18.064C119.929 18.064 119.033 16.08 119.033 14.016C119.033 11.568 120.569 9.92 122.473 9.92C123.465 9.92 124.185 10.304 124.681 11.104V10.128H126.761V18.08C126.761 20.448 125.033 21.728 122.841 21.728C120.649 21.728 119.033 20.464 119.033 18.432H120.969C120.969 19.376 121.657 19.936 122.697 19.936C123.801 19.936 124.681 19.28 124.681 18.24ZM136.302 18H134.174L132.926 13.424L131.678 18H129.55L127.31 10.128H129.502L130.782 15.184L131.87 10.128H133.982L135.214 15.184L136.414 10.128H138.558L136.302 18ZM140.521 13.296H143.737C143.705 12.128 142.937 11.568 142.121 11.568C141.289 11.568 140.601 12.208 140.521 13.296ZM145.881 14.608H140.457C140.521 15.792 141.193 16.56 142.217 16.56C142.889 16.56 143.481 16.224 143.625 15.68H145.769C145.289 17.296 143.993 18.208 142.313 18.208C139.689 18.208 138.377 16.768 138.377 13.92C138.377 11.488 139.769 9.92 142.185 9.92C144.601 9.92 145.881 11.488 145.881 14.608ZM150.328 16.512C151.368 16.512 152.104 15.536 152.104 14.128C152.104 12.512 151.528 11.696 150.312 11.696C149.16 11.696 148.568 12.544 148.568 14.256C148.568 15.584 149.336 16.512 150.328 16.512ZM148.6 18H146.6V7.248H148.648V11.152C149.24 10.32 150.008 9.92 150.984 9.92C153.016 9.92 154.216 11.6 154.216 13.984C154.216 16.64 152.792 18.208 150.808 18.208C149.848 18.208 149.112 17.84 148.616 17.04L148.6 18Z" fill="#272726"/>
<path d="M77.2505 34H72.2105V27.36H77.0905V28.52H73.5605V29.94H76.8105V31.11H73.5605V32.82H77.2505V34ZM82.6127 29.32H81.2927C81.2227 28.64 80.8127 28.31 79.9727 28.31C79.1927 28.31 78.7827 28.59 78.7827 29.09C78.7827 29.51 79.0727 29.75 79.8127 29.93C80.5627 30.11 81.2927 30.29 81.7827 30.51C82.3627 30.77 82.8227 31.18 82.8227 32.12C82.8227 33.58 81.7227 34.23 80.1727 34.23C78.5327 34.23 77.3927 33.5 77.3627 32.01H78.7027C78.7227 32.69 79.2927 33.11 80.1827 33.11C81.0027 33.11 81.4727 32.76 81.4727 32.17C81.4727 31.78 81.2727 31.51 80.4427 31.33C79.6227 31.15 79.0927 31.03 78.6227 30.82C77.9127 30.5 77.5127 30.02 77.5127 29.18C77.5127 27.99 78.3227 27.14 79.9427 27.14C81.6227 27.14 82.5627 28.05 82.6127 29.32ZM86.055 34H84.665V28.52H82.665V27.36H88.065V28.52H86.055V34ZM95.1342 34H90.6142C90.6242 32.77 90.9142 31.92 92.6142 30.7C93.5642 30.02 93.8442 29.68 93.8442 29.12C93.8442 28.45 93.4342 28.25 92.9242 28.25C92.3342 28.25 91.9542 28.54 91.9542 29.43H90.7042C90.7042 28 91.5042 27.14 92.8642 27.14C94.2042 27.14 95.1142 27.77 95.1142 29.08C95.1142 30.09 94.6142 30.67 93.1942 31.68C92.6842 32.05 92.3042 32.53 92.2742 32.87H95.1342V34ZM97.6927 33.18C98.3227 33.18 98.6327 32.5 98.6327 30.69C98.6327 28.85 98.3227 28.18 97.6927 28.18C97.0627 28.18 96.7427 28.84 96.7427 30.67C96.7427 32.52 97.0627 33.18 97.6927 33.18ZM97.6527 34.23C96.2227 34.23 95.3927 33.15 95.3927 30.65C95.3927 28.16 96.2227 27.14 97.6527 27.14C99.0827 27.14 99.9527 28.16 99.9527 30.63C99.9527 33.1 99.0827 34.23 97.6527 34.23ZM104.685 34H100.165C100.175 32.77 100.465 31.92 102.165 30.7C103.115 30.02 103.395 29.68 103.395 29.12C103.395 28.45 102.985 28.25 102.475 28.25C101.885 28.25 101.505 28.54 101.505 29.43H100.255C100.255 28 101.055 27.14 102.415 27.14C103.755 27.14 104.665 27.77 104.665 29.08C104.665 30.09 104.165 30.67 102.745 31.68C102.235 32.05 101.855 32.53 101.825 32.87H104.685V34ZM106.613 31.02V30.11C107.733 30.11 107.963 29.69 107.963 29.2C107.963 28.54 107.703 28.18 107.103 28.18C106.603 28.18 106.223 28.58 106.223 29.27H105.013C105.013 28 105.893 27.14 107.153 27.14C108.303 27.14 109.213 27.88 109.213 28.95C109.213 29.55 108.953 30.14 108.433 30.44C109.063 30.7 109.423 31.24 109.423 32.08C109.423 33.41 108.473 34.23 107.083 34.23C105.703 34.23 104.903 33.4 104.903 32.05H106.153C106.153 32.82 106.493 33.16 107.143 33.16C107.683 33.16 108.093 32.76 108.093 32.06C108.093 31.28 107.693 31.02 106.613 31.02Z" fill="#272726"/>
</svg>
