<svg width="167" height="39" viewBox="0 0 167 39" fill="none" xmlns="http://www.w3.org/2000/svg">
<mask id="mask0_1808_104" style="mask-type:alpha" maskUnits="userSpaceOnUse" x="0" y="0" width="59" height="39">
<rect width="59" height="39" fill="#D9D9D9"/>
</mask>
<g mask="url(#mask0_1808_104)">
<path d="M0.0616737 10.209L11.5657 10.209L16.4917 10.209L29.5256 27.5236L21.5936 38.7009L0.0616737 10.209Z" fill="#1B1B1A"/>
<path d="M58.9872 10.209L47.4832 10.2098L42.5573 10.2101L29.5243 27.5255L37.4569 38.7022L58.9872 10.209Z" fill="#1B1B1A"/>
<path d="M0.0616737 -0.0878342L11.5657 -0.0878367L16.4917 -0.0878367L29.5256 17.2268L21.5936 28.404L0.0616737 -0.0878342Z" fill="#1B1B1A"/>
<path d="M58.9872 -0.0878299L47.4832 -0.087089L42.5573 -0.0867706L29.5243 17.2286L37.4569 28.4053L58.9872 -0.0878299Z" fill="#1B1B1A"/>
</g>
<path d="M75.4365 16.048L73.3405 9.904C73.2658 9.68 73.1965 9.488 73.1325 9.328C73.0791 9.168 73.0365 9.02933 73.0045 8.912C72.9725 8.79467 72.9458 8.69333 72.9245 8.608L72.0765 8.656V8H75.4685V8.48C74.9885 8.49067 74.7218 8.656 74.6685 8.976C74.6258 9.28533 74.6898 9.696 74.8605 10.208L75.5965 12.448C75.6818 12.704 75.7671 12.9653 75.8525 13.232C75.9378 13.488 76.0231 13.744 76.1085 14C76.2045 13.712 76.3005 13.424 76.3965 13.136C76.5031 12.8373 76.6045 12.5387 76.7005 12.24L78.1245 8H78.7805L80.3965 12.656C80.4818 12.8907 80.5671 13.1307 80.6525 13.376C80.7378 13.6213 80.8231 13.8667 80.9085 14.112C80.9938 13.8773 81.0738 13.648 81.1485 13.424C81.2338 13.1893 81.3138 12.9547 81.3885 12.72L82.4445 9.68C82.5191 9.46667 82.5938 9.264 82.6685 9.072C82.7431 8.88 82.8285 8.72533 82.9245 8.608L81.9965 8.656V8H84.7805V8.48C84.5031 8.49067 84.2738 8.528 84.0925 8.592C83.9218 8.656 83.7778 8.74133 83.6605 8.848C83.5431 8.95467 83.4471 9.08267 83.3725 9.232C83.2978 9.38133 83.2285 9.552 83.1645 9.744L80.8605 16.048H80.2205L78.7005 11.68C78.6365 11.488 78.5725 11.3013 78.5085 11.12C78.4445 10.928 78.3805 10.7413 78.3165 10.56C78.2525 10.368 78.1885 10.1813 78.1245 10C78.0605 10.1813 77.9965 10.368 77.9325 10.56C77.8685 10.7413 77.8045 10.928 77.7405 11.12C77.6765 11.3013 77.6125 11.488 77.5485 11.68L76.0445 16.048H75.4365ZM89.1815 16.256C88.4455 16.256 87.7788 16.0853 87.1815 15.744C86.5948 15.392 86.1308 14.9013 85.7895 14.272C85.4481 13.632 85.2775 12.88 85.2775 12.016C85.2775 11.2693 85.4428 10.5707 85.7735 9.92C86.1148 9.26933 86.5895 8.74667 87.1975 8.352C87.8055 7.94667 88.5095 7.744 89.3095 7.744C89.7575 7.744 90.1735 7.81867 90.5575 7.968C90.9521 8.10667 91.2988 8.32533 91.5975 8.624C91.8961 8.912 92.1308 9.28 92.3015 9.728C92.4721 10.1653 92.5575 10.6827 92.5575 11.28L86.9255 11.376C86.9255 12.1867 87.0108 12.9013 87.1815 13.52C87.3628 14.128 87.6508 14.6027 88.0455 14.944C88.4401 15.2747 88.9468 15.44 89.5655 15.44C89.8961 15.44 90.2321 15.3813 90.5735 15.264C90.9255 15.1467 91.2508 14.9867 91.5495 14.784C91.8481 14.5813 92.0881 14.3573 92.2695 14.112L92.6535 14.432C92.3655 14.88 92.0188 15.2373 91.6135 15.504C91.2081 15.7707 90.7921 15.9627 90.3655 16.08C89.9388 16.1973 89.5441 16.256 89.1815 16.256ZM86.9735 10.704H91.0535C91.0535 10.32 90.9948 9.952 90.8775 9.6C90.7708 9.23733 90.5895 8.944 90.3335 8.72C90.0775 8.48533 89.7415 8.368 89.3255 8.368C88.7068 8.368 88.1895 8.55467 87.7735 8.928C87.3681 9.29067 87.1015 9.88267 86.9735 10.704ZM97.3272 16.256C96.6766 16.256 96.0899 16.096 95.5672 15.776C95.0446 15.4453 94.6286 14.976 94.3192 14.368C94.0206 13.76 93.8712 13.0453 93.8712 12.224C93.8712 11.3493 94.0472 10.576 94.3992 9.904C94.7512 9.232 95.2366 8.704 95.8552 8.32C96.4846 7.936 97.1939 7.744 97.9832 7.744C98.3352 7.744 98.6819 7.792 99.0232 7.888C99.3752 7.97333 99.6526 8.07467 99.8552 8.192V6C99.8552 5.82933 99.8552 5.66933 99.8552 5.52C99.8659 5.36 99.8819 5.17333 99.9032 4.96C99.7112 4.97067 99.5192 4.98133 99.3272 4.992C99.1459 5.00267 98.9592 5.01333 98.7672 5.024V4.352C99.2366 4.352 99.5992 4.33067 99.8552 4.288C100.111 4.24533 100.303 4.192 100.431 4.128C100.57 4.064 100.677 3.99467 100.751 3.92H101.215V14.304C101.215 14.4747 101.21 14.6453 101.199 14.816C101.189 14.9867 101.173 15.1787 101.151 15.392C101.343 15.3813 101.53 15.3707 101.711 15.36C101.903 15.3493 102.095 15.3387 102.287 15.328V16H99.9992C99.9672 15.84 99.9406 15.696 99.9192 15.568C99.9086 15.4293 99.8979 15.296 99.8872 15.168C99.5886 15.4987 99.2206 15.7653 98.7832 15.968C98.3459 16.16 97.8606 16.256 97.3272 16.256ZM97.9032 15.472C98.2552 15.472 98.6072 15.3707 98.9592 15.168C99.3219 14.9653 99.6206 14.7147 99.8552 14.416C99.8446 14.288 99.8392 14.1547 99.8392 14.016C99.8392 13.8667 99.8392 13.7067 99.8392 13.536L99.8552 8.928C99.5992 8.736 99.3166 8.59733 99.0072 8.512C98.7086 8.416 98.3992 8.368 98.0792 8.368C97.5459 8.368 97.0819 8.52267 96.6872 8.832C96.2926 9.14133 95.9939 9.57333 95.7912 10.128C95.5886 10.6827 95.4979 11.3333 95.5192 12.08C95.5406 12.7307 95.6419 13.312 95.8232 13.824C96.0152 14.336 96.2819 14.7413 96.6232 15.04C96.9752 15.328 97.4019 15.472 97.9032 15.472ZM106.89 16.256C106.239 16.256 105.652 16.096 105.13 15.776C104.607 15.4453 104.191 14.976 103.882 14.368C103.583 13.76 103.434 13.0453 103.434 12.224C103.434 11.3493 103.61 10.576 103.962 9.904C104.314 9.232 104.799 8.704 105.418 8.32C106.047 7.936 106.756 7.744 107.546 7.744C107.898 7.744 108.244 7.792 108.586 7.888C108.938 7.97333 109.215 8.07467 109.418 8.192V6C109.418 5.82933 109.418 5.66933 109.418 5.52C109.428 5.36 109.444 5.17333 109.466 4.96C109.274 4.97067 109.082 4.98133 108.89 4.992C108.708 5.00267 108.522 5.01333 108.33 5.024V4.352C108.799 4.352 109.162 4.33067 109.418 4.288C109.674 4.24533 109.866 4.192 109.994 4.128C110.132 4.064 110.239 3.99467 110.314 3.92H110.778V14.304C110.778 14.4747 110.772 14.6453 110.762 14.816C110.751 14.9867 110.735 15.1787 110.714 15.392C110.906 15.3813 111.092 15.3707 111.274 15.36C111.466 15.3493 111.658 15.3387 111.85 15.328V16H109.562C109.53 15.84 109.503 15.696 109.482 15.568C109.471 15.4293 109.46 15.296 109.45 15.168C109.151 15.4987 108.783 15.7653 108.346 15.968C107.908 16.16 107.423 16.256 106.89 16.256ZM107.466 15.472C107.818 15.472 108.17 15.3707 108.522 15.168C108.884 14.9653 109.183 14.7147 109.418 14.416C109.407 14.288 109.402 14.1547 109.402 14.016C109.402 13.8667 109.402 13.7067 109.402 13.536L109.418 8.928C109.162 8.736 108.879 8.59733 108.57 8.512C108.271 8.416 107.962 8.368 107.642 8.368C107.108 8.368 106.644 8.52267 106.25 8.832C105.855 9.14133 105.556 9.57333 105.354 10.128C105.151 10.6827 105.06 11.3333 105.082 12.08C105.103 12.7307 105.204 13.312 105.386 13.824C105.578 14.336 105.844 14.7413 106.186 15.04C106.538 15.328 106.964 15.472 107.466 15.472ZM113.028 15.52C113.359 15.52 113.588 15.44 113.716 15.28C113.844 15.1093 113.919 14.88 113.94 14.592C113.962 14.2933 113.972 13.952 113.972 13.568V9.92C113.972 9.74933 113.978 9.58933 113.988 9.44C113.999 9.28 114.015 9.09333 114.036 8.88C113.844 8.89067 113.652 8.90133 113.46 8.912C113.279 8.92267 113.092 8.93333 112.9 8.944V8.272C113.37 8.272 113.732 8.25067 113.988 8.208C114.244 8.16533 114.436 8.112 114.564 8.048C114.703 7.984 114.81 7.91467 114.884 7.84H115.348V14.304C115.348 14.5173 115.343 14.7093 115.332 14.88C115.332 15.04 115.316 15.2107 115.284 15.392C115.455 15.3813 115.62 15.376 115.78 15.376C115.951 15.3653 116.122 15.3547 116.292 15.344V16H113.028V15.52ZM114.58 6.256C114.356 6.256 114.159 6.16533 113.988 5.984C113.818 5.80267 113.732 5.57867 113.732 5.312C113.732 5.04533 113.818 4.82133 113.988 4.64C114.17 4.448 114.372 4.352 114.596 4.352C114.842 4.352 115.044 4.448 115.204 4.64C115.375 4.82133 115.46 5.04533 115.46 5.312C115.46 5.57867 115.37 5.80267 115.188 5.984C115.018 6.16533 114.815 6.256 114.58 6.256ZM117.528 16V15.52C117.859 15.52 118.088 15.44 118.216 15.28C118.344 15.1093 118.419 14.88 118.44 14.592C118.462 14.2933 118.472 13.952 118.472 13.568L118.488 9.92C118.488 9.74933 118.488 9.57867 118.488 9.408C118.499 9.23733 118.52 9.06133 118.552 8.88C118.36 8.89067 118.168 8.90133 117.976 8.912C117.795 8.92267 117.608 8.93333 117.416 8.944V8.272C117.886 8.272 118.238 8.25067 118.472 8.208C118.718 8.16533 118.899 8.112 119.016 8.048C119.134 7.984 119.23 7.91467 119.304 7.84H119.768C119.779 7.91467 119.784 8 119.784 8.096C119.795 8.192 119.806 8.29867 119.816 8.416C119.827 8.53333 119.832 8.66667 119.832 8.816C120.067 8.61333 120.323 8.432 120.6 8.272C120.888 8.112 121.187 7.984 121.496 7.888C121.816 7.792 122.131 7.744 122.44 7.744C123.368 7.744 124.046 8.03733 124.472 8.624C124.899 9.2 125.112 10.1013 125.112 11.328V14.304C125.112 14.5173 125.107 14.7093 125.096 14.88C125.096 15.04 125.08 15.2107 125.048 15.392C125.219 15.3813 125.384 15.376 125.544 15.376C125.715 15.3653 125.886 15.3547 126.056 15.344V16H122.792V15.52C123.123 15.52 123.352 15.44 123.48 15.28C123.608 15.1093 123.683 14.88 123.704 14.592C123.726 14.2933 123.736 13.952 123.736 13.568V11.328C123.726 10.4107 123.571 9.71733 123.272 9.248C122.984 8.77867 122.526 8.54933 121.896 8.56C121.512 8.57067 121.134 8.672 120.76 8.864C120.398 9.056 120.094 9.30133 119.848 9.6C119.859 9.68533 119.864 9.78133 119.864 9.888C119.864 9.99467 119.864 10.1067 119.864 10.224L119.848 14.304C119.848 14.5173 119.843 14.7093 119.832 14.88C119.832 15.04 119.816 15.2107 119.784 15.392C119.955 15.3813 120.12 15.376 120.28 15.376C120.451 15.3653 120.622 15.3547 120.792 15.344V16H117.528ZM131.103 20.336C130.143 20.336 129.37 20.2293 128.783 20.016C128.196 19.8027 127.77 19.5307 127.503 19.2C127.236 18.8693 127.103 18.528 127.103 18.176C127.103 17.8453 127.178 17.552 127.327 17.296C127.487 17.0507 127.679 16.8373 127.903 16.656C128.138 16.4747 128.362 16.3413 128.575 16.256C128.234 16.1387 127.962 15.984 127.759 15.792C127.567 15.5893 127.471 15.3227 127.471 14.992C127.471 14.6187 127.62 14.272 127.919 13.952C128.218 13.6213 128.602 13.4187 129.071 13.344C128.58 13.1093 128.186 12.784 127.887 12.368C127.599 11.952 127.455 11.4667 127.455 10.912C127.455 10.272 127.62 9.71733 127.951 9.248C128.282 8.768 128.703 8.4 129.215 8.144C129.738 7.87733 130.276 7.744 130.831 7.744C131.183 7.744 131.535 7.79733 131.887 7.904C132.239 8 132.564 8.144 132.863 8.336C132.97 8.03733 133.119 7.77067 133.311 7.536C133.514 7.30133 133.743 7.12 133.999 6.992C134.255 6.85333 134.522 6.784 134.799 6.784C135.076 6.784 135.284 6.85867 135.423 7.008C135.572 7.14667 135.647 7.33867 135.647 7.584C135.647 7.65867 135.626 7.74933 135.583 7.856C135.54 7.96267 135.466 8.05333 135.359 8.128C135.263 8.20267 135.13 8.24 134.959 8.24C134.778 8.24 134.628 8.18667 134.511 8.08C134.394 7.97333 134.319 7.84 134.287 7.68C134.02 7.72267 133.812 7.85067 133.663 8.064C133.514 8.26667 133.412 8.49067 133.359 8.736C133.615 8.97067 133.818 9.25333 133.967 9.584C134.127 9.91467 134.207 10.2667 134.207 10.64C134.207 11.2373 134.047 11.7707 133.727 12.24C133.418 12.7093 133.007 13.0773 132.495 13.344C131.983 13.6 131.428 13.728 130.831 13.728C130.628 13.728 130.452 13.7173 130.303 13.696C130.154 13.664 129.972 13.648 129.759 13.648C129.364 13.648 129.044 13.744 128.799 13.936C128.554 14.128 128.468 14.3573 128.543 14.624C128.628 14.88 128.89 15.0453 129.327 15.12C129.764 15.184 130.351 15.232 131.087 15.264C131.908 15.296 132.612 15.392 133.199 15.552C133.786 15.712 134.234 15.9573 134.543 16.288C134.863 16.6293 135.023 17.088 135.023 17.664C135.023 18.0907 134.906 18.4693 134.671 18.8C134.447 19.1413 134.143 19.424 133.759 19.648C133.386 19.872 132.964 20.0427 132.495 20.16C132.036 20.2773 131.572 20.336 131.103 20.336ZM131.087 19.712C132.004 19.712 132.719 19.5413 133.231 19.2C133.743 18.8587 133.999 18.4587 133.999 18C133.999 17.6053 133.866 17.3013 133.599 17.088C133.332 16.8853 132.97 16.7413 132.511 16.656C132.052 16.5813 131.524 16.5387 130.927 16.528C130.639 16.5173 130.356 16.5013 130.079 16.48C129.802 16.4693 129.535 16.4427 129.279 16.4C128.991 16.592 128.767 16.8267 128.607 17.104C128.447 17.3813 128.367 17.6747 128.367 17.984C128.367 18.5067 128.612 18.9227 129.103 19.232C129.604 19.552 130.266 19.712 131.087 19.712ZM130.879 13.152C131.274 13.152 131.599 13.056 131.855 12.864C132.122 12.672 132.319 12.4107 132.447 12.08C132.586 11.7493 132.655 11.376 132.655 10.96C132.655 10.4907 132.586 10.0533 132.447 9.648C132.308 9.24267 132.1 8.91733 131.823 8.672C131.556 8.42667 131.215 8.304 130.799 8.304C130.223 8.304 129.775 8.52267 129.455 8.96C129.146 9.38667 128.991 9.92 128.991 10.56C128.991 11.072 129.066 11.5253 129.215 11.92C129.364 12.304 129.578 12.608 129.855 12.832C130.143 13.0453 130.484 13.152 130.879 13.152ZM138.999 16.048L136.903 9.904C136.828 9.68 136.759 9.488 136.695 9.328C136.642 9.168 136.599 9.02933 136.567 8.912C136.535 8.79467 136.508 8.69333 136.487 8.608L135.639 8.656V8H139.031V8.48C138.551 8.49067 138.284 8.656 138.231 8.976C138.188 9.28533 138.252 9.696 138.423 10.208L139.159 12.448C139.244 12.704 139.33 12.9653 139.415 13.232C139.5 13.488 139.586 13.744 139.671 14C139.767 13.712 139.863 13.424 139.959 13.136C140.066 12.8373 140.167 12.5387 140.263 12.24L141.687 8H142.343L143.959 12.656C144.044 12.8907 144.13 13.1307 144.215 13.376C144.3 13.6213 144.386 13.8667 144.471 14.112C144.556 13.8773 144.636 13.648 144.711 13.424C144.796 13.1893 144.876 12.9547 144.951 12.72L146.007 9.68C146.082 9.46667 146.156 9.264 146.231 9.072C146.306 8.88 146.391 8.72533 146.487 8.608L145.559 8.656V8H148.343V8.48C148.066 8.49067 147.836 8.528 147.655 8.592C147.484 8.656 147.34 8.74133 147.223 8.848C147.106 8.95467 147.01 9.08267 146.935 9.232C146.86 9.38133 146.791 9.552 146.727 9.744L144.423 16.048H143.783L142.263 11.68C142.199 11.488 142.135 11.3013 142.071 11.12C142.007 10.928 141.943 10.7413 141.879 10.56C141.815 10.368 141.751 10.1813 141.687 10C141.623 10.1813 141.559 10.368 141.495 10.56C141.431 10.7413 141.367 10.928 141.303 11.12C141.239 11.3013 141.175 11.488 141.111 11.68L139.607 16.048H138.999ZM152.744 16.256C152.008 16.256 151.341 16.0853 150.744 15.744C150.157 15.392 149.693 14.9013 149.352 14.272C149.011 13.632 148.84 12.88 148.84 12.016C148.84 11.2693 149.005 10.5707 149.336 9.92C149.677 9.26933 150.152 8.74667 150.76 8.352C151.368 7.94667 152.072 7.744 152.872 7.744C153.32 7.744 153.736 7.81867 154.12 7.968C154.515 8.10667 154.861 8.32533 155.16 8.624C155.459 8.912 155.693 9.28 155.864 9.728C156.035 10.1653 156.12 10.6827 156.12 11.28L150.488 11.376C150.488 12.1867 150.573 12.9013 150.744 13.52C150.925 14.128 151.213 14.6027 151.608 14.944C152.003 15.2747 152.509 15.44 153.128 15.44C153.459 15.44 153.795 15.3813 154.136 15.264C154.488 15.1467 154.813 14.9867 155.112 14.784C155.411 14.5813 155.651 14.3573 155.832 14.112L156.216 14.432C155.928 14.88 155.581 15.2373 155.176 15.504C154.771 15.7707 154.355 15.9627 153.928 16.08C153.501 16.1973 153.107 16.256 152.744 16.256ZM150.536 10.704H154.616C154.616 10.32 154.557 9.952 154.44 9.6C154.333 9.23733 154.152 8.944 153.896 8.72C153.64 8.48533 153.304 8.368 152.888 8.368C152.269 8.368 151.752 8.55467 151.336 8.928C150.931 9.29067 150.664 9.88267 150.536 10.704ZM158.056 6C158.056 5.82933 158.056 5.66933 158.056 5.52C158.067 5.36 158.083 5.17333 158.104 4.96C157.912 4.97067 157.72 4.98133 157.528 4.992C157.347 5.00267 157.16 5.01333 156.968 5.024V4.352C157.437 4.352 157.8 4.33067 158.056 4.288C158.323 4.24533 158.52 4.192 158.648 4.128C158.787 4.064 158.893 3.99467 158.968 3.92H159.432V8.688C159.731 8.38933 160.083 8.16 160.488 8C160.904 7.82933 161.357 7.744 161.848 7.744C162.531 7.744 163.144 7.90933 163.688 8.24C164.243 8.57067 164.68 9.04 165 9.648C165.32 10.256 165.48 10.976 165.48 11.808C165.48 12.7147 165.283 13.504 164.888 14.176C164.493 14.8373 163.981 15.3493 163.352 15.712C162.723 16.0747 162.045 16.256 161.32 16.256C160.957 16.256 160.557 16.1867 160.12 16.048C159.693 15.92 159.309 15.664 158.968 15.28L158.584 16H158.024L158.056 6ZM159.432 13.488C159.432 14.0533 159.523 14.4907 159.704 14.8C159.885 15.0987 160.12 15.3067 160.408 15.424C160.696 15.5413 161 15.6 161.32 15.6C161.832 15.6 162.275 15.456 162.648 15.168C163.021 14.88 163.309 14.4853 163.512 13.984C163.725 13.472 163.832 12.88 163.832 12.208C163.832 11.4827 163.741 10.848 163.56 10.304C163.379 9.74933 163.107 9.31733 162.744 9.008C162.381 8.688 161.923 8.528 161.368 8.528C161.016 8.528 160.664 8.61333 160.312 8.784C159.971 8.944 159.677 9.16267 159.432 9.44V13.488Z" fill="#272726"/>
<path d="M75.2045 26.928C75.2045 26.6933 75.1725 26.5253 75.1085 26.424C75.0445 26.3227 74.9431 26.2613 74.8045 26.24C74.6658 26.2187 74.4818 26.2133 74.2525 26.224L73.6685 26.248V28.08C73.6685 28.224 73.6658 28.3467 73.6605 28.448C73.6605 28.5493 73.6551 28.6347 73.6445 28.704L75.1725 28.68C75.4071 28.6747 75.6098 28.6373 75.7805 28.568C75.9511 28.4933 76.0845 28.3653 76.1805 28.184C76.2765 28.0027 76.3245 27.7547 76.3245 27.44H76.5965L76.5485 29H72.4205V28.736C72.6231 28.7253 72.7618 28.68 72.8365 28.6C72.9111 28.5147 72.9511 28.4 72.9565 28.256C72.9671 28.1067 72.9725 27.9387 72.9725 27.752V24.296C72.9725 24.1893 72.9751 24.088 72.9805 23.992C72.9858 23.8907 72.9911 23.8 72.9965 23.72C72.9005 23.7253 72.8045 23.7307 72.7085 23.736C72.6125 23.7413 72.5165 23.7467 72.4205 23.752V23.4H76.2685L76.3085 24.8H76.0445C76.0445 24.4853 75.9965 24.248 75.9005 24.088C75.8045 23.9227 75.6738 23.8133 75.5085 23.76C75.3485 23.7013 75.1671 23.6747 74.9645 23.68L74.2765 23.696C74.0791 23.7013 73.9378 23.7387 73.8525 23.808C73.7671 23.8773 73.7138 23.9813 73.6925 24.12C73.6765 24.2533 73.6685 24.4293 73.6685 24.648V25.928L75.1725 25.936L75.1165 25.248H75.4685V26.928H75.2045ZM80.541 25.096C80.525 24.84 80.4637 24.5973 80.357 24.368C80.2504 24.1387 80.0957 23.952 79.893 23.808C79.6904 23.664 79.4317 23.592 79.117 23.592C78.7864 23.592 78.533 23.6853 78.357 23.872C78.181 24.0587 78.093 24.2773 78.093 24.528C78.093 24.752 78.157 24.9413 78.285 25.096C78.413 25.2453 78.5784 25.3787 78.781 25.496C78.989 25.608 79.2077 25.7173 79.437 25.824C79.6397 25.9147 79.8424 26.0133 80.045 26.12C80.2477 26.2213 80.4317 26.3387 80.597 26.472C80.7624 26.6053 80.893 26.7653 80.989 26.952C81.0904 27.1333 81.141 27.352 81.141 27.608C81.141 27.9013 81.0664 28.1627 80.917 28.392C80.773 28.6213 80.5624 28.8027 80.285 28.936C80.0077 29.064 79.669 29.128 79.269 29.128C79.029 29.128 78.781 29.0933 78.525 29.024C78.269 28.9547 78.0424 28.8533 77.845 28.72L77.885 29.064H77.469L77.421 27.36H77.733C77.7597 27.8293 77.9224 28.1867 78.221 28.432C78.5197 28.672 78.8797 28.792 79.301 28.792C79.509 28.792 79.701 28.7547 79.877 28.68C80.053 28.6 80.1917 28.4853 80.293 28.336C80.3997 28.1867 80.453 28.0053 80.453 27.792C80.453 27.552 80.389 27.352 80.261 27.192C80.133 27.032 79.9677 26.8933 79.765 26.776C79.5624 26.6587 79.3464 26.5467 79.117 26.44C78.9144 26.3493 78.7144 26.2533 78.517 26.152C78.3197 26.0507 78.1384 25.936 77.973 25.808C77.813 25.6747 77.6824 25.5173 77.581 25.336C77.485 25.1547 77.437 24.936 77.437 24.68C77.437 24.5413 77.461 24.392 77.509 24.232C77.557 24.072 77.6397 23.92 77.757 23.776C77.8797 23.6267 78.045 23.5067 78.253 23.416C78.4664 23.32 78.7357 23.272 79.061 23.272C79.2637 23.272 79.4904 23.3013 79.741 23.36C79.997 23.4133 80.2344 23.52 80.453 23.68L80.421 23.336H80.829V25.096H80.541ZM86.1281 25.088C86.1228 24.7733 86.0908 24.512 86.0321 24.304C85.9734 24.096 85.8694 23.9413 85.7201 23.84C85.5761 23.7333 85.3654 23.6827 85.0881 23.688H84.4081L84.4001 28.048C84.4001 28.192 84.3974 28.3173 84.3921 28.424C84.3921 28.5253 84.3868 28.6107 84.3761 28.68C84.4881 28.6747 84.5974 28.6693 84.7041 28.664C84.8161 28.6587 84.9281 28.6533 85.0401 28.648V29H83.1601V28.736C83.3628 28.7253 83.4988 28.6773 83.5681 28.592C83.6428 28.5067 83.6828 28.392 83.6881 28.248C83.6988 28.0987 83.7041 27.9333 83.7041 27.752L83.7121 23.696L82.8881 23.704C82.5521 23.704 82.3148 23.816 82.1761 24.04C82.0374 24.264 81.9681 24.6133 81.9681 25.088H81.6721L81.7201 23.4H86.3841L86.4321 25.088H86.1281ZM89.0828 29C89.0828 28.7173 89.1255 28.4667 89.2108 28.248C89.3015 28.0293 89.4215 27.8293 89.5708 27.648C89.7202 27.4613 89.8882 27.2827 90.0748 27.112C90.2668 26.936 90.4615 26.752 90.6588 26.56C91.0055 26.2293 91.2562 25.9227 91.4108 25.64C91.5655 25.3573 91.6428 25.0853 91.6428 24.824C91.6428 24.6213 91.6135 24.4267 91.5548 24.24C91.5015 24.048 91.4028 23.8907 91.2588 23.768C91.1148 23.6453 90.9148 23.584 90.6588 23.584C90.4402 23.584 90.2455 23.64 90.0748 23.752C89.9042 23.8587 89.7895 23.992 89.7308 24.152C89.7842 24.2053 89.8215 24.264 89.8428 24.328C89.8642 24.3867 89.8748 24.4453 89.8748 24.504C89.8748 24.552 89.8615 24.6053 89.8348 24.664C89.8135 24.7227 89.7735 24.7733 89.7148 24.816C89.6562 24.8587 89.5788 24.88 89.4828 24.88C89.3655 24.8747 89.2748 24.8293 89.2108 24.744C89.1468 24.6587 89.1148 24.5573 89.1148 24.44C89.1148 24.328 89.1495 24.2053 89.2188 24.072C89.2882 23.9333 89.3922 23.8053 89.5308 23.688C89.6748 23.5653 89.8508 23.4667 90.0588 23.392C90.2668 23.312 90.5095 23.272 90.7868 23.272C91.0002 23.272 91.2055 23.2987 91.4028 23.352C91.6055 23.4 91.7868 23.48 91.9468 23.592C92.1068 23.704 92.2322 23.8533 92.3228 24.04C92.4188 24.2213 92.4668 24.448 92.4668 24.72C92.4668 24.8533 92.4375 24.9973 92.3788 25.152C92.3255 25.3067 92.2348 25.4747 92.1068 25.656C91.9842 25.832 91.8242 26.0213 91.6268 26.224C91.4295 26.4213 91.1868 26.6373 90.8988 26.872C90.5362 27.1707 90.2375 27.4533 90.0028 27.72C89.7735 27.9813 89.6402 28.2053 89.6028 28.392L91.0188 28.432C91.2802 28.4373 91.5095 28.4373 91.7068 28.432C91.9095 28.4267 92.0668 28.3867 92.1788 28.312C92.2962 28.232 92.3548 28.088 92.3548 27.88H92.5948L92.5468 29H89.0828ZM95.4997 29.128C95.0944 29.128 94.7584 29.0427 94.4917 28.872C94.2251 28.696 94.0171 28.4667 93.8677 28.184C93.7184 27.896 93.6117 27.5813 93.5477 27.24C93.4891 26.8987 93.4597 26.56 93.4597 26.224C93.4597 25.888 93.4971 25.5467 93.5717 25.2C93.6517 24.8533 93.7744 24.536 93.9397 24.248C94.1051 23.9547 94.3184 23.72 94.5797 23.544C94.8411 23.3627 95.1584 23.272 95.5317 23.272C95.9211 23.272 96.2437 23.36 96.4997 23.536C96.7611 23.712 96.9664 23.944 97.1157 24.232C97.2704 24.5147 97.3797 24.8267 97.4437 25.168C97.5077 25.5093 97.5397 25.848 97.5397 26.184C97.5397 26.5147 97.5024 26.8533 97.4277 27.2C97.3531 27.5467 97.2357 27.8667 97.0757 28.16C96.9157 28.448 96.7051 28.6827 96.4437 28.864C96.1877 29.04 95.8731 29.128 95.4997 29.128ZM95.5477 28.816C95.7771 28.816 95.9664 28.744 96.1157 28.6C96.2651 28.456 96.3824 28.264 96.4677 28.024C96.5584 27.784 96.6224 27.52 96.6597 27.232C96.6971 26.9387 96.7157 26.6453 96.7157 26.352C96.7157 26.0267 96.6971 25.7013 96.6597 25.376C96.6224 25.0507 96.5584 24.752 96.4677 24.48C96.3771 24.208 96.2544 23.9893 96.0997 23.824C95.9451 23.6587 95.7504 23.576 95.5157 23.576C95.2864 23.576 95.0917 23.648 94.9317 23.792C94.7771 23.936 94.6517 24.128 94.5557 24.368C94.4597 24.608 94.3904 24.8747 94.3477 25.168C94.3051 25.4613 94.2837 25.7573 94.2837 26.056C94.2837 26.28 94.2944 26.5173 94.3157 26.768C94.3371 27.0187 94.3744 27.2667 94.4277 27.512C94.4864 27.752 94.5637 27.9707 94.6597 28.168C94.7557 28.3653 94.8757 28.5227 95.0197 28.64C95.1637 28.7573 95.3397 28.816 95.5477 28.816ZM98.2938 29C98.2938 28.7173 98.3364 28.4667 98.4218 28.248C98.5124 28.0293 98.6324 27.8293 98.7818 27.648C98.9311 27.4613 99.0991 27.2827 99.2858 27.112C99.4778 26.936 99.6724 26.752 99.8698 26.56C100.216 26.2293 100.467 25.9227 100.622 25.64C100.776 25.3573 100.854 25.0853 100.854 24.824C100.854 24.6213 100.824 24.4267 100.766 24.24C100.712 24.048 100.614 23.8907 100.47 23.768C100.326 23.6453 100.126 23.584 99.8698 23.584C99.6511 23.584 99.4564 23.64 99.2858 23.752C99.1151 23.8587 99.0004 23.992 98.9418 24.152C98.9951 24.2053 99.0324 24.264 99.0538 24.328C99.0751 24.3867 99.0858 24.4453 99.0858 24.504C99.0858 24.552 99.0724 24.6053 99.0458 24.664C99.0244 24.7227 98.9844 24.7733 98.9258 24.816C98.8671 24.8587 98.7898 24.88 98.6938 24.88C98.5764 24.8747 98.4858 24.8293 98.4218 24.744C98.3578 24.6587 98.3258 24.5573 98.3258 24.44C98.3258 24.328 98.3604 24.2053 98.4298 24.072C98.4991 23.9333 98.6031 23.8053 98.7418 23.688C98.8858 23.5653 99.0618 23.4667 99.2698 23.392C99.4778 23.312 99.7204 23.272 99.9978 23.272C100.211 23.272 100.416 23.2987 100.614 23.352C100.816 23.4 100.998 23.48 101.158 23.592C101.318 23.704 101.443 23.8533 101.534 24.04C101.63 24.2213 101.678 24.448 101.678 24.72C101.678 24.8533 101.648 24.9973 101.59 25.152C101.536 25.3067 101.446 25.4747 101.318 25.656C101.195 25.832 101.035 26.0213 100.838 26.224C100.64 26.4213 100.398 26.6373 100.11 26.872C99.7471 27.1707 99.4484 27.4533 99.2138 27.72C98.9844 27.9813 98.8511 28.2053 98.8138 28.392L100.23 28.432C100.491 28.4373 100.72 28.4373 100.918 28.432C101.12 28.4267 101.278 28.3867 101.39 28.312C101.507 28.232 101.566 28.088 101.566 27.88H101.806L101.758 29H98.2938ZM104.145 29.128C103.761 29.128 103.444 29.072 103.193 28.96C102.943 28.8427 102.756 28.6987 102.633 28.528C102.516 28.3573 102.457 28.1947 102.457 28.04C102.457 27.9173 102.489 27.816 102.553 27.736C102.617 27.6507 102.708 27.6053 102.825 27.6C102.921 27.5947 102.996 27.6133 103.049 27.656C103.108 27.6933 103.148 27.7413 103.169 27.8C103.191 27.8587 103.201 27.912 103.201 27.96C103.201 28.0133 103.193 28.0667 103.177 28.12C103.161 28.1733 103.14 28.2267 103.113 28.28C103.167 28.4613 103.287 28.592 103.473 28.672C103.665 28.752 103.871 28.792 104.089 28.792C104.468 28.792 104.769 28.688 104.993 28.48C105.223 28.272 105.337 27.9707 105.337 27.576C105.337 27.3413 105.3 27.12 105.225 26.912C105.151 26.6987 105.012 26.5253 104.809 26.392C104.607 26.2587 104.311 26.1973 103.921 26.208C103.879 26.208 103.833 26.2107 103.785 26.216C103.737 26.216 103.684 26.2187 103.625 26.224V25.864C103.684 25.864 103.74 25.864 103.793 25.864C103.847 25.864 103.9 25.864 103.953 25.864C104.236 25.864 104.457 25.8 104.617 25.672C104.777 25.544 104.892 25.392 104.961 25.216C105.031 25.04 105.065 24.8773 105.065 24.728C105.065 24.5093 105.036 24.3147 104.977 24.144C104.924 23.968 104.828 23.832 104.689 23.736C104.551 23.6347 104.359 23.584 104.113 23.584C103.873 23.584 103.668 23.648 103.497 23.776C103.327 23.8987 103.22 24.0267 103.177 24.16C103.225 24.2133 103.257 24.2667 103.273 24.32C103.295 24.3733 103.305 24.4293 103.305 24.488C103.305 24.5307 103.292 24.5813 103.265 24.64C103.244 24.6933 103.207 24.7387 103.153 24.776C103.1 24.8133 103.028 24.832 102.937 24.832C102.825 24.832 102.74 24.792 102.681 24.712C102.623 24.632 102.593 24.536 102.593 24.424C102.593 24.2747 102.652 24.112 102.769 23.936C102.887 23.7547 103.065 23.6 103.305 23.472C103.551 23.3387 103.857 23.272 104.225 23.272C104.513 23.272 104.78 23.3173 105.025 23.408C105.271 23.4987 105.468 23.648 105.617 23.856C105.767 24.0587 105.841 24.328 105.841 24.664C105.841 24.8293 105.799 24.9973 105.713 25.168C105.633 25.3333 105.497 25.488 105.305 25.632C105.119 25.776 104.86 25.8987 104.529 26C105.036 26.0533 105.433 26.216 105.721 26.488C106.015 26.76 106.161 27.104 106.161 27.52C106.161 27.8827 106.065 28.184 105.873 28.424C105.687 28.6587 105.439 28.8347 105.129 28.952C104.825 29.0693 104.497 29.128 104.145 29.128Z" fill="#272726"/>
</svg>
