<svg width="114" height="32" viewBox="0 0 114 32" fill="none" xmlns="http://www.w3.org/2000/svg">
<path d="M82.1672 28.7341C80.0942 24.7961 79.7242 20.3061 83.1362 17.0851C87.2022 13.2471 91.8162 16.2451 95.1622 19.1901C97.6302 21.3631 100.152 23.5301 103.445 24.2811C108.127 25.3491 113.25 22.6731 113.876 17.6591C114.235 14.7851 112.571 10.2311 108.865 11.4011C105.973 12.3141 104.549 16.5871 108.093 17.3611C108.453 17.4391 108.667 16.9631 108.345 16.7621C105.284 14.8501 109.046 11.2121 111.703 13.1201C113.486 14.4001 112.965 18.2571 112.161 19.7991C109.832 24.2611 104.233 24.0581 100.444 21.9771C96.3582 19.7321 93.3972 14.5211 88.4332 13.9381C79.6802 12.9111 78.2732 23.4491 81.3762 29.1951C81.6582 29.7141 82.4412 29.2541 82.1672 28.7341Z" fill="#C18742"/>
<path d="M33.0698 29.1956C36.2378 23.3286 34.7278 13.0786 26.0128 13.9386C21.3068 14.4026 18.3648 19.3196 14.6298 21.5836C10.7728 23.9216 4.78377 24.5336 2.28477 19.8006C1.47677 18.2696 0.96278 14.3886 2.74278 13.1216C4.57778 11.8146 9.90778 14.3856 6.10078 16.7636C5.78078 16.9636 5.99078 17.4416 6.35278 17.3626C9.77678 16.6146 8.59478 12.7466 5.87378 11.5666C2.10778 9.93362 0.194776 14.6586 0.569776 17.6606C1.15378 22.3406 5.78077 25.1346 10.2848 24.4496C13.5888 23.9466 16.3298 21.8396 18.7518 19.6786C19.9178 18.6386 21.1178 17.2216 22.4968 16.4666C24.1498 15.5616 28.1758 14.8786 29.8698 15.7266C34.9148 18.2526 34.4698 24.5726 32.2788 28.7346C32.0068 29.2546 32.7888 29.7156 33.0698 29.1956Z" fill="#C18742"/>
<path d="M58.3633 23.2222C56.3163 16.0872 52.9363 7.66918 57.6303 0.97018C57.2563 0.97018 56.8823 0.97018 56.5083 0.97018C60.4493 7.59218 60.1693 16.2002 57.3053 23.1742C56.9923 23.9352 58.2303 24.2662 58.5393 23.5142C61.5363 16.2332 61.7283 7.21419 57.6293 0.314189C57.3653 -0.130811 56.7823 -0.077811 56.5073 0.314189C51.9113 6.86319 54.0643 16.8632 57.5273 23.5742C57.7663 24.0372 58.5053 23.7162 58.3633 23.2222Z" fill="#C18742"/>
<path d="M53.1617 25.7353C46.7497 22.0023 38.2468 18.6643 36.9018 10.5083C36.6358 10.7743 36.3688 11.0413 36.1028 11.3073C43.4508 13.1003 49.5007 19.4413 52.3147 26.3003C52.6227 27.0513 53.8608 26.7233 53.5488 25.9603C50.5688 18.6783 44.2657 11.9693 36.4488 10.0553C35.9318 9.92826 35.5698 10.3703 35.6498 10.8543C36.3508 15.1253 38.1227 17.2333 41.4287 19.9703C44.7387 22.7103 48.6417 25.3923 52.8107 26.5713C53.3077 26.7113 53.6107 25.9963 53.1617 25.7353Z" fill="#C18742"/>
<path d="M63.349 26.9635C67.082 20.5515 70.42 12.0485 78.576 10.7035C78.309 10.4375 78.043 10.1705 77.777 9.90452C75.984 17.2525 69.6429 23.3025 62.7839 26.1165C62.0329 26.4245 62.3609 27.6635 63.1239 27.3505C70.4059 24.3705 77.1149 18.0675 79.0289 10.2505C79.1549 9.73351 78.714 9.37151 78.23 9.45151C73.959 10.1525 71.851 11.9245 69.114 15.2305C66.374 18.5405 63.692 22.4435 62.513 26.6125C62.372 27.1105 63.087 27.4135 63.349 26.9635Z" fill="#C18742"/>
<path d="M56.4018 25.8791C55.1528 26.9701 54.8708 29.1531 55.9098 30.4831C56.8668 31.7071 58.7418 31.7821 59.9918 30.9701C61.4708 30.0091 61.7478 27.8331 60.8148 26.3921C59.8678 24.9301 57.4518 24.7372 56.2888 26.0622C55.9668 26.4292 56.2678 27.1191 56.7998 26.9401C57.8278 26.5961 59.0728 25.8252 59.8258 27.0852C60.3938 28.0342 60.1668 29.5051 59.1358 30.0261C58.3608 30.4181 57.2388 30.3572 56.7708 29.5362C56.2218 28.5742 56.5728 27.3192 57.1908 26.4882C57.5498 26.0062 56.8058 25.5261 56.4018 25.8791Z" fill="#C18742"/>
</svg>
