<svg width="218" height="3" viewBox="0 0 218 3" fill="none" xmlns="http://www.w3.org/2000/svg">
<path d="M1.44046 2.52655C6.38846 1.40955 12.2595 2.08555 17.3025 2.08655C21.9465 2.08755 26.5904 2.08956 31.2344 2.09056C39.8074 2.09356 48.3814 2.09556 56.9544 2.09856C74.8154 2.10456 92.6765 2.11955 110.537 2.15155C146.222 2.21555 182.035 3.11056 217.704 2.03856C218.069 2.02756 218.069 1.48256 217.704 1.47156C182.035 0.398557 146.222 1.29456 110.537 1.35756C92.6765 1.38956 74.8154 1.40555 56.9544 1.41055C48.3814 1.41355 39.8074 1.41555 31.2344 1.41855C26.9474 1.41955 22.6614 1.42156 18.3744 1.42256C12.9874 1.42456 6.70546 2.17255 1.44046 0.98355C0.151455 0.69255 0.143455 2.81955 1.44046 2.52655Z" fill="#C18742"/>
</svg>
