<svg width="120" height="15" viewBox="0 0 120 15" fill="none" xmlns="http://www.w3.org/2000/svg">
<path fill-rule="evenodd" clip-rule="evenodd" d="M117.719 7.369C116.125 8.704 110.804 13.99 109.298 13.99C107.793 13.99 102.472 8.704 100.878 7.369C100.493 7.047 100.157 6.655 99.8473 6.257C99.2803 5.529 99.0013 4.717 99.4803 3.84C99.8653 3.136 100.902 2.937 102.039 3.285C102.961 3.567 103.744 4.07599 104.413 4.75999C104.913 5.26999 105.395 5.79899 105.873 6.30499C106.458 6.18399 106.253 5.734 106.345 5.442C106.454 5.099 106.513 4.74 106.602 4.39C106.897 3.233 108.059 1 109.297 1C110.535 1 111.698 3.233 111.993 4.39C112.082 4.741 112.141 5.1 112.25 5.442C112.342 5.734 112.136 6.18399 112.722 6.30499C113.2 5.79899 113.682 5.26999 114.182 4.75999C114.851 4.07599 115.634 3.567 116.556 3.285C117.693 2.937 118.73 3.136 119.115 3.84C119.594 4.717 119.315 5.529 118.748 6.257C118.44 6.655 118.103 7.048 117.719 7.369ZM103.156 5.345C102.5 4.714 101.694 4.18 100.696 4.505C100.445 5.178 100.804 5.57101 101.169 5.90401C102.757 7.35301 104.369 8.776 105.973 10.209C106.099 10.123 106.225 10.036 106.35 9.951C105.964 7.974 104.525 6.664 103.156 5.345ZM109.298 1.948C107.24 4.101 107.304 6.794 107.618 9.524C107.668 9.961 107.751 10.397 107.851 10.863C108.022 11.22 108.16 11.608 108.329 11.916C108.607 12.419 108.917 12.851 109.298 13.252C109.679 12.851 109.989 12.419 110.267 11.916C110.437 11.608 110.574 11.221 110.745 10.863C110.846 10.397 110.929 9.961 110.979 9.524C111.292 6.794 111.357 4.101 109.298 1.948ZM117.9 4.505C116.903 4.18101 116.096 4.714 115.44 5.345C114.071 6.664 112.632 7.974 112.246 9.95C112.371 10.035 112.498 10.122 112.624 10.208C114.227 8.77499 115.839 7.352 117.428 5.903C117.791 5.57 118.151 5.178 117.9 4.505Z" fill="#1D262D"/>
<path fill-rule="evenodd" clip-rule="evenodd" d="M97.3594 7.80376C97.2744 7.92576 97.1884 8.04975 97.1024 8.17175C96.4604 7.87475 95.8324 7.53475 95.1714 7.28775C94.2224 6.93375 93.2655 6.44875 92.2835 6.36775C86.5336 5.89075 80.7928 5.84474 75.1619 7.38174C73.199 7.91774 71.268 8.57175 69.3171 9.15475C65.2712 10.3638 61.2023 11.5027 56.9584 11.7337C55.0034 11.8387 53.0315 11.8517 51.0785 11.7247C49.4546 11.6197 47.8836 11.9127 46.3127 12.1107C41.8628 12.6697 37.4539 12.5188 33.059 11.7178C29.2671 11.0268 25.4882 10.2718 21.6993 9.56676C16.8244 8.66076 11.9105 8.12376 6.94665 8.16176C5.93467 8.16876 4.9107 8.26875 3.91273 8.44576C3.04874 8.59976 2.25576 8.98776 1.71378 9.74576C1.37878 10.2118 1.39579 10.6978 1.75378 11.1458C2.34077 11.8758 3.16173 12.1858 4.03571 12.2948C5.46568 12.4738 6.78664 12.1747 7.87262 11.1467C8.08361 10.9467 8.28461 10.7318 8.5146 10.5578C9.52058 9.79675 10.5996 9.60675 11.7975 10.1017C12.6385 10.4487 13.0335 11.4777 12.5215 12.2188C12.3195 12.5107 12.0475 12.7877 11.7475 12.9727C8.6486 14.8877 4.93671 15.4268 1.4958 13.0448C1.1418 12.7998 0.811798 12.4987 0.536804 12.1667C-0.164177 11.3197 -0.19117 10.2198 0.520813 9.36775C1.67478 7.98875 3.13274 7.07875 4.9167 6.71475C6.83765 6.32175 8.7496 5.89675 10.6695 5.49675C12.3915 5.13875 13.9575 4.50475 15.4684 3.53975C19.5733 0.920749 24.1502 -0.0782548 28.9931 0.00474524C33.811 0.0867452 38.5639 0.679757 43.2827 1.63576C50.5126 3.09876 57.8304 3.68575 65.1992 3.59775C66.4191 3.58275 67.6411 3.28074 68.8501 3.04974C70.992 2.64174 73.116 2.13576 75.2629 1.76276C78.7568 1.15476 82.2238 1.36875 85.6367 2.33575C89.0806 3.31075 92.3445 4.73075 95.4884 6.43175C96.1684 6.79975 96.8924 7.15376 97.3594 7.80376ZM67.3971 8.23074C59.3633 8.94774 51.3215 9.24575 43.2467 8.76775C51.3415 11.0587 59.4083 11.2977 67.3971 8.23074ZM11.7445 6.59074C13.9765 6.88574 15.8404 7.11275 17.6994 7.38075C22.0843 8.01475 26.3882 9.04876 30.7111 9.99576C34.687 10.8668 38.7008 11.4988 42.7937 11.3878C43.2747 11.3738 43.7527 11.2848 44.2317 11.2298C44.2507 11.0958 44.2697 10.9628 44.2887 10.8288C43.1698 10.5508 42.0218 10.3548 40.9388 9.97176C39.7818 9.56176 38.6899 8.97076 37.5639 8.46776C37.2339 8.32076 36.8909 8.19776 36.5469 8.08376C34.687 7.46876 32.814 6.89375 30.967 6.24675C26.4892 4.67675 21.9193 4.22775 17.2424 5.06175C15.4814 5.37375 13.7105 5.67774 11.7445 6.59074ZM60.4693 4.75075C60.3423 4.71275 60.2143 4.64075 60.0873 4.64075C53.6605 4.62975 47.3396 3.72675 41.0418 2.52075C36.3899 1.63075 31.679 1.22975 26.9331 1.46675C24.5962 1.58275 22.3213 2.03975 20.1163 2.82675C19.9523 2.88575 19.8303 3.06176 19.5843 3.27376C19.9333 3.35876 20.1293 3.45975 20.3193 3.44875C24.7412 3.19975 29.0201 3.92375 33.166 5.41475C35.3119 6.18775 37.5139 6.56374 39.7698 6.72874C40.4228 6.77574 41.0768 6.81874 41.7298 6.86674C47.1276 7.26274 52.4825 7.00476 57.7724 5.79076C58.6833 5.58276 59.5813 5.32075 60.4853 5.08475C60.4803 4.97275 60.4753 4.86175 60.4693 4.75075ZM87.5176 4.15675C83.0007 2.65975 78.4009 2.43775 73.774 3.47975C69.1061 4.52975 64.4662 5.70475 59.8173 6.83675C59.6343 6.88175 59.4843 7.06576 59.2903 7.20676C59.4523 7.30176 59.5613 7.42075 59.6623 7.41475C63.3552 7.19475 67.0511 7.01975 70.716 6.45876C76.3839 5.59275 82.0607 4.78875 87.8226 4.99475C88.0736 5.00375 88.3266 4.93875 88.6266 4.90375C88.3646 4.32675 87.9076 4.28675 87.5176 4.15675Z" fill="#1D262D"/>
</svg>
