<svg width="184" height="38" viewBox="0 0 184 38" fill="none" xmlns="http://www.w3.org/2000/svg">
<path fill-rule="evenodd" clip-rule="evenodd" d="M183.028 16.069C182.97 15.232 182.598 14.538 182.039 13.951C181.389 13.264 180.235 13.274 179.437 13.922C178.752 14.479 178.742 15.109 179.402 16.008C179.448 16.071 179.516 16.119 179.572 16.173C179.917 16.504 180.273 16.821 180.228 17.374C180.178 18.03 179.995 18.608 179.499 19.081C178.427 20.103 177.215 20.74 175.69 20.812C171.626 21.005 167.778 20.273 164.166 18.354C162.484 17.461 160.725 16.712 159.053 15.805C156.24 14.276 153.216 13.741 150.071 13.815C149.233 13.837 148.541 13.618 147.8 13.298C146.637 12.796 145.444 12.3101 144.218 12.0101C141.109 11.2521 137.923 10.944 134.74 11.112C130.296 11.346 125.859 11.747 121.461 12.513C117.857 13.141 114.241 13.701 110.616 14.188C108.65 14.452 106.658 14.557 104.674 14.62C103.501 14.658 102.293 14.603 101.096 13.895C101.206 13.344 101.176 12.733 101.447 12.319C101.826 11.738 102.382 11.237 102.95 10.826C103.389 10.509 104.001 10.441 104.464 10.148C104.764 9.95902 105.071 9.58805 105.13 9.25505C105.221 8.75405 104.861 8.35503 104.41 8.12803C103.245 7.54403 101.837 7.80203 100.913 8.77503C100.186 9.54103 99.7273 10.463 99.4663 11.481C99.3123 12.077 99.1803 12.6791 99.0423 13.2601C98.0863 13.2421 97.6503 12.673 97.2763 12.052C96.8963 11.421 96.7733 10.735 96.8473 9.98902C97.0603 7.83702 98.4373 6.60203 100.198 5.66703C102.064 4.67603 103.846 4.61604 105.46 6.19004C105.63 6.35704 105.774 6.60102 105.98 6.67002C106.243 6.76002 106.648 6.82704 106.818 6.69004C106.99 6.55004 107.083 6.08705 106.983 5.87205C106.233 4.28005 104.011 3.15904 102.198 3.40104C99.2413 3.79604 96.4063 6.51104 95.8783 9.45304C95.4703 11.72 96.1743 13.393 98.2553 14.392C99.2723 14.88 99.8683 15.561 100.386 16.487C101.593 18.641 103.396 20.233 105.635 21.187C109.285 22.74 113.101 23.379 117.067 22.62C120.047 22.049 122.915 21.101 125.77 20.099C128.623 19.098 131.478 18.102 134.354 17.172C137.624 16.112 141.028 15.753 144.422 15.309C147.7 14.881 149.696 16.802 151.372 19.055C152.734 20.89 152.297 22.99 151.256 24.924C151.031 25.342 150.69 25.6931 150.436 26.0961C149.666 27.323 149.704 28.514 150.526 29.657C150.92 30.207 151.56 30.413 152.208 30.162C153.991 29.471 155.122 28.158 155.363 26.287C155.684 23.8 155.355 21.3701 154.102 19.1351C153.752 18.5111 153.381 17.895 152.964 17.317C152.566 16.766 152.096 16.267 151.469 15.52C152.069 15.536 152.361 15.512 152.643 15.555C155.13 15.932 157.321 17.096 159.487 18.262C160.937 19.042 161.829 20.348 162.325 21.948C163.772 26.607 161.606 31.343 158.78 33.59C155.532 36.17 150.886 36.189 147.748 33.549C145.79 31.902 144.602 30.1691 146.369 27.0961C146.409 27.0271 146.504 26.952 146.493 26.899C146.429 26.624 146.396 26.307 146.231 26.103C146.149 26 145.729 26.016 145.599 26.132C145.253 26.443 144.872 26.792 144.698 27.207C143.803 29.333 143.851 31.382 145.341 33.276C146.24 34.42 147.309 35.349 148.601 36.02C154.545 39.105 162.178 35.513 163.684 28.972C164.231 26.595 164.257 24.254 163.737 21.884C163.596 21.237 163.509 20.578 163.355 19.663C164.043 19.982 164.46 20.177 164.878 20.371C168.57 22.082 172.441 22.756 176.494 22.414C177.87 22.299 179.139 21.881 180.344 21.232C182.415 20.121 183.186 18.34 183.028 16.069ZM141.676 14.351C135.813 14.873 130.437 17.119 124.946 18.979C122.241 19.896 119.486 20.722 116.695 21.317C113.098 22.084 109.566 21.496 106.207 20.041C104.285 19.209 102.707 17.927 101.33 15.633C107.463 16.401 113.026 15.334 118.591 14.477C123.862 13.665 129.14 12.982 134.473 12.811C137.104 12.726 139.713 12.886 142.493 13.795C142.114 14.059 141.907 14.33 141.676 14.351Z" fill="#D3A374"/>
<path fill-rule="evenodd" clip-rule="evenodd" d="M80.8489 3.40104C79.0359 3.15904 76.8139 4.28005 76.0639 5.87205C75.9639 6.08705 76.0559 6.55004 76.2279 6.69004C76.3979 6.82704 76.8039 6.76002 77.0669 6.67002C77.2709 6.60002 77.4159 6.35704 77.5869 6.19004C79.2009 4.61604 80.9839 4.67603 82.8479 5.66703C84.6089 6.60203 85.9859 7.83702 86.1989 9.98902C86.2739 10.734 86.1509 11.421 85.7709 12.052C85.3959 12.673 84.9599 13.2421 84.0049 13.2601C83.8659 12.6791 83.7339 12.077 83.5809 11.481C83.3199 10.463 82.8609 9.54103 82.1329 8.77503C81.2089 7.80203 79.8009 7.54403 78.6359 8.12803C78.1839 8.35503 77.8249 8.75405 77.9159 9.25505C77.9749 9.58805 78.2809 9.95902 78.5809 10.148C79.0449 10.441 79.6559 10.508 80.0949 10.826C80.6629 11.237 81.2199 11.738 81.5989 12.319C81.8699 12.733 81.8399 13.344 81.9499 13.895C80.7529 14.602 79.5459 14.658 78.3729 14.62C76.3879 14.557 74.3959 14.452 72.4289 14.188C68.8049 13.701 65.1879 13.141 61.5839 12.513C57.1859 11.747 52.7499 11.346 48.3049 11.112C45.1219 10.944 41.9369 11.2521 38.8279 12.0101C37.5999 12.3101 36.4079 12.796 35.2439 13.298C34.5039 13.618 33.8129 13.837 32.9739 13.815C29.8279 13.741 26.8039 14.275 23.9909 15.805C22.3199 16.713 20.5599 17.461 18.8789 18.354C15.2649 20.273 11.4189 21.006 7.35393 20.812C5.82893 20.74 4.61893 20.104 3.54593 19.081C3.04993 18.608 2.86693 18.03 2.81693 17.374C2.77393 16.821 3.12893 16.504 3.47393 16.173C3.53093 16.118 3.59793 16.071 3.64493 16.008C4.30493 15.109 4.29293 14.479 3.60993 13.922C2.81193 13.274 1.65793 13.264 1.00793 13.951C0.449935 14.538 0.0769319 15.232 0.0199319 16.069C-0.138068 18.34 0.632935 20.121 2.70293 21.232C3.90893 21.881 5.17693 22.298 6.55193 22.414C10.6069 22.755 14.4769 22.082 18.1699 20.371C18.5879 20.178 19.0049 19.983 19.6919 19.663C19.5369 20.578 19.4519 21.237 19.3099 21.884C18.7899 24.254 18.8159 26.595 19.3629 28.972C20.8699 35.514 28.5029 39.106 34.4459 36.02C35.7389 35.349 36.8079 34.419 37.7059 33.276C39.1969 31.382 39.2439 29.333 38.3489 27.207C38.1749 26.792 37.7939 26.443 37.4479 26.132C37.3179 26.016 36.8989 26.001 36.8159 26.103C36.6509 26.308 36.6189 26.625 36.5539 26.899C36.5419 26.952 36.6389 27.0271 36.6779 27.0961C38.4449 30.1681 37.2569 31.901 35.2989 33.549C32.1599 36.189 27.5139 36.17 24.2669 33.59C21.4419 31.343 19.2749 26.607 20.7219 21.948C21.2179 20.348 22.1099 19.042 23.5599 18.262C25.7269 17.095 27.9169 15.932 30.4029 15.555C30.6859 15.512 30.9779 15.536 31.5789 15.52C30.9509 16.267 30.4799 16.766 30.0829 17.317C29.6659 17.895 29.2939 18.5111 28.9449 19.1351C27.6919 21.3701 27.3619 23.8 27.6839 26.287C27.9259 28.158 29.0559 29.471 30.8389 30.162C31.4859 30.413 32.1259 30.207 32.5209 29.657C33.3429 28.514 33.3799 27.323 32.6109 26.0961C32.3579 25.6931 32.0149 25.342 31.7909 24.924C30.7509 22.99 30.3119 20.889 31.6749 19.055C33.3509 16.802 35.3479 14.881 38.6259 15.309C42.0189 15.753 45.4229 16.113 48.6949 17.172C51.5699 18.102 54.4249 19.098 57.2789 20.099C60.1339 21.1 63.0009 22.049 65.9809 22.62C69.9479 23.38 73.7629 22.74 77.4139 21.187C79.6509 20.233 81.4539 18.642 82.6619 16.487C83.1809 15.561 83.7769 14.88 84.7929 14.392C86.8739 13.393 87.5769 11.72 87.1699 9.45304C86.6399 6.51104 83.8039 3.79604 80.8489 3.40104ZM76.8399 20.0401C73.4799 21.496 69.9479 22.0831 66.3509 21.3161C63.5599 20.7211 60.8049 19.895 58.1009 18.978C52.6099 17.118 47.2319 14.872 41.3709 14.35C41.1399 14.329 40.9309 14.058 40.5549 13.793C43.3339 12.884 45.9419 12.725 48.5739 12.809C53.9079 12.98 59.1849 13.663 64.4569 14.475C70.0219 15.331 75.5849 16.399 81.7179 15.631C80.3399 17.926 78.7619 19.2091 76.8399 20.0401Z" fill="#D3A374"/>
<path fill-rule="evenodd" clip-rule="evenodd" d="M91.523 0C90.107 0 88.959 3.085 88.959 6.892C88.959 10.699 91.523 13.784 91.523 13.784C91.523 13.784 94.088 10.699 94.088 6.892C94.088 3.085 92.94 0 91.523 0Z" fill="#D3A374"/>
</svg>
