<svg width="184" height="38" viewBox="0 0 184 38" fill="none" xmlns="http://www.w3.org/2000/svg">
<path fill-rule="evenodd" clip-rule="evenodd" d="M183.028 16.0681C182.97 15.2311 182.598 14.5371 182.039 13.9501C181.389 13.2631 180.235 13.2731 179.437 13.9211C178.752 14.4781 178.742 15.1081 179.402 16.0071C179.448 16.0701 179.516 16.1181 179.572 16.1721C179.917 16.5031 180.273 16.8201 180.228 17.3731C180.178 18.0291 179.995 18.6071 179.499 19.0801C178.427 20.1021 177.215 20.739 175.69 20.811C171.626 21.004 167.778 20.2721 164.166 18.3531C162.484 17.4601 160.725 16.7111 159.053 15.8041C156.24 14.2751 153.216 13.7401 150.071 13.8141C149.233 13.8361 148.541 13.6171 147.8 13.2971C146.637 12.7951 145.444 12.3091 144.218 12.0091C141.109 11.2511 137.923 10.9431 134.74 11.1111C130.296 11.3451 125.859 11.7461 121.461 12.5121C117.857 13.1401 114.241 13.7001 110.616 14.1871C108.65 14.4511 106.658 14.5561 104.674 14.6191C103.501 14.6571 102.293 14.6021 101.096 13.8941C101.206 13.3431 101.176 12.7321 101.447 12.3181C101.826 11.7371 102.382 11.2361 102.95 10.8251C103.389 10.5081 104.001 10.44 104.464 10.147C104.764 9.95804 105.071 9.58707 105.13 9.25407C105.221 8.75307 104.861 8.35406 104.41 8.12706C103.245 7.54306 101.837 7.80106 100.913 8.77406C100.186 9.54006 99.7273 10.4621 99.4663 11.4801C99.3123 12.0761 99.1803 12.6781 99.0423 13.2591C98.0863 13.2411 97.6503 12.6721 97.2763 12.0511C96.8963 11.4201 96.7733 10.734 96.8473 9.98805C97.0603 7.83605 98.4373 6.60106 100.198 5.66606C102.064 4.67506 103.846 4.61507 105.46 6.18907C105.63 6.35607 105.774 6.60005 105.98 6.66905C106.243 6.75905 106.648 6.82607 106.818 6.68907C106.99 6.54907 107.083 6.08607 106.983 5.87107C106.233 4.27907 104.011 3.15807 102.198 3.40007C99.2413 3.79507 96.4063 6.51007 95.8783 9.45207C95.4703 11.7191 96.1743 13.3921 98.2553 14.3911C99.2723 14.8791 99.8683 15.5601 100.386 16.4861C101.593 18.6401 103.396 20.232 105.635 21.186C109.285 22.739 113.101 23.3781 117.067 22.6191C120.047 22.0481 122.915 21.1001 125.77 20.0981C128.623 19.0971 131.478 18.1011 134.354 17.1711C137.624 16.1111 141.028 15.7521 144.422 15.3081C147.7 14.8801 149.696 16.8011 151.372 19.0541C152.734 20.8891 152.297 22.989 151.256 24.923C151.031 25.341 150.69 25.6921 150.436 26.0951C149.666 27.3221 149.704 28.513 150.526 29.656C150.92 30.206 151.56 30.4121 152.208 30.1611C153.991 29.4701 155.122 28.1571 155.363 26.2861C155.684 23.7991 155.355 21.3691 154.102 19.1341C153.752 18.5101 153.381 17.8941 152.964 17.3161C152.566 16.7651 152.096 16.2661 151.469 15.5191C152.069 15.5351 152.361 15.5111 152.643 15.5541C155.13 15.9311 157.321 17.0951 159.487 18.2611C160.937 19.0411 161.829 20.3471 162.325 21.9471C163.772 26.6061 161.606 31.3421 158.78 33.5891C155.532 36.1691 150.886 36.188 147.748 33.548C145.79 31.901 144.602 30.1681 146.369 27.0951C146.409 27.0261 146.504 26.9511 146.493 26.8981C146.429 26.6231 146.396 26.3061 146.231 26.1021C146.149 25.9991 145.729 26.0151 145.599 26.1311C145.253 26.4421 144.872 26.7911 144.698 27.2061C143.803 29.3321 143.851 31.3811 145.341 33.2751C146.24 34.4191 147.309 35.3481 148.601 36.0191C154.545 39.1041 162.178 35.5121 163.684 28.9711C164.231 26.594 164.257 24.2531 163.737 21.8831C163.596 21.2361 163.509 20.5771 163.355 19.6621C164.043 19.9811 164.46 20.1761 164.878 20.3701C168.57 22.0811 172.441 22.7551 176.494 22.4131C177.87 22.2981 179.139 21.8801 180.344 21.2311C182.415 20.1201 183.186 18.3391 183.028 16.0681ZM141.676 14.35C135.813 14.872 130.437 17.1181 124.946 18.9781C122.241 19.8951 119.486 20.7211 116.695 21.3161C113.098 22.0831 109.566 21.4951 106.207 20.0401C104.285 19.2081 102.707 17.9261 101.33 15.6321C107.463 16.4001 113.026 15.3331 118.591 14.4761C123.862 13.6641 129.14 12.9811 134.473 12.8101C137.104 12.7251 139.713 12.885 142.493 13.794C142.114 14.058 141.907 14.329 141.676 14.35Z" fill="#DDDDDD"/>
<path fill-rule="evenodd" clip-rule="evenodd" d="M80.8489 3.40007C79.0359 3.15807 76.8139 4.27907 76.0639 5.87107C75.9639 6.08607 76.0559 6.54907 76.2279 6.68907C76.3979 6.82607 76.8039 6.75905 77.0669 6.66905C77.2709 6.59905 77.4159 6.35607 77.5869 6.18907C79.2009 4.61507 80.9839 4.67506 82.8479 5.66606C84.6089 6.60106 85.9859 7.83605 86.1989 9.98805C86.2739 10.733 86.1509 11.4201 85.7709 12.0511C85.3959 12.6721 84.9599 13.2411 84.0049 13.2591C83.8659 12.6781 83.7339 12.0761 83.5809 11.4801C83.3199 10.4621 82.8609 9.54006 82.1329 8.77406C81.2089 7.80106 79.8009 7.54306 78.6359 8.12706C78.1839 8.35406 77.8249 8.75307 77.9159 9.25407C77.9749 9.58707 78.2809 9.95804 78.5809 10.147C79.0449 10.44 79.6559 10.5071 80.0949 10.8251C80.6629 11.2361 81.2199 11.7371 81.5989 12.3181C81.8699 12.7321 81.8399 13.3431 81.9499 13.8941C80.7529 14.6011 79.5459 14.6571 78.3729 14.6191C76.3879 14.5561 74.3959 14.4511 72.4289 14.1871C68.8049 13.7001 65.1879 13.1401 61.5839 12.5121C57.1859 11.7461 52.7499 11.3451 48.3049 11.1111C45.1219 10.9431 41.9369 11.2511 38.8279 12.0091C37.5999 12.3091 36.4079 12.7951 35.2439 13.2971C34.5039 13.6171 33.8129 13.8361 32.9739 13.8141C29.8279 13.7401 26.8039 14.2741 23.9909 15.8041C22.3199 16.7121 20.5599 17.4601 18.8789 18.3531C15.2649 20.2721 11.4189 21.005 7.35393 20.811C5.82893 20.739 4.61893 20.1031 3.54593 19.0801C3.04993 18.6071 2.86693 18.0291 2.81693 17.3731C2.77393 16.8201 3.12893 16.5031 3.47393 16.1721C3.53093 16.1171 3.59793 16.0701 3.64493 16.0071C4.30493 15.1081 4.29293 14.4781 3.60993 13.9211C2.81193 13.2731 1.65793 13.2631 1.00793 13.9501C0.449935 14.5371 0.0769319 15.2311 0.0199319 16.0681C-0.138068 18.3391 0.632935 20.1201 2.70293 21.2311C3.90893 21.8801 5.17693 22.2971 6.55193 22.4131C10.6069 22.7541 14.4769 22.0811 18.1699 20.3701C18.5879 20.1771 19.0049 19.9821 19.6919 19.6621C19.5369 20.5771 19.4519 21.2361 19.3099 21.8831C18.7899 24.2531 18.8159 26.594 19.3629 28.9711C20.8699 35.5131 28.5029 39.1051 34.4459 36.0191C35.7389 35.3481 36.8079 34.4181 37.7059 33.2751C39.1969 31.3811 39.2439 29.3321 38.3489 27.2061C38.1749 26.7911 37.7939 26.4421 37.4479 26.1311C37.3179 26.0151 36.8989 26.0001 36.8159 26.1021C36.6509 26.3071 36.6189 26.6241 36.5539 26.8981C36.5419 26.9511 36.6389 27.0261 36.6779 27.0951C38.4449 30.1671 37.2569 31.9 35.2989 33.548C32.1599 36.188 27.5139 36.1691 24.2669 33.5891C21.4419 31.3421 19.2749 26.6061 20.7219 21.9471C21.2179 20.3471 22.1099 19.0411 23.5599 18.2611C25.7269 17.0941 27.9169 15.9311 30.4029 15.5541C30.6859 15.5111 30.9779 15.5351 31.5789 15.5191C30.9509 16.2661 30.4799 16.7651 30.0829 17.3161C29.6659 17.8941 29.2939 18.5101 28.9449 19.1341C27.6919 21.3691 27.3619 23.7991 27.6839 26.2861C27.9259 28.1571 29.0559 29.4701 30.8389 30.1611C31.4859 30.4121 32.1259 30.206 32.5209 29.656C33.3429 28.513 33.3799 27.3221 32.6109 26.0951C32.3579 25.6921 32.0149 25.341 31.7909 24.923C30.7509 22.989 30.3119 20.8881 31.6749 19.0541C33.3509 16.8011 35.3479 14.8801 38.6259 15.3081C42.0189 15.7521 45.4229 16.1121 48.6949 17.1711C51.5699 18.1011 54.4249 19.0971 57.2789 20.0981C60.1339 21.0991 63.0009 22.0481 65.9809 22.6191C69.9479 23.3791 73.7629 22.739 77.4139 21.186C79.6509 20.232 81.4539 18.6411 82.6619 16.4861C83.1809 15.5601 83.7769 14.8791 84.7929 14.3911C86.8739 13.3921 87.5769 11.7191 87.1699 9.45207C86.6399 6.51007 83.8039 3.79507 80.8489 3.40007ZM76.8399 20.0391C73.4799 21.4951 69.9479 22.0821 66.3509 21.3151C63.5599 20.7201 60.8049 19.8941 58.1009 18.9771C52.6099 17.1171 47.2319 14.8711 41.3709 14.3491C41.1399 14.3281 40.9309 14.0571 40.5549 13.7921C43.3339 12.8831 45.9419 12.7241 48.5739 12.8081C53.9079 12.9791 59.1849 13.6621 64.4569 14.4741C70.0219 15.3301 75.5849 16.398 81.7179 15.63C80.3399 17.925 78.7619 19.2081 76.8399 20.0391Z" fill="#DDDDDD"/>
<path fill-rule="evenodd" clip-rule="evenodd" d="M91.523 0C90.107 0 88.959 3.085 88.959 6.892C88.959 10.699 91.523 13.784 91.523 13.784C91.523 13.784 94.088 10.699 94.088 6.892C94.088 3.085 92.94 0 91.523 0Z" fill="#DDDDDD"/>
</svg>
