<svg width="136" height="1" viewBox="0 0 136 1" fill="none" xmlns="http://www.w3.org/2000/svg">
<path d="M0.606353 0.97783C3.70017 0.286228 7.3711 0.704779 10.5243 0.705398C13.4281 0.706017 16.3318 0.707264 19.2355 0.707883C24.5959 0.70974 29.9569 0.710976 35.3174 0.712833C46.4852 0.716548 57.6531 0.725832 68.821 0.745645C91.1336 0.785271 113.526 1.33943 135.829 0.675685C136.057 0.668874 136.057 0.331431 135.829 0.32462C113.526 -0.339739 91.1336 0.21503 68.821 0.254037C57.6531 0.27385 46.4852 0.283753 35.3174 0.286849C29.9569 0.288706 24.5959 0.289942 19.2355 0.291799C16.555 0.292418 13.8751 0.293665 11.1946 0.294284C7.82629 0.295522 3.89838 0.758648 0.606353 0.0224659C-0.199615 -0.15771 -0.204617 1.15924 0.606353 0.97783Z" fill="#D3A374"/>
</svg>
