<svg width="48" height="168" viewBox="0 0 48 168" fill="none" xmlns="http://www.w3.org/2000/svg">
<path d="M24.5176 146.627C20.1387 145.402 13.6353 143.473 5.00732 140.838C5.24853 148.464 5.72168 154.986 6.42676 160.404C6.42676 159.216 6.6958 157.472 7.23389 155.171C7.75342 152.871 8.94092 150.885 10.7964 149.215C12.856 147.378 16.1772 146.46 20.7603 146.46C21.9849 146.46 23.2373 146.516 24.5176 146.627ZM42.6084 149.716C42.6084 149.902 42.5806 150.05 42.5249 150.162C42.4692 150.273 42.3486 150.329 42.1631 150.329C39.3057 150.329 34.5464 149.41 27.8853 147.573C26.7349 147.443 25.7886 147.36 25.0464 147.323C24.2856 147.267 23.5249 147.239 22.7642 147.239C22.1333 147.239 21.3726 147.221 20.4819 147.184C16.1401 147.184 13.0322 148.009 11.1582 149.661C9.39551 151.442 8.33789 154.04 7.98535 157.454C7.63281 160.849 7.45654 163.929 7.45654 166.694C7.45654 166.972 7.28027 167.121 6.92773 167.139C6.59375 167.139 6.42676 166.991 6.42676 166.694L6.42676 166.638C5.29492 159.309 4.58057 150.635 4.28369 140.615C2.81787 140.17 1.82519 139.892 1.30566 139.78C0.841796 139.669 0.609862 139.381 0.609862 138.917C0.646971 138.454 0.906737 138.222 1.38916 138.222C1.57471 138.222 2.53027 138.537 4.25586 139.168C4.21875 137.591 4.20019 135.986 4.20019 134.353C4.20019 127.414 4.58056 121.114 5.34131 115.455C5.34131 115.232 5.46191 115.121 5.70312 115.121C5.85156 115.121 5.94433 115.158 5.98144 115.232C6.01855 115.307 6.03711 115.39 6.03711 115.483C5.29492 120.715 4.92383 126.783 4.92383 133.685C4.92383 135.541 4.95166 137.452 5.00732 139.418C13.8208 142.573 21.957 145.152 29.416 147.156C33.0898 147.694 37.4131 148.482 42.3857 149.521C42.4414 149.559 42.4878 149.586 42.5249 149.605C42.5435 149.624 42.5713 149.661 42.6084 149.716ZM25.937 133.629C22.7456 130.624 19.2109 127.618 15.333 124.612C9.91504 120.4 6.26904 118.294 4.39502 118.294C3.57861 118.294 3.17041 118.628 3.17041 119.296C3.17041 120.149 3.90332 121.226 5.36914 122.524C6.83496 123.805 8.74609 125.168 11.1025 126.616C13.4404 128.044 15.9639 129.399 18.6728 130.679C21.3818 131.941 23.8032 132.924 25.937 133.629ZM33.7578 134.882C33.7578 135.234 33.6558 135.522 33.4517 135.745C33.2476 135.967 33.0156 136.079 32.7559 136.079C30.4365 136.079 27.8018 135.615 24.8516 134.687C21.9014 133.741 18.9697 132.535 16.0566 131.069C13.1436 129.584 10.5366 128.007 8.23584 126.337C4.65478 123.758 2.77148 121.42 2.58594 119.324C2.58594 118.266 3.17969 117.737 4.36719 117.737C5.57324 117.737 7.22461 118.368 9.32129 119.63C11.3994 120.892 13.7002 122.534 16.2236 124.556C18.7471 126.56 21.3169 128.731 23.9331 131.069C26.0112 132.887 27.106 133.871 27.2173 134.019C29.3696 134.687 31.2344 135.021 32.8115 135.021C33.0527 135.002 33.1733 134.937 33.1733 134.826C33.1733 134.678 32.9971 134.427 32.6445 134.075C32.292 133.722 31.9116 133.379 31.5034 133.045C31.0767 132.711 30.7612 132.47 30.5571 132.321C28.646 130.855 27.6904 129.659 27.6904 128.731C27.6904 127.952 27.8945 127.432 28.3027 127.172C28.7109 126.913 29.2212 126.783 29.8335 126.783C30.2231 126.783 30.5664 126.792 30.8633 126.811L31.4756 126.838C31.7539 126.838 32.0322 126.811 32.3105 126.755C32.5146 126.718 32.6167 126.477 32.6167 126.031C32.6167 124.603 31.8745 122.302 30.3901 119.129L27.0225 112.922C27.0225 112.663 27.106 112.533 27.2729 112.533L27.4121 112.533C27.4863 112.533 27.5234 112.57 27.5234 112.644C27.7646 113.015 28.4326 114.212 29.5273 116.234C31.958 120.687 33.1733 123.953 33.1733 126.031C33.1362 126.681 32.9971 127.163 32.7559 127.479C32.5146 127.794 32.2178 128.007 31.8652 128.119C31.4941 128.211 31.0952 128.258 30.6685 128.258C30.4272 128.258 30.186 128.239 29.9448 128.202C29.7036 128.165 29.4717 128.146 29.249 128.146C29.0449 128.146 28.813 128.174 28.5532 128.23C28.3677 128.249 28.2749 128.416 28.2749 128.731C28.2749 129.232 28.5439 129.751 29.082 130.29C29.6201 130.828 30.3994 131.496 31.4199 132.293L32.8115 133.407C33.4424 133.982 33.7578 134.474 33.7578 134.882ZM27.9131 112.477C27.8945 111.995 27.7925 111.531 27.6069 111.085C27.4214 110.64 27.1338 110.417 26.7441 110.417C26.5586 110.417 26.4658 110.584 26.4658 110.918C26.4658 111.605 26.9482 112.125 27.9131 112.477ZM32.0044 110.807C32.0044 112.811 31.1602 113.859 29.4717 113.952C28.5439 113.952 27.7275 113.692 27.0225 113.173C26.3174 112.653 25.937 111.902 25.8813 110.918C25.8813 110.64 25.9556 110.39 26.104 110.167C26.2524 109.944 26.4658 109.833 26.7441 109.833C27.375 109.833 27.8203 110.148 28.0801 110.779C28.3398 111.41 28.4697 112.032 28.4697 112.644C28.7295 112.7 29.0356 112.728 29.3882 112.728C30.0005 112.728 30.4922 112.561 30.8633 112.227C31.2344 111.874 31.4199 111.401 31.4199 110.807C31.4199 109.397 31.2158 107.903 30.8076 106.326C30.3994 104.749 29.8613 103.144 29.1934 101.511C28.5254 99.8784 27.811 98.2456 27.0503 96.6128C27.0503 96.52 27.0688 96.4365 27.106 96.3623C27.1431 96.2695 27.2266 96.2231 27.3564 96.2231C27.3936 96.2231 27.4399 96.2417 27.4956 96.2788C27.5513 96.2974 27.5791 96.3252 27.5791 96.3623C27.6162 96.3994 27.8574 96.8911 28.3027 97.8374C28.748 98.7837 29.2583 99.9897 29.8335 101.456C30.4087 102.921 30.9189 104.489 31.3643 106.159C31.791 107.811 32.0044 109.36 32.0044 110.807ZM47.2285 81.6392C47.2285 79.2085 46.2451 76.9819 44.2783 74.9595C42.0703 72.7144 39.5376 70.9331 36.6802 69.6157C33.5259 68.1685 30.8447 67.4448 28.6367 67.4448C27.3008 67.4448 26.0947 67.8066 25.0186 68.5303C23.9424 69.2539 23.3208 70.3857 23.1538 71.9258L23.1538 72.3433C23.1538 73.8833 23.5898 75.813 24.4619 78.1323L25.8535 81.4165C30.8818 82.7895 34.9453 83.7173 38.0439 84.1997C35.2793 82.103 32.96 79.1714 31.0859 75.4048L30.084 73.4287C30.084 73.0762 30.2046 72.8999 30.4458 72.8999C30.7612 72.8999 30.9468 73.0298 31.0024 73.2895C31.1694 73.6792 31.3086 74.041 31.4199 74.375C31.6982 75.1357 32.0229 75.8779 32.394 76.6016C32.7466 77.3066 33.3589 78.2715 34.231 79.4961C35.6226 81.3887 37.2925 83.0122 39.2407 84.3667L41.2725 84.5059C41.4766 84.5059 41.5786 84.6172 41.5786 84.8398C41.5786 84.8955 41.5693 84.979 41.5508 85.0903C41.5322 85.2017 41.3838 85.2573 41.1055 85.2573L40.9106 85.2573C41.7642 85.7212 42.8311 85.9531 44.1113 85.9531C44.8535 85.9531 45.5308 85.6562 46.1431 85.0625C46.8667 84.3945 47.2285 83.2534 47.2285 81.6392ZM24.8516 81.0269C23.6269 78.8003 21.9849 76.3325 19.9253 73.6235C14.4702 66.4614 9.60888 62.8804 5.3413 62.8804C3.87548 62.8804 3.14257 63.3813 3.14257 64.3833C3.14257 66.1831 4.31152 68.0942 6.64941 70.1167C8.9873 72.2134 11.7427 74.1616 14.9155 75.9614C19.2202 78.355 22.5322 80.0435 24.8516 81.0269ZM47.7852 82.1401C47.7109 83.606 47.312 84.7007 46.5884 85.4243C45.8833 86.1665 45.0483 86.5376 44.0835 86.5376C42.5063 86.5376 40.9849 86.083 39.519 85.1738C32.3013 84.3018 21.2798 81.5742 6.45459 76.9912L3.64355 76.1562C3.21679 76.0449 3.00341 75.8037 3.00341 75.4326C3.00341 74.876 3.2539 74.5977 3.75488 74.5977C3.92187 74.5977 4.09814 74.6348 4.28369 74.709C5.61962 75.2471 8.12451 76.1099 11.7983 77.2974C15.4536 78.4849 18.8955 79.5332 22.124 80.4424C20.25 79.5703 18.0234 78.4106 15.4443 76.9634C12.8652 75.5161 10.6016 74.0596 8.65332 72.5937C6.70507 71.1094 5.19287 69.6436 4.11669 68.1963C3.09619 66.8604 2.58593 65.5708 2.58593 64.3276C2.58593 63.4556 2.91992 62.8062 3.58789 62.3794C4.12597 62.0454 4.78466 61.8784 5.56396 61.8784L5.78662 61.8784C8.42138 62.0269 10.917 63.0659 13.2734 64.9956C15.6299 66.9067 17.7544 69.124 19.647 71.6475C21.521 74.1523 22.6714 75.8037 23.0981 76.6016C22.7642 75.8408 22.5693 74.2822 22.5137 71.9258C22.5879 70.8867 22.8755 69.9126 23.3765 69.0034C23.8589 68.0942 24.564 67.3799 25.4917 66.8604C26.3081 66.3965 27.2915 66.1645 28.4419 66.1645C30.9468 66.1645 33.8413 66.9253 37.1255 68.4468C40.0757 69.8198 42.5806 71.6753 44.6401 74.0132C46.7183 76.3325 47.7666 79.0415 47.7852 82.1401ZM25.0464 58.9839C25.0464 59.2808 25.2227 59.6055 25.5752 59.958C25.9092 60.3105 26.2432 60.4868 26.5771 60.4868L26.6328 60.4868C26.4287 60.1714 26.1411 59.8374 25.77 59.4849C25.4175 59.1509 25.1763 58.9839 25.0464 58.9839ZM33.7856 59.29C33.7856 60.6816 33.3125 61.396 32.3662 61.4331C31.7539 61.4331 31.0767 61.2197 30.3345 60.793C29.7778 60.4961 29.3325 60.3477 28.9985 60.3477C28.7573 60.3477 28.4883 60.4775 28.1914 60.7373C27.6533 61.1641 27.1152 61.3774 26.5771 61.3774C25.9834 61.3774 25.4917 61.1084 25.102 60.5703C24.7124 60.0137 24.499 59.4941 24.4619 59.0117C24.4619 58.8262 24.5269 58.6777 24.6567 58.5664C24.7681 58.4365 24.8979 58.3716 25.0464 58.3716C25.2319 58.3716 25.4453 58.4644 25.6865 58.6499C26.1318 58.9653 26.6421 59.5127 27.2173 60.292C27.4956 60.1436 27.7554 59.958 27.9966 59.7353C28.4419 59.3457 28.8408 59.1509 29.1934 59.1509C29.583 59.1509 30.0469 59.2993 30.585 59.5962C31.3643 59.9487 31.9951 60.125 32.4775 60.125C32.96 60.125 33.2104 59.8467 33.229 59.29C33.229 55.9316 31.1787 51.0889 27.0781 44.7617L27.0503 44.6504C27.0503 44.4277 27.1709 44.3164 27.4121 44.3164L27.5791 44.4556C31.7168 50.7642 33.7856 55.709 33.7856 59.29ZM24.6289 23.0249C22.0869 21.522 19.0625 20.0654 15.5557 18.6553C12.0303 17.2266 9.46044 16.5122 7.84618 16.5122C7.62353 16.4937 7.49365 16.4844 7.45654 16.4844C13.2827 19.5459 19.0068 21.7261 24.6289 23.0249ZM25.0464 43.231C25.0464 43.6763 24.7124 43.8989 24.0444 43.8989C23.7104 43.8989 23.395 43.8154 23.0981 43.6484C22.7827 43.4814 22.5879 43.2588 22.5137 42.9805C22.5137 42.7021 22.6343 42.4702 22.8755 42.2847C23.1167 42.0806 23.3486 41.9785 23.5713 41.9785C23.9609 42.0156 24.3042 42.1548 24.6011 42.396C24.8979 42.6187 25.0464 42.897 25.0464 43.231ZM39.5747 23.999C39.5747 24.2217 39.4819 24.3608 39.2964 24.4165C36.9956 24.7134 34.7783 24.8618 32.6445 24.8618C31.0303 24.8618 29.6294 24.7969 28.4419 24.667C29.6294 25.4834 30.6035 26.2349 31.3643 26.9214C32.125 27.6079 32.5054 28.2666 32.5054 28.8975C32.5054 29.8252 31.9209 30.3633 30.7519 30.5117C29.7871 30.5117 28.9893 30.2334 28.3584 29.6768C28.5439 30.0107 29.0635 31.2446 29.917 33.3784C31.4941 37.2563 32.2827 40.2065 32.2827 42.229C32.2827 44.4927 31.3735 45.6802 29.5552 45.7915C28.4048 45.7915 27.3472 45.4111 26.3823 44.6504C26.1782 44.5391 26.0762 44.335 26.0762 44.0381C26.0947 43.8154 26.1318 43.6392 26.1875 43.5093C26.2246 43.3608 26.3452 43.2866 26.5493 43.2866L26.6885 43.3145C27.5791 43.9453 28.5625 44.2607 29.6387 44.2607C30.1768 44.2607 30.6592 44.0845 31.0859 43.7319C31.4941 43.3794 31.6982 42.8784 31.6982 42.229C31.6982 41.1528 31.4663 39.8447 31.0024 38.3047C30.5386 36.7646 30.0098 35.2339 29.416 33.7124C28.8037 32.1909 28.1357 30.6416 27.4121 29.0645C26.7627 27.9883 26.438 27.1255 26.438 26.4761C26.438 25.604 26.8276 25.168 27.6069 25.168C27.8296 25.168 27.9409 25.2515 27.9409 25.4185C27.9409 25.5483 27.876 25.6504 27.7461 25.7246C27.5049 25.7988 27.3843 25.9844 27.3843 26.2812C27.3843 27.0791 27.811 27.8027 28.6645 28.4521C29.5181 29.083 30.3252 29.3984 31.0859 29.3984C31.6611 29.3984 31.9487 29.2314 31.9487 28.8975C31.8374 27.9697 30.251 26.5225 27.1894 24.5557C19.9717 23.5352 13.2178 21.2344 6.92773 17.6533C6.66796 17.4863 6.53808 17.2266 6.53808 16.874C6.53808 16.2617 6.96484 15.9556 7.81835 15.9556C9.63671 15.9556 12.3643 16.7163 16.001 18.2378C19.6377 19.7593 23.1167 21.4756 26.438 23.3867C28.7202 23.832 31.1045 24.0547 33.5908 24.0547C35.4277 24.0547 37.3018 23.9341 39.2129 23.6929C39.3799 23.6929 39.5005 23.7949 39.5747 23.999ZM27.9131 17.1802C27.8945 16.6978 27.7925 16.2339 27.6069 15.7886C27.4214 15.3433 27.1338 15.1206 26.7441 15.1206C26.5586 15.1206 26.4658 15.2876 26.4658 15.6216C26.4658 16.3081 26.9482 16.8276 27.9131 17.1802ZM32.0044 15.5103C32.0044 17.5142 31.1601 18.5625 29.4717 18.6553C28.5439 18.6553 27.7275 18.3955 27.0225 17.876C26.3174 17.3564 25.937 16.605 25.8813 15.6216C25.8813 15.3433 25.9556 15.0928 26.104 14.8701C26.2524 14.6475 26.4658 14.5361 26.7441 14.5361C27.375 14.5361 27.8203 14.8516 28.0801 15.4824C28.3398 16.1133 28.4697 16.7349 28.4697 17.3472C28.7295 17.4028 29.0356 17.4307 29.3882 17.4307C30.0005 17.4307 30.4922 17.2637 30.8633 16.9297C31.2344 16.5771 31.4199 16.104 31.4199 15.5103C31.4199 14.1001 31.2158 12.6064 30.8076 11.0293C30.3994 9.45215 29.8613 7.84717 29.1934 6.21435C28.5254 4.58154 27.811 2.94873 27.0503 1.31592C27.0503 1.22314 27.0688 1.13965 27.1059 1.06543C27.1431 0.972655 27.2266 0.926268 27.3564 0.926268C27.3935 0.926268 27.4399 0.944823 27.4956 0.981932C27.5513 1.00049 27.5791 1.02832 27.5791 1.06543C27.6162 1.10254 27.8574 1.59424 28.3027 2.54053C28.748 3.48681 29.2583 4.69287 29.8335 6.15869C30.4087 7.62451 30.9189 9.19238 31.3643 10.8623C31.791 12.5137 32.0044 14.063 32.0044 15.5103Z" fill="white"/>
</svg>
