<svg width="210" height="24" viewBox="0 0 210 24" fill="none" xmlns="http://www.w3.org/2000/svg">
<mask id="mask0_1756_615" style="mask-type:alpha" maskUnits="userSpaceOnUse" x="0" y="0" width="210" height="24">
<path fill-rule="evenodd" clip-rule="evenodd" d="M106.915 9.90203C107.22 11.6742 108.262 11.7812 109.268 11.5449C110.09 11.351 110.733 10.6419 110.708 9.8943C110.696 9.57306 110.614 9.24217 110.5 8.94022C110.367 8.59679 110.16 8.28038 110 7.97457C111.661 6.02975 113.859 5.73261 116.107 5.48662C118.117 5.26667 119.85 5.8127 121.443 7.01856C123.224 8.36431 125.046 9.65314 126.846 10.9719C129.127 12.6418 131.485 14.1891 134.017 15.4538C137.01 16.9481 140.014 18.4232 143.014 19.9069C143.071 19.9358 143.129 19.9686 143.188 19.9966C143.545 20.1596 143.946 20.4075 144.283 20.0892C144.638 19.7545 144.381 19.356 144.186 19.0193C143.661 18.1087 143.096 17.2221 142.595 16.2989C141.707 14.6667 140.58 13.2235 139.225 11.9616C138.36 11.1581 137.446 10.4066 136.569 9.61745C136.393 9.4602 136.103 9.32611 136.249 8.9412C136.871 9.03188 137.508 9.09555 138.132 9.21999C139.485 9.48914 140.823 9.83933 142.181 10.066C144.268 10.4143 146.259 11.0606 148.216 11.8304C151.464 13.1087 154.539 14.7062 157.304 16.9182C157.349 17.3167 157.33 17.7257 157.453 18.0865C157.598 18.5081 157.798 18.9509 158.097 19.2692C158.643 19.8519 159.361 19.9107 160.095 19.6339C160.766 19.3811 161.142 18.7946 161.092 18.101C161.037 17.3446 160.543 16.9491 159.9 16.6848C159.779 16.6346 159.649 16.5652 159.525 16.571C158.214 16.6395 157.345 15.8696 156.472 15.0458C155.999 14.6001 155.45 14.2113 154.882 13.893C153.511 13.1222 152.105 12.417 150.723 11.6626C150.416 11.4957 149.941 11.4619 149.964 10.8715C150.82 10.9651 151.665 11.0674 152.512 11.1494C154.913 11.3828 157.114 12.1546 159.082 13.565C159.829 14.1004 160.585 14.6223 161.349 15.1336C166.405 18.511 171.847 20.7452 178.02 21.0375C181.498 21.2025 184.951 21.6973 188.224 23.0161C188.304 23.0479 188.443 22.9322 188.632 22.8511C188.632 22.0784 188.114 21.5632 187.629 21.0491C186.359 19.6995 184.865 18.6296 183.297 17.663C179.476 15.3072 175.396 13.5322 171.086 12.2819C170.883 12.2231 170.541 12.2964 170.537 11.788C172.23 11.4214 173.897 10.9304 175.68 11.5285C178.167 12.3639 180.696 13.0749 183.171 13.9412C186.537 15.1191 189.925 16.1243 193.54 15.9719C195.113 15.9053 196.684 15.7982 198.251 15.6439C201.647 15.3091 205.035 14.8741 208.46 15.2628C208.933 15.3169 209.432 15.1432 210 15.0641C209.748 14.22 209.18 13.8486 208.63 13.5389C207.432 12.8627 206.227 12.1768 204.96 11.6481C198.188 8.82833 191.141 7.54817 183.803 8.0093C182.576 8.08551 181.352 8.19741 179.998 8.30352C181.572 6.7822 184.949 4.68303 187.046 3.88234C187.597 3.67203 188.165 3.49936 188.701 3.25529C188.88 3.17426 188.983 2.92439 189.266 2.56938C188.458 2.45169 187.89 2.3533 187.32 2.2906C186.603 2.21053 185.881 2.19026 185.167 2.09379C181.613 1.61434 178.093 1.8314 174.602 2.59834C173.837 2.76619 173.068 2.99096 172.356 3.31317C169.077 4.79494 166.198 6.80922 164.042 9.75346C163.779 10.1133 163.465 10.4365 163.196 10.7519C159.807 10.7789 156.567 10.2001 153.304 9.88273C153.219 9.87502 153.151 9.70812 152.991 9.51615C153.931 9.1978 154.847 8.93058 155.728 8.57944C156.703 8.1897 157.655 7.74401 158.6 7.28578C159.483 6.85938 160.345 6.38476 161.193 5.94293C161.622 6.04229 162.01 6.22655 162.38 6.19664C162.951 6.14937 163.55 6.0394 164.065 5.80016C164.614 5.54355 164.974 5.03804 164.902 4.36468C164.831 3.72413 164.46 3.27844 163.894 3.0035C162.892 2.5173 161.724 2.79223 161.099 3.72027C160.815 4.14184 160.675 4.65987 160.446 5.19335C159.53 5.63807 158.587 6.09534 157.645 6.55743C154.529 8.0855 151.152 8.6759 147.766 9.04441C146.176 9.21806 144.517 8.78106 142.894 8.58136C141.787 8.44631 140.685 8.2553 139.584 8.07008C138.232 7.84241 136.908 7.498 135.197 6.84201C136.36 6.94427 137.067 6.99443 137.773 7.06872C143.374 7.66393 148.256 5.91109 152.626 2.50862C153.088 2.14879 153.486 1.70116 153.877 1.26222C153.978 1.14839 153.941 0.912038 153.982 0.623594C153.619 0.712346 153.328 0.8175 153.028 0.84837C152.704 0.881169 152.372 0.855123 152.045 0.8339C150.606 0.746113 149.164 0.684381 147.729 0.550289C146.357 0.422949 144.996 0.151859 143.622 0.0602134C138.084 -0.311194 133.08 0.998871 128.917 4.8644C128.778 4.9956 128.602 5.08724 128.436 5.20203C128.236 5.19335 128.034 5.2194 127.848 5.17117C125.229 4.50939 122.579 4.16113 119.88 3.97398C117.476 3.80709 115.157 4.02029 112.888 4.74091C111.961 5.03611 111.069 5.49337 110.226 5.98826C109.109 6.64233 106.61 8.12892 106.915 9.90203ZM172.283 19.1718C169.406 18.3701 162.941 15.067 161.1 13.4299C168.187 15.3535 175.116 17.472 182.07 20.1529C180.509 20.4394 174.547 19.8036 172.283 19.1718ZM206.602 13.7328C205.744 13.8708 205.08 13.6306 204.414 13.537C203.636 13.4261 202.86 13.2842 202.088 13.1347C201.379 12.9997 200.677 12.8337 199.97 12.69C199.198 12.5328 198.427 12.3803 197.653 12.2385C196.943 12.1083 196.23 11.9964 195.52 11.8739C194.744 11.7398 193.969 11.6057 193.195 11.4639C192.485 11.3356 191.778 11.1938 191.069 11.0616C190.296 10.9169 189.521 10.7693 188.747 10.6391C188.035 10.5194 187.321 10.4114 186.607 10.3149C185.827 10.2088 185.044 10.1258 184.265 10.0216C183.555 9.92614 182.847 9.81713 182.138 9.71391C188.482 8.09612 201.569 10.5252 206.602 13.7328ZM180.282 10.777C185.332 11.5218 190.381 12.2607 195.428 13.0228C197.433 13.3248 199.429 13.6798 201.429 14.0107C201.443 14.1062 201.458 14.2026 201.473 14.2991C201.241 14.3801 201.014 14.5094 200.776 14.5355C199.084 14.713 197.393 14.8914 195.698 15.0284C192.459 15.2908 189.298 14.9001 186.235 13.7984C183.596 12.8501 180.964 11.8854 178.124 10.8532C178.621 10.5281 178.981 10.6651 179.306 10.6757C179.632 10.6863 179.958 10.7297 180.282 10.777ZM167.473 10.4741C167.732 10.2638 167.9 10.0689 168.112 9.96184C170.274 8.86595 172.453 7.81443 174.776 7.08223C177.024 6.37511 179.247 5.59081 181.485 4.85282C182.024 4.67435 182.577 4.54508 183.382 4.32127C179.195 7.8617 171.715 10.7307 167.473 10.4741ZM164.927 10.0708C167.295 7.54624 170.112 5.63615 173.261 4.25664C174.443 3.7386 175.77 3.49742 177.056 3.2794C178.539 3.02762 180.048 2.91861 181.549 2.79706C182.039 2.75654 182.541 2.86555 183.287 2.9244C182.897 3.17233 182.753 3.30642 182.584 3.36334C180.221 4.14956 177.877 5.00717 175.481 5.68343C172.419 6.54779 169.587 7.86749 166.906 9.55184C166.247 9.96473 165.578 10.3622 164.948 10.7461C164.547 10.4442 164.757 10.2522 164.927 10.0708ZM165.312 12.1613C171.541 13.1029 177.319 15.2956 182.698 18.5573C183.13 18.8197 183.528 19.1419 184.302 19.6946C183.53 19.5827 183.171 19.5972 182.867 19.4757C178.121 17.5897 173.287 15.9603 168.403 14.4747C165.965 13.7328 163.505 13.0643 161.054 12.361C162.47 11.8507 163.906 11.9481 165.312 12.1613ZM150.717 2.71119C145.937 6.02588 140.808 6.4272 135.106 5.3506C137.393 4.44572 148.726 2.54816 150.717 2.71119ZM147.254 1.80052C147.168 1.8777 147.089 2.00697 146.991 2.02337C141.906 2.88195 136.819 3.73088 131.731 4.57499C131.688 4.58367 131.63 4.50071 131.578 4.46019C134.652 1.56996 142.482 0.242541 147.254 1.80052ZM131.048 7.32436C135.346 9.3589 138.959 12.2125 141.531 16.2729C141.659 16.4783 141.728 16.7214 141.825 16.9472C141.745 16.9896 141.665 17.0321 141.586 17.0755C139.421 15.2725 137.315 13.3923 135.075 11.6886C132.842 9.99077 130.473 8.47042 128.133 6.8507C129.257 6.79378 130.04 6.84684 131.048 7.32436ZM127.195 7.55589C131.819 10.066 136.002 13.1936 139.819 16.8131C139.908 16.897 139.947 17.035 140.008 17.1488C136.77 16.4185 125.696 9.39845 122.652 6.05C124.483 6.26995 125.879 6.84105 127.195 7.55589Z" fill="#1D262D"/>
<path fill-rule="evenodd" clip-rule="evenodd" d="M99.7727 5.98954C98.9295 5.49562 98.0382 5.03739 97.1101 4.74219C94.8412 4.02157 92.523 3.80835 90.119 3.97525C87.4198 4.16143 84.7688 4.51066 82.1516 5.17244C81.9663 5.21971 81.7628 5.19367 81.5631 5.20331C81.3972 5.08851 81.2206 4.99686 81.0817 4.86566C76.919 1.00013 71.9152 -0.309916 66.3769 0.0614913C65.0041 0.154102 63.6429 0.424212 62.2711 0.551552C60.8357 0.685644 59.3944 0.747391 57.9551 0.835178C57.6281 0.855436 57.2962 0.882447 56.973 0.849648C56.672 0.818777 56.3807 0.713624 56.019 0.624872C56.0604 0.912351 56.0228 1.1487 56.1241 1.2635C56.5148 1.70244 56.9132 2.15101 57.3753 2.50988C61.7444 5.91236 66.6267 7.66521 72.2268 7.06999C72.9329 6.99475 73.641 6.94555 74.8035 6.84329C73.0931 7.49928 71.7685 7.84367 70.416 8.07134C69.3153 8.25656 68.2137 8.44757 67.1071 8.58263C65.4845 8.78135 63.8253 9.21934 62.2355 9.04569C58.8494 8.67814 55.471 8.08678 52.356 6.55871C51.4145 6.09662 50.471 5.63935 49.5555 5.19463C49.3259 4.66115 49.186 4.14214 48.9024 3.72153C48.2773 2.7935 47.109 2.51856 46.1067 3.00477C45.5404 3.27971 45.169 3.7254 45.0986 4.36596C45.0263 5.03932 45.3861 5.54481 45.936 5.80142C46.4511 6.04066 47.0492 6.14967 47.6213 6.1979C47.9898 6.22877 48.3795 6.04355 48.8079 5.94419C49.6558 6.38602 50.5163 6.86066 51.401 7.28706C52.3454 7.74528 53.2985 8.19096 54.2729 8.5807C55.1546 8.93185 56.0691 9.19908 57.0097 9.51742C56.8505 9.7094 56.782 9.87628 56.6971 9.884C53.4346 10.2023 50.1941 10.7802 46.8061 10.7532C46.536 10.4377 46.2235 10.1146 45.9591 9.75474C43.804 6.8105 40.9253 4.7962 37.6454 3.31443C36.9334 2.99223 36.1636 2.76746 35.3986 2.5996C31.9084 1.83267 28.3872 1.61562 24.8342 2.09507C24.1204 2.1925 23.3969 2.21276 22.6811 2.29186C22.1109 2.35457 21.5427 2.45297 20.7343 2.57066C21.0179 2.92567 21.1202 3.17456 21.2996 3.25655C21.835 3.50062 22.4032 3.67428 22.9541 3.88361C25.0503 4.68528 28.4277 6.78444 30.0021 8.3048C28.6486 8.19868 27.4244 8.08679 26.1974 8.01058C18.8599 7.54945 11.8118 8.82959 5.04064 11.6494C3.774 12.1771 2.56815 12.863 1.37193 13.5402C0.820128 13.8499 0.251903 14.2213 0.00108293 15.0654C0.569288 15.1454 1.06805 15.3181 1.54171 15.2641C4.96831 14.8744 8.35536 15.3094 11.7511 15.6452C13.3168 15.7995 14.8883 15.9066 16.4617 15.9732C20.0774 16.1256 23.4644 15.1194 26.8312 13.9425C29.3056 13.0762 31.8351 12.3652 34.322 11.5298C36.1038 10.9307 37.7718 11.4217 39.4648 11.7893C39.4619 12.2977 39.1204 12.2243 38.9159 12.2832C34.6056 13.5334 30.5259 15.3085 26.7048 17.6643C25.1372 18.6318 23.6429 19.7007 22.3733 21.0503C21.889 21.5636 21.371 22.0797 21.371 22.8524C21.5601 22.9325 21.7 23.0482 21.7791 23.0173C25.0532 21.6986 28.5049 21.2047 31.9836 21.0388C38.1557 20.7465 43.5976 18.5122 48.6545 15.1348C49.4185 14.6235 50.1729 14.1007 50.9206 13.5662C52.8895 12.1549 55.09 11.3831 57.4911 11.1506C58.3381 11.0686 59.1832 10.9664 60.0388 10.8728C60.063 11.4632 59.5874 11.4979 59.2806 11.6639C57.8982 12.4183 56.4926 13.1235 55.1208 13.8942C54.5536 14.2136 54.0047 14.6014 53.531 15.047C52.6589 15.8709 51.7888 16.6407 50.4787 16.5722C50.3552 16.5664 50.224 16.6359 50.1044 16.6861C49.461 16.9494 48.9661 17.3459 48.9121 18.1022C48.8619 18.7959 49.2381 19.3833 49.9076 19.6351C50.6437 19.912 51.3604 19.8532 51.9074 19.2705C52.2065 18.9521 52.4062 18.5093 52.5509 18.0878C52.6744 17.727 52.6551 17.3179 52.7004 16.9195C55.4652 14.7075 58.5407 13.1109 61.7878 11.8317C63.7442 11.0619 65.7363 10.4155 67.823 10.0673C69.1812 9.83962 70.5183 9.49041 71.8708 9.22126C72.495 9.09681 73.1317 9.03314 73.7529 8.94246C73.8996 9.32737 73.6092 9.4605 73.4327 9.61871C72.5557 10.4078 71.6422 11.1584 70.7768 11.9629C69.4234 13.2247 68.2947 14.667 67.4072 16.3002C66.9065 17.2234 66.3421 18.11 65.8164 19.0206C65.6215 19.3583 65.3649 19.7557 65.7199 20.0905C66.0566 20.4098 66.4579 20.1619 66.8148 19.9979C66.8737 19.9699 66.9306 19.9371 66.9904 19.9081C69.9887 18.4244 72.9927 16.9504 75.9871 15.4551C78.5185 14.1904 80.8762 12.643 83.1568 10.9732C84.9578 9.65441 86.7792 8.36558 88.56 7.01983C90.1518 5.81396 91.8863 5.26795 93.8948 5.4879C96.1435 5.73293 98.3411 6.03101 100.003 7.97584C99.8412 8.28068 99.6347 8.59807 99.5025 8.9415C99.3868 9.24345 99.3058 9.57434 99.2932 9.89558C99.2691 10.6442 99.9125 11.3523 100.734 11.5462C101.738 11.7825 102.782 11.6764 103.086 9.9033C103.387 8.12922 100.888 6.64264 99.7727 5.98954ZM27.927 20.1532C34.8806 17.4723 41.81 15.3538 48.8976 13.4302C47.056 15.0673 40.5916 18.3695 37.7139 19.1721C35.4498 19.804 29.4879 20.4397 27.927 20.1532ZM27.8605 9.71422C27.1514 9.81744 26.4443 9.92645 25.7343 10.022C24.9539 10.1261 24.1715 10.2081 23.392 10.3152C22.6772 10.4127 21.9633 10.5197 21.2524 10.6394C20.4767 10.7696 19.703 10.9182 18.9303 11.0619C18.2193 11.1941 17.5132 11.3359 16.8032 11.4642C16.0295 11.605 15.2529 11.7401 14.4773 11.8742C13.7663 11.9967 13.0544 12.1096 12.3444 12.2388C11.5707 12.3806 10.7989 12.534 10.0262 12.6903C9.32003 12.834 8.61775 13 7.9087 13.135C7.13695 13.2836 6.36132 13.4264 5.58184 13.5373C4.9162 13.6299 4.25249 13.8711 3.39391 13.7331C8.42865 10.5255 21.5157 8.09643 27.8605 9.71422ZM30.6909 10.676C31.016 10.6654 31.3749 10.5275 31.8727 10.8535C29.0336 11.8857 26.4009 12.8504 23.7615 13.7987C20.6996 14.9004 17.5373 15.2921 14.2969 15.0287C12.6029 14.8917 10.9118 14.7133 9.22067 14.5358C8.98336 14.5107 8.75569 14.3804 8.52223 14.2994C8.53863 14.202 8.55214 14.1065 8.56757 14.011C10.5664 13.6801 12.5633 13.326 14.567 13.0231C19.6143 12.262 24.6635 11.523 29.7147 10.7773C30.0388 10.73 30.3658 10.6866 30.6909 10.676ZM26.6151 4.32158C27.4196 4.54443 27.9734 4.67465 28.5126 4.85312C30.7498 5.59111 32.9734 6.37541 35.2211 7.08253C37.5441 7.81474 39.7233 8.86625 41.8843 9.96215C42.0965 10.0692 42.2643 10.2641 42.5238 10.4744C38.283 10.731 30.8019 7.86201 26.6151 4.32158ZM45.0494 10.7464C44.4195 10.3635 43.749 9.966 43.092 9.55215C40.4112 7.86779 37.5779 6.54713 34.5169 5.68373C32.1206 5.00748 29.7764 4.15083 27.4129 3.36364C27.2431 3.30673 27.1013 3.17263 26.7106 2.92471C27.4563 2.86489 27.9579 2.75685 28.448 2.79736C29.9491 2.91988 31.4579 3.02889 32.9416 3.27971C34.2275 3.49773 35.5549 3.7389 36.7367 4.25694C39.8854 5.63646 42.7023 7.54751 45.0716 10.0711C45.2414 10.2525 45.4498 10.4445 45.0494 10.7464ZM48.9439 12.3623C46.4936 13.0656 44.0326 13.7341 41.5948 14.476C36.7116 15.9616 31.8775 17.5909 27.1312 19.4769C26.8264 19.5985 26.4675 19.583 25.6948 19.6959C26.4704 19.1441 26.8659 18.8219 27.3 18.5585C32.6782 15.2969 38.4577 13.1041 44.6857 12.1626C46.0922 11.9484 47.5287 11.851 48.9439 12.3623ZM74.8913 5.35091C69.188 6.42751 64.0597 6.02619 59.2806 2.7115C61.2717 2.54847 72.604 4.44603 74.8913 5.35091ZM78.4192 4.46049C78.368 4.50101 78.3101 4.58398 78.2677 4.5753C73.1789 3.73215 68.0911 2.88322 63.0072 2.02368C62.9078 2.00728 62.8297 1.878 62.7429 1.80083C67.5152 0.242848 75.3457 1.57027 78.4192 4.46049ZM81.8641 6.851C79.5247 8.47072 77.1554 9.99108 74.9222 11.6889C72.6821 13.3926 70.5771 15.2728 68.4114 17.0758C68.3323 17.0324 68.2532 16.9909 68.1722 16.9475C68.2696 16.7218 68.3371 16.4786 68.4664 16.2732C71.0383 12.2128 74.6511 9.3592 78.9488 7.32467C79.9569 6.84714 80.7402 6.79409 81.8641 6.851ZM87.3455 6.0503C84.3019 9.39876 73.2272 16.4188 69.9887 17.1491C70.0495 17.0353 70.089 16.8973 70.1787 16.8134C73.996 13.1939 78.177 10.0663 82.8027 7.5562C84.1186 6.84136 85.5154 6.27026 87.3455 6.0503Z" fill="#1D262D"/>
</mask>
<g mask="url(#mask0_1756_615)">
<rect x="285.246" y="94.4102" width="347.29" height="160.139" transform="rotate(-180 285.246 94.4102)" fill="#5B5757"/>
</g>
</svg>
